/* XPM */
static char *_c64ae3e19684e01d8162df67710b54aNaT9TunlISM6neyE[] = {
/* columns rows colors chars-per-pixel */
"64 64 227 2 ",
"   c #DE7E17",
".  c #E17F16",
"X  c #E68116",
"o  c #E98316",
"O  c #E5841B",
"+  c #EA851A",
"@  c #EC891E",
"#  c #F08614",
"$  c #F58915",
"%  c #FA8C16",
"&  c #F58C1C",
"*  c #FA8E1A",
"=  c #FA901E",
"-  c #DC862B",
";  c #DE8C36",
":  c #DD8E39",
">  c #E58722",
",  c #E78926",
"<  c #EB8B24",
"1  c #E68C2C",
"2  c #EA8E2B",
"3  c #F28E23",
"4  c #F08F28",
"5  c #ED912D",
"6  c #F59125",
"7  c #FA9324",
"8  c #F79B27",
"9  c #F4932C",
"0  c #FA962B",
"q  c #FA982E",
"w  c #E58E32",
"e  c #E88F30",
"r  c #E08F38",
"t  c #E69135",
"y  c #EB9234",
"u  c #E79B34",
"i  c #EB9A32",
"p  c #E5933B",
"a  c #EA953A",
"s  c #EE993D",
"d  c #F39633",
"f  c #F59936",
"g  c #FA9A34",
"h  c #FB9C35",
"j  c #FB9C37",
"k  c #F29939",
"l  c #F69A39",
"z  c #F49B3B",
"x  c #FB9D38",
"c  c #FB9F3C",
"v  c #FA9F3E",
"b  c #FC9F3C",
"n  c #F9AB2D",
"m  c #ECA134",
"M  c #EDA33A",
"N  c #EEAF3A",
"B  c #F7A537",
"V  c #FAA335",
"C  c #F6AD34",
"Z  c #FBA13E",
"A  c #FBA03F",
"S  c #F5AA3B",
"D  c #F9AC3A",
"F  c #F3B23D",
"G  c #F9B23C",
"H  c #F7B838",
"J  c #F9BB3B",
"K  c #F8D12E",
"L  c #F6C73A",
"P  c #F6D534",
"I  c #F7DE37",
"U  c #F6D33D",
"Y  c #F6DA3B",
"T  c #F7E335",
"R  c #F8E533",
"E  c #F6E33C",
"W  c #F7E93B",
"Q  c #DD974E",
"!  c #E39745",
"~  c #E99740",
"^  c #E69846",
"/  c #EB9A43",
"(  c #E59B4B",
")  c #EA9D4B",
"_  c #F39D42",
"`  c #F89F40",
"'  c #F09F49",
"]  c #E69E50",
"[  c #ECA942",
"{  c #EDA04E",
"}  c #F6A145",
"|  c #FBA141",
" . c #FBA243",
".. c #FBA345",
"X. c #FBAB45",
"o. c #F5A34B",
"O. c #FAA549",
"+. c #FBA64A",
"@. c #FBA84E",
"#. c #ECBB4A",
"$. c #F9B342",
"%. c #F5B944",
"&. c #F8BB41",
"*. c #EDA354",
"=. c #E4A25C",
"-. c #EAA458",
";. c #F3A653",
":. c #F3A857",
">. c #FBAA54",
",. c #F4AA5B",
"<. c #FBAE5B",
"1. c #F6BF51",
"2. c #FCB05F",
"3. c #ECAA64",
"4. c #FBB161",
"5. c #FCB569",
"6. c #FABB76",
"7. c #F3C345",
"8. c #F5C54A",
"9. c #F6CB4C",
"0. c #F4D243",
"q. c #F5DD44",
"w. c #F4D34C",
"e. c #F5D94C",
"r. c #F5C954",
"t. c #F4D253",
"y. c #F3DC56",
"u. c #F3D45A",
"i. c #F3DC5B",
"p. c #F6E343",
"a. c #F5E946",
"s. c #F5E34C",
"d. c #F5E94A",
"f. c #EEE455",
"g. c #F3E353",
"h. c #F3EC57",
"j. c #F2E25C",
"k. c #EFCF67",
"l. c #EFCE68",
"z. c #F0CD63",
"x. c #EFD26D",
"c. c #F1D464",
"v. c #F2DC61",
"b. c #F1DE6B",
"n. c #EED473",
"m. c #EEDB75",
"M. c #EDD67A",
"N. c #EEDD7E",
"B. c #F2D975",
"V. c #EFE26B",
"C. c #F2E264",
"Z. c #F2EB62",
"A. c #F1E46C",
"S. c #F2E869",
"D. c #EDE272",
"F. c #EFEE77",
"G. c #EDE37B",
"H. c #EFEB7B",
"J. c #F1E373",
"K. c #F0EC73",
"L. c #F0E478",
"P. c #F0E979",
"I. c #EEDD83",
"U. c #EDDE8B",
"Y. c #F4D985",
"T. c #F1DC85",
"R. c #EDDE93",
"E. c #E7DC9E",
"W. c #ECDC9D",
"Q. c #F8DC98",
"!. c #EDE485",
"~. c #EEEE84",
"^. c #E7E28D",
"/. c #ECE58C",
"(. c #ECEA8E",
"). c #F1E882",
"_. c #E6E394",
"`. c #ECE593",
"'. c #EBEA93",
"]. c #E6E59B",
"[. c #EBE69C",
"{. c #EBE99E",
"}. c #F1E396",
"|. c #EDF093",
" X c #EEF19C",
".X c #E7E6A4",
"XX c #EBE6A3",
"oX c #EBE9A3",
"OX c #E6E6AB",
"+X c #EBE6AB",
"@X c #E7E9AE",
"#X c #EBEAAA",
"$X c #F4E4A6",
"%X c #EDF2A4",
"&X c #EDF2AA",
"*X c #ECEAB4",
"=X c #E9E9BA",
"-X c #ECEBBA",
";X c #F4E7B6",
":X c #F3EBBD",
">X c #ECF1B5",
",X c #ECF1BB",
"<X c #F3F3B5",
"1X c #E6ECC6",
"2X c #EDEDC2",
"3X c #E7EECB",
"4X c #ECEFCB",
"5X c #F5ECC3",
"6X c #F5EFCA",
"7X c #FBEFCF",
"8X c #EDF0C2",
"9X c #EEF4CD",
"0X c #F0F3C2",
"qX c #F4F2CC",
"wX c #E7F1D3",
"eX c #EBF2D3",
"rX c #EEF5DB",
"tX c #F3F2D2",
"yX c #F4F5DC",
"uX c #F8F6DA",
"iX c #F7F7E3",
"pX c #FAF6E3",
"aX c #F9F9E5",
"sX c #F7F9EA",
"dX c #F9F9EC",
"fX c #FCFDF3",
"gX c #FFFFFD",
/* pixels */
"<.>.+.+...c z ~ | Z x c c j g j x f y x j l j j g j j f e j j j j x c ` c c ` c g l e l x j g j O.| | o.Z p | O.| O.Z c c ..` ..",
"<.>.@.+.` ` _ p z ` ` z z z k z l p a x f j | j f j f d 2 f d d f f z v l k z g d k r f d d d f z } z z z : ^ _ l d d k k b j f ",
"*.) ^ ^ p a ~ p y a a : y a a y y w e w t 1 5 w 1 y w 1 1 t 2 1 y 1 y y y e y a w p p 5 2 d y y d y y a s s t s a d a a a p a 2 ",
"O.+.| | g c ` x g g f e j g g j g g g g 0 f j z l f d 1 g j x j j j j j c ` x ` s z j g x x l j d j v Z Z z p | Z Z ` c x c c Z ",
"| +.| | j Z | x j j l 1 g g g Z x x c v x x c x x j z a x g g j j g q g j j g j p l x j j j g q h g g j j l p j j j c j x ` c x ",
"....| c c ..c j Z x f y j j j j j x x j g j x j g g d d Z j j b x j j Z j j j j 1 l j j f g q g q q q 7 q j 5 d q q 0 q q g j j ",
"x j j g x x j g j g d y f j c j x c x x x x l x q g d t g j b j j j q q q j j j 5 k g g q j g q g q 7 % 7 q 1 6 7 7 7 q g q q 7 ",
"| ..| Z c ....x c x f y j Z x c x Z | x j x ` v Z j d 5 g j c c j j Z j g j j j 4 4 q q 7 j 0 7 q 0 = 7 7 7 , 7 7 7 0 g q q 7 0 ",
"` ` } z z ` _ l l z d w z l l l ` z _ s a z z _ _ _ a w z f 9 y 5 k y 5 5 9 2 <   > < < 1 2 2 2 2 < < 4 2 2   , < 2 2 t 2 5 2 2 ",
"o._ ) / p ~ / _ ~ s s a p p p a a a p a z a z a a s y 1 y e 2 , 5 s d 5 5 6 2 6 2 6 9 9 e e 9 z 4 4 4 4 d d d d 9 w y f f d d f ",
">.+...@.^ ` c ....c | c x ` x x | c y x g x x j c l g g g g g d d j g g 0 q q 0 0 q q q a 6 q g j q q q q g q g q 2 f g j c x j ",
">.@...+.) } ` c ..x x x c x x c Z c t l x g g j j j g q q 0 q 5 1 q q q q q q q q 0 7 0 d 2 q 7 q 7 q g g g q q g 5 d g q q q g ",
"+.c x ..) z c ....` ` Z ` ....x x Z p g j g 0 0 0 0 7 q q q 0 4 9 7 7 0 0 0 0 0 0 0 q 7 3 2 q q 7 7 q q q g q 0 q 4 d g g q 0 0 ",
"` j x ..^ g c ` ..c x Z x x x j g g 1 f q q q 0 7 0 7 7 7 0 q 2 < 7 0 7 0 0 q g q q g g 9 y j x g q h g j | j j j e z ` b j b j ",
"....` c ~ l c x x j h h g h j g j j y q g g g q q g j j B D G N $.G D h j g h x g l c c l a c j b b Z c x h x ` ` / @.+.` +.` +.",
"c x j j y l j f j j f h h g g j f g y C H H q g B $.9.t.i.C.A.A.V.A.v.y.9.&.D V g q x l z 2 g g h h g g j g j ` ` ~ ` ....+...` ",
") / / ~ : p t w ; t e e e 2 1 1 1 m L U q.P N 7.i.J.).|. X%X&X&X%X%X X|.~.K.C.w.F i 1 2 1 - 1 2 1 e 1 2 1 2 e e e ; p p a a ^ ^ ",
"+.@...` ` c ` z y f d 9 9 9 9 q C 0.f.f.w.w.i.!.%X<XqXuXyXyXrXrXrXrXeX9X,X&X X).A.t.C 0 6 6 1 2 0 9 0 4 d d q d 9 d 4 w d f ` >.",
"..c x x g j ..` 2 9 q 0 0 q q 8 P f.f.y.i.~.>XuXdXfXgXgXgXfXsXrXrXrXrXrXyXrX9X*X X~.C.7.h g 2 2 q q q q q q q q q g q w x h ` +.",
"` ` x x ` ..@.c y d q q q 0 0 q C H q.J.<XaXgXgXgXgXgXgXgXgXgXyXrXrXrXrXtXeXeXeX8X&X|.F.t.V 2 d 0 q q g q q q q q q d 2 h +.+.>.",
"` j x ` +.+.c g t 9 q g g q g q q J m.qXfXgXgXgXgXgXgXgXgXgXdX7XrXrXrXrXeX6X4X6X2X4X*X'.~.i.M z h h  .j x x x g x x ` ) >.>.<.<.",
"j j | ......x g y d j q q g q q &.m.0XgXgXgXgXgXgXgXgXgXgXpX$XoX,X,X,X,X2X-X2X-X2X9X;X*X'.~.u.B j x x h c x x c ....:.-.4.4.<.5.",
"..| >...+...g g 1 9 q 0 8 0 7 G b.-XrXfXgXgXgXgXgXpX7X7X;XY.n.N.G.N.G.!.I.N.T.I.XX;X+X+X$X'.~.r.g 7 0 0 q g q x ` ..o.) o.+.+.' ",
";.<.>.;.o.` d 9 1 1 9 2 < & 8 i.&XwXwXrXdXfXfXpX7XQ.Y.B.B.N.!./././.R././.!././.`.R.R.W.E.E.'.F.%.4 3 @ < < < < < 2 w - 2 e 2 2 ",
";.:.] ] ^ w 2 1 5 9 < 9 @ < 7.(.wXwXwXwX4X*XXX}.!.B.!.(.'.[.oXXX+X+X@X+X.X[.`././././.^.U.W.XX(.V.B e 4 4 6 3 3 3 0 , 3 7 3 7 * ",
"5.<.>.o.s q g g q 7 q 7 = C A.,XwX4X1X=XXX`.`.`.}.N.{.$XoX.XXX#XXX#X@XOX+X.X]._._././././.`.W.{.~.r.g q 0 0 0 0 0 q 1 9 0 q q q ",
"6.5.5.,.{ Z j j q 0 7 7 8 9.'.wX4X1X.X`./.(.'.{.XXU.XX#XoXoX+X#X#X+X+XOX.X.X].]._.`././.!.!./.E.(.b.n 7 7 7 7 7 7 3 2 0 q q g j ",
"6.4.<.3.;.| j j q q q 0 D b.-XwX1X.X/.(.[.{.{.{.[.T.#X#X#XoX#X#X#X#XOXOX@X*X@XXX].`._./././.!.`._.H.&.x x g g g q 0 1 g +.....>.",
"2.>.<.:.;.>...c c g x x 8./.8X3X@X!.`.[.oX[.[.{.XXU.#X#X#XoX#X#X#X@X=XeXiXiXiXtX;X`.`./././.!./._.G.t.X.+.|  .+..._ ~ +.>.<.>.<.",
">.>.>.) ) >...@.........u.'.4X1X(.(.[.[.oX[.{.oXoXU.#X#X#X#X#X#X@X2XpXdXdXiXpXiXuXoX`.(./.!./.!.^.!.y.X.+... .+.@.+.) +.>.>.>.5.",
":.;.( ^ / ) a / / ~ ~ [ c.oX4XoX/.'.[.XX[.oX{.oX{.T.}.[.}.`.`.`.[.5X7X7X5X:X5XqXpX#X'.`./././.^./.!.y.N ) ) ) ) ) ( Q ] ] =.] 3.",
";.>.o._ _ s z l f w e X.b.<X-X`./.[.[.[.XXoXoX{.[.Y.`.`./.`.`.R.R.;X7X5X;XT.R.5XuX#X`./.(.(.!././.G.y.%.` +.+.;.;.;.,.4.,.3.3.6.",
"2.2.>.+...c ` x c y f G A.*X@X/.`.[.[.{.oXoX%X{.{./.oX#XoXoXoXoX.X-XdXdXtX#X-XpXtX[.`.'./.(././.!.j.s.J x ..@.@.+.@.>.>.>.>.*.<.",
"4.4.2.>.@...x c c y k $.J.&X{.!.`.[.[.{.oXoX{.{.[./.oXoX{.oXXXXX.X@X-XqXpXpXpXqXoX`.`./.'./././.D.s.e.&.c c | +.....+.@.@.+.( >.",
"2.<.<.>.>.+...c j y z $.A.{.[./.'.[.[.{.oXoXoX{.`./.oXoXoX{.{.#X-X5X-XXX$X+X+X[.`.`.`.'././.`.!.g.T g.G q g x x c ` ....@.;.) >.",
">.>.+.+...| ` c x a f $.b.'././.`.].[.{.oXoXoX{.}.U.{.oXoX{.#XqXqX6XuX+X[.`.R.`.`.`.`.`.'.'./.g.I T j.C 0 g x g j x x ` +.;.] >.",
"+.o.l _ s a p y y w 1 M v.(./././.[.[.{.oXoXoX{.`./.{.oXoX[.#XyX5X2XyX;X`.W.`.`.`.`.`.'._.(.j.T T p.i.m d z z d l z c +...o.) >.",
"-.) / p p z l l f z d d t.H.^././.].[.{.{.oXoX{.}.!.{.{.{.`.`.$X;X5X;XY.M.M.U.R.`._._.].'.D.E W R s.c.s y : e a a ~ ^ ^ ) ) ( *.",
">.+.+.z s c x x x g j g 8.A.j.D./._.].].oX{.{.oX/.!.{.{.`.I.m.M.M.M.n.n.n.x.l.n.U._._.].G.p.W R R S.r.| Z s _ ....+.+.+.+.o.o.o.",
"@.+.+._ a ..x x c g x l F v.g.j.!._.].].[.{.oXXX/.!.}.T.n.x.x.n.n.n.n.n.x.x.x.x.m.!.^.V.E R R R d.J.%.` Z l / @.+.+.+.+.+.+.+.+.",
"....| s a c j j j x j g a 9.j.a.V.G.^.^.]..X].].`.N.n.k.k.z.k.k.l.l.z.z.z.z.z.c.c.t.q.T R R R W S.c.Z g g a z v c ` | c ` c ....",
"..| c z k j x c j Z j v a $.y.s.s.j.D.D.G._.].].].`.N.n.n.n.M.M.M.M.n.x.x.l.c.w.0.U I R R R R h.H.1.x j j z a v c ` x c x g x c ",
"c } z a a l l l f z l l t i 7.g.p.p.g.j.j.j.D.~.!.G.B.n.x.m.n.n.n.x.l.k.9.w.0.U U U I R R R d.P.c.Z j l c a z z x z c z c x ..c ",
"z s s p p p y : p a y p t i i w.g.p.p.s.f.f.f.s.p.p.t.u.u.t.u.u.w.w.0.7.U U U 0.U U R R R p.K.D.[ a a p p t p a ; y p y w p p a ",
"c j j j j g j 2 d q q g q 8 0 %.g.C.p.E p.p.s.s.p.E q.0.U U U U U 0.U U U 0.U U Y I R R a.K.G.%.g l g x c l j c a l j j x c c l ",
"c j j ` g j x 2 z q j Z q 0 0 B 9.j.A.p.p.p.E E p.E T Y U U U 0.U U U 0.U U U Y T R R a.K.P.7.g g g g x x c c x y j c ` b x x c ",
"j j j j j g j y l j j q q q q q B 8.b.C.p.s.g.p.E E T I T I I Y Y Y Y Y U Y T T R R d.F.K.7.y d g g g x j j x c p z c x c x l j ",
"q 7 g q g q q y 9 j q q 7 7 q q 0 y 8.i.j.a.E s.p.E T T I T I I I T I T T T R T d.h.K.C.J V t f j l x g j j j x a l x x c j c j ",
"j j j j j g j y f j g j q q q g q 1 j G t.v.g.E E T T R T I T T I T T I R R W Z.K.S.0.G l j a l x c | | x l c c p j Z j j l j j ",
"z l f f l g f w d d s y < 9 < d w w 2 6 d #.u.y.g.g.s.p.E p.q.T p.q.p.d.h.h.Z.h.0.H B l f d w 5 f l z l k z z z ; z z l z l l q ",
"s p z p y a w a p z p w 5 d 9 y d 5 y d w y S 8.t.y.C.j.i.j.j.j.g.g.d.d.f.Y L J u y a e 1 y w w y p p p z s ~ s p z s ; p z w 2 ",
"z s c g Z c x x j c f y j g j q q j g q 1 9 g x D X.&.L U U P U P K K L J C B j t j j j Z x j j z l s | x ` ..c ..c c p v ..c | ",
"z p ..Z ` c ` c h x f w j q j 0 q g g q 2 q q j g q g g V V i D V V V x j g g q t d g g g j q g x l / v ..v ....| ..| a ` | ..c ",
"_ { >.+.@...j j h Z f 1 q 0 g q q 7 7 0 2 d g q q q 0 0 0 9 2 g q q q 0 0 g q 0 2 8 7 0 g q q g j g y j x x j j j g l w z c c ` ",
":.:.>.@.@.c 7 7 q q 6 < 7 * 7 7 7 * * * > 7 q 7 = 7 * * * 3 < 7 7 7 7 7 7 7 7 6 , 6 7 7 7 q 7 q q 3 2 q f q q q q 7 0 > 7 0 7 q ",
"*.*.>.@...g q 7 7 7 < 3 * & 7 7 & 7 7 7 , 9 j 7 7 * * 7 7 3 < 7 = 7 * 7 = = = = @ 7 7 7 q q 0 q 0 0 2 q g q q 0 q 0 0 < 0 0 7 7 ",
"a < 0 4 3 4 3 & 3 & < + & & & & 3 * 7 7 , 0 7 7 7 * * * & 3 > * * & * 3 7 & & & > 3 3 7 d d 4 9 9 6 , 9 9 9 6 < 6 6 6 1 9 0 0 3 ",
"4 @ @ # # . . . o o o o . o o . . . . o   + . .   . o . o X . . . . . + o o . o . X o +   + + + + O > +   @ < < > 2 < > < > - 1 ",
"7 7 7 * 7 o $ % % % % % % % % # # % % % & & % $ . % % % % % $ % % o $ % * % % % % % % * + % * % * % * % + $ % * % 7 * * 7 3 1 q ",
"q 0 q 7 7 < 3 * * % * * % * % @ # % % * * % * % . $ % * % % % * * o $ % * = * * * * & & + * * * * * * * + $ % * * * * * 7 4 y | ",
"o.....q 7 3 3 % * * % * * * * @ # % * % % 7 % & + & * * * * * * * + $ % * * = = 7 * * 3 + 7 % % % % * * o & 7 * 7 7 7 7 7 g p c ",
"........` ~ l g g q 7 7 q 0 7 < 4 0 7 7 7 7 7 0 , 6 0 q 7 7 0 0 q 2 6 7 7 7 0 0 7 0 q 9 2 7 7 7 7 * & 7 O 0 q 7 q 0 q q q g y l ",
"@.......b e f g g q q 0 g q h 5 9 q q q g q q q e q g q q q q q q 2 9 q 0 q 0 0 q 0 g 2 2 0 q 0 q 7 7 7 1 k j l j q g j j z a c ",
"....@...b e d g q g g g g g x y d q q q q g q q 1 9 q q 0 0 q q 0 2 7 0 7 7 0 q q 0 q d 2 0 0 q 7 7 q q 1 q q q j g c ....c / | "
};
