/* XPM */
static char *_43f13521fd643509b627f48535d846eiuaMA5IPkNB2ku1G[] = {
/* columns rows colors chars-per-pixel */
"64 64 231 2 ",
"   c #DE7E18",
".  c #E27F15",
"X  c #DD801E",
"o  c #E68116",
"O  c #E98316",
"+  c #E5831B",
"@  c #EA851A",
"#  c #EC881E",
"$  c #F08614",
"%  c #F58915",
"&  c #FA8C15",
"*  c #F58C1C",
"=  c #FA8E1A",
"-  c #FA901E",
";  c #DC8629",
":  c #DC862B",
">  c #DE8C36",
",  c #DD8E39",
"<  c #E48622",
"1  c #E88721",
"2  c #E78926",
"3  c #EB8B24",
"4  c #E68C2C",
"5  c #EA8E2B",
"6  c #F28E22",
"7  c #F88F20",
"8  c #F08F28",
"9  c #EE912D",
"0  c #F49026",
"q  c #FA9324",
"w  c #F59D26",
"e  c #F4932C",
"r  c #FA962B",
"t  c #FA982E",
"y  c #E58E32",
"u  c #E88F31",
"i  c #E18F38",
"p  c #E69135",
"a  c #EA9234",
"s  c #E79A34",
"d  c #EB9B33",
"f  c #E6933B",
"g  c #EA953A",
"h  c #EE993D",
"j  c #F39633",
"k  c #F59935",
"l  c #FA9B34",
"z  c #F59A39",
"x  c #F49A3B",
"c  c #F69D3E",
"v  c #FB9D38",
"b  c #FA9D3A",
"n  c #FB9E3A",
"m  c #FB9F3C",
"M  c #FA9F3E",
"N  c #F9AB2D",
"B  c #ECA736",
"V  c #ECA239",
"C  c #F7A537",
"Z  c #F9A435",
"A  c #F6AC34",
"S  c #FBA03E",
"D  c #FBA13E",
"F  c #F5AA3B",
"G  c #F9AC39",
"H  c #F7B837",
"J  c #F3B33D",
"K  c #F9B23C",
"L  c #F9BB3B",
"P  c #F8CF2D",
"I  c #F8D62F",
"U  c #F6C639",
"Y  c #F6D537",
"T  c #F7DE37",
"R  c #F6D33D",
"E  c #F6DA3B",
"W  c #F7E335",
"Q  c #F8E533",
"!  c #F6E33C",
"~  c #F7E93A",
"^  c #E49744",
"/  c #E99740",
"(  c #E69845",
")  c #EA9A43",
"_  c #E59A4B",
"`  c #EA9D4B",
"'  c #F29D42",
"]  c #F59E41",
"[  c #F89F41",
"{  c #F09F49",
"}  c #E49D53",
"|  c #EDA546",
" . c #F6A145",
".. c #FBA140",
"X. c #FBA242",
"o. c #FBA243",
"O. c #FBA345",
"+. c #FBAB45",
"@. c #F5A34B",
"#. c #FBA549",
"$. c #FBA64A",
"%. c #FBA84E",
"&. c #ECBB4A",
"*. c #F9B342",
"=. c #F6BA45",
"-. c #F8BB41",
";. c #EDA354",
":. c #E8A45A",
">. c #F4A653",
",. c #F6A955",
"<. c #FBAA54",
"1. c #F1A759",
"2. c #F4AA5B",
"3. c #FBAE5B",
"4. c #F6BF51",
"5. c #FBB05F",
"6. c #EBAA64",
"7. c #F4AF66",
"8. c #FBB161",
"9. c #FCB569",
"0. c #FABB77",
"q. c #F3C344",
"w. c #F5C54A",
"e. c #F6CB4B",
"r. c #F4D343",
"t. c #F4D34C",
"y. c #F5DB49",
"u. c #F5CA54",
"i. c #EED858",
"p. c #F4D253",
"a. c #F4DC56",
"s. c #F2D35A",
"d. c #F3DC5C",
"f. c #F6E343",
"g. c #F5E945",
"h. c #F5E34C",
"j. c #F5E94A",
"k. c #EDE356",
"l. c #F3E353",
"z. c #F2E25C",
"x. c #F3EC58",
"c. c #EFCE67",
"v. c #EFD16D",
"b. c #F1D464",
"n. c #F1DC61",
"m. c #F1D66F",
"M. c #F2DF6A",
"N. c #EED474",
"B. c #EDD57A",
"V. c #EEDD7D",
"C. c #F1DB72",
"Z. c #F3D97B",
"A. c #EFE26B",
"S. c #F2E364",
"D. c #F2EC63",
"F. c #F1E46C",
"G. c #F1E86B",
"H. c #EDE272",
"J. c #EFEE74",
"K. c #EDE47B",
"L. c #EFED7A",
"P. c #F1E274",
"I. c #F0EB74",
"U. c #F0E779",
"Y. c #EDDE8A",
"T. c #F1DB84",
"R. c #F3DA88",
"E. c #EDDE92",
"W. c #E7DC9E",
"Q. c #EBDB9C",
"!. c #F8DC97",
"~. c #EDE485",
"^. c #EEEE84",
"/. c #E7E28D",
"(. c #ECE58B",
"). c #ECEA8E",
"_. c #F1E881",
"`. c #EDF08F",
"'. c #E6E394",
"]. c #EBE593",
"[. c #EBEA94",
"{. c #E6E59B",
"}. c #EBE69C",
"|. c #EBE99E",
" X c #F1E395",
".X c #EDF198",
"XX c #F0F19F",
"oX c #E6E6A4",
"OX c #EBE6A3",
"+X c #EBE9A3",
"@X c #E6E6AB",
"#X c #EBE6AC",
"$X c #E7E9AE",
"%X c #EBEAAA",
"&X c #F3E4A9",
"*X c #EDF2A4",
"=X c #EDF2AA",
"-X c #ECEBB5",
";X c #E8E8B8",
":X c #ECEBBB",
">X c #F5E8B6",
",X c #F3EABB",
"<X c #ECF1B4",
"1X c #EBF1BB",
"2X c #F3F3B5",
"3X c #E6ECC5",
"4X c #EDECC2",
"5X c #E7EDCA",
"6X c #ECEFCB",
"7X c #F5ECC3",
"8X c #F4EFC9",
"9X c #FCEFCF",
"0X c #EDF1C2",
"qX c #EEF4CE",
"wX c #F4F1CC",
"eX c #E8EFD1",
"rX c #FBEFD0",
"tX c #E7F1D3",
"yX c #EBF2D4",
"uX c #EEF5DB",
"iX c #F3F2D3",
"pX c #F4F5DD",
"aX c #F8F6DA",
"sX c #F7F7E4",
"dX c #F9F6E3",
"fX c #F9F9E5",
"gX c #F9F8E6",
"hX c #F7FAEA",
"jX c #FAF9EC",
"kX c #FCFDF4",
"lX c #FFFFFD",
/* pixels */
"3.<.$.$.o.[ z f o.X.n n S n n l n k p l l l l l l v v j a l l l M v v S M M v D l n y n n n l v S S ..$.X.g  .o.O.o.m m ..O.S X.",
"3.,.%.$.[ m ] f M ] ] x x x z j z g g c l v M k k v k j u k j r k k z ] n z c k j k i k j j j k ] ' x x x i ) c k x j k z M l z ",
";.` ^ ) f g ^ f a g g i a g p a a 4 4 u y 4 y a 5 y 4 : 5 u 5 5 a a u p p a p a i p g a 5 9 p a a a p g g g f g g a g g f g g p ",
"o.%.X.[ l [ m v l l k 5 l l l n v l v l l l l M ..l j a l v v v l v l v n v v X.g k l l n n n v v v m S M M p X.X.M ..v m v M n ",
"X.#.X.X.v m ..v l n n u n l l v v v v D v v n n n l z g v v l v v l t l n l n n p ..n l n n l l v l v v v l f l v v m l v m m v ",
"O.O.X.D ..D v v n n k p n l v v v v v l l v n l l l k p v v v v v l l v l l l n p j n l t l l l t t t q t l 4 l t t r t t l l l ",
"v v v l v m v l l l e a l l v v v M v v v l n n l l e 5 l v v l l l l l t l l v y j l l t l l r l l - - q t 5 e 7 - q t l t r q ",
"o.o.X.v D ....v v M z a v D m v D D D n v v S S n n k a l v m S v v v v l l v v 5 e r r q n r q t q - - q q 2 7 q q r l t t r t ",
"O.] ] n k ] ] z z x g y z z n c ] c c h a z ' ' ] [ g y k k j a a a g j 9 9 5 3 : < 2 2 5 4 5 5 3 3 2 5 5 5 : 2 3 5 u u 5 a 5 a ",
"@.] ) ` f ) ) ) ) g g g g p f g g g f g g g k a g g f 4 u 5 5 2 5 k j 9 5 e 6 6 6 6 e r 5 5 e j e 8 8 e j e e r e u a t j j j j ",
"<.%.#.$.) [ [ X.O.S S v v v n n S M p n S n l n n l n t l l l j a l l l t t l r r t r l a j t t l t r t t l l l l a j l v v l v ",
",.$.O.$._  .m D O.n n v v n n n M n p n n l l l n l l l t r t a e l t r r t r t t r q r j 8 t r r r t l l l t t l a j t l t t l ",
"#.m v #._ M M o.O.S ..........S M M p n l l r r r r q r t r r 8 3 q r q r r r r r r r q 8 5 t t q q r t l l t r r 5 e l t t r r ",
"M v v O.( l v [ ..n n M v m v l l t y e t l t r r q r q q q r 5 8 t q q r r r t t t t l e a v l l t l l v v l l l p z M m v m l ",
"#.[ m M ( l n n n v v v l l l l n l u j l l t t t t l n F G K J F L G v l v v v l m m M z g M v m m m m M v n S O.) $.$.X.$.o.$.",
"n n l n y z l l n n l l l l l n n l a A H H t l G *.e.p.d.S.S.A.F.F.n.a.e.-.G Z t t v n j a l l v v l l l l l [ [ g O.$.X.X.$.o.",
"` ) / g , f y y > p 4 a u 4 5 4 4 B U E y.Y B q.s.F.^.`.XX*X=X=X*X*X.X[.^.J.S.p.J s 4 4 4 : 4 4 5 5 5 5 4 5 y y u > f p g / ( ( ",
"%.$.#.o.] [ [ m a k j e e e e r A R k.l.t.t.i.^.*X2XwXaXpXuXuXuXuXuXuXqX1X=X[.^.F.p.G r e e 5 5 e e e e r t j t e j 9 y j j [ %.",
"[ D v v l v X.D u j t r r r t w R i.l.k.d._.<XaXkXkXlXlXlXkXhXuXuXuXuXuXuXpX6X2X.X^.F.U t r 5 9 t l t t t t t l t t t u l n O.#.",
"[ D v v m #.#.m 9 k t t r r r Z N H y.H.2XfXlXlXlXlXlXlXlXlXlXsXuXuXuXuXiXyXyXiX0X<X).U.t.G 9 j t r r l t l r t t t t u n $.%.<.",
"m v v ] #.#.m v a e t l t t l t r L H.iXkXlXlXlXlXlXlXlXlXlXjXrXuXuXuXuXyXwX6X6X4XqX,X[.^.n.V k l v X.n n v l l n n [ _ <.3.3.3.",
"v l [ #.#.o.v l u k l t t l l t *.H.0XkXlXlXlXlXlXlXlXlXlXfX&X+X1X1X1X1X4X:X4X:X:X4X-X-X[.^.s.D v l v l M l v m $.[ 3.:.3.8.8.5.",
"o.X.$.$.#.X.l l 9 e t r r r q K M.1XpXkXlXlXlXlXlXdX9X9X>XR.m.Z.V.V.K.~.Z.V.Y.T.OX>X&X#XOX[.^.u.l r r r t l l v n M @._ $.%.$.{ ",
">.3.<.>.%.] j e : u 9 9 * # w d.%XtXtXuXjXkXkXfX9X!.R.Z.C.Z.~.(.(.(.].(.(.(.~.(.(.].Q.Q.W.W.[.L.-.6 3 * # 3 3 2 5 5 y : 2 u 5 5 ",
"1.1.>.} ^ p u a 5 8 8 8 # # q.).yXtXtXtX5X-XOX XT.m.~. X[.|.OX+X%X%X$X#XoX}.].).(.(.(.(.E.Q.|.).M.V 8 8 6 6 0 0 6 q 2 8 7 0 q 7 ",
"9.3.%.{ h t l t t q r r - K F.1XtXeX5X;X+X].].). X~.|.+XOX+X+X#X%XOX#X@X@XoX{.'.].(./.(.(.(.Q.|.^.u.l t t r r r r r 5 e q t t l ",
"0.9.9.1.{ v n l t r q r q e.[.tXeX3XoX[.(.(. X|.+XR.+X%X+X+X+X%XOX#X#X$XoXoX{.W.'.].(.(.(.~.Y.W.[.S.N q q q q q q 0 2 r t t l l ",
"0.3.3.6.,.X.n l t t t q F M.1XtX3XoX~.).}.|.|.|.+XR.OX%X%X+X$X%X%X#X$X@X$X-X#X+X{.'.].(.(.(.~.].{.U.-.v m l t v t t 5 l $.O.$.%.",
"8.<.3.1.<.%.O.M v v S v w.~.5X5X$X~.].}.+X}.|.|.OXY.%X+X%X+X%X%X#X$X;XiXsXsXsXiX-X].].).(.~.~.(.'.K.p.+.$.M ] #.$.] / $.3.3.<.3.",
"<.<.<.` @.$...#.$...o.o.s.[.5X:X).).}.}.+X|.|.+XOX(.%X%X%X%X$X#X$X4XhXjXhXsXsXfXpXOX].).(.(.(.~.(.~.a.+.$.$.#.X.$.$._ $.%.3.3.5.",
"2.1.` ^ _ ) ) ) ) ) )  .n.+X6X+X(.].}.+X}.+X}.+X|.T. X}. X].].].'.7XaX9X7X,X7X8XdX%X).].).(.(.(.(.~.a.B _ ` ) ` ` } _ ` } } } 6.",
"<.@.@.{ ' h z h j y u F M.-X4X[.(.}.}.}.+X+X+X|.}.T.].].].].].E.Y.>X9X7X&XY.E.7XdX+X].).).(.~.(.(.K.d.=.[ $.$.>.>.,.1.7.5.7.:.0.",
"5.5.<.$.O...S M n a h K F.2X$X~.].}.}.}.+X+X+X|.}.Y.%X+X+X+X+X+X+X:XjXjXpX#X-XsXwX}.].).).(.(.(.~.z.h.L n $.#.$.<.$.<.<.<.%.} 3.",
"8.8.5.<.$...l n M p j *.P.%X|.).[.}.}.|.+X+X+X|.}.).+X+X+X+X+XoXoX@X-XwXaXfXfXwX+X].].[.).).(.(.H.y.y.=.n M S $...#.#.#.<.%._ <.",
"5.3.3.3.<.$.O.S l a k *.M.|.].(.].}.|.|.+X+X+X.X[.Y.+X+X+X|.+X+X4X8X-XOXOX&X&X}.].].].].].).).~.l.W l.L t l l n S ..O.#.%.,.` <.",
"<.<...$.$.X...n n g k *.F.[.'.(.).}.|.|.+X+X+X|.].(.|.+X+X|.+XwXwX8XpX#X}.'.E.].].].].[.].].(.l.T W d.G r l n l l v v D #.%.` <.",
"%. .z x ) g g p a f 4 h d.[.).(.(.{.}.}.+X|.+X+X].Y.|.|.+X|.&XdX4X,XpX>X}.E.].E.].].].].[.'.D.W W ! n.B e x j k k v ] O.#.#.` <.",
"1.` / ( f z x k k k 9 j p.^.~.(.(.{.}.+X|.+X+X|. X(.|.+X|.].].&X>X7X>XR.B.B.Y.E.'.'.}.{.'.A.! Q Q l.b.h p y y f f ^ ^ _ _ _ _ ;.",
"<.$.$.x g S n l n l S l w.H.z.H.(.'.{.{.+X|.|.+X(.~.|.|.].V.B.N.T.B.B.N.v.N.N.N.~.'.{.'.L.! Q Q Q F.u.....x ' $.X.#.$.#.%.] @.@.",
"$.$.$.' h S n n M l Z l F z.l.z.~.'.{.{.}.|.+X+X(.T. X~.B.v.v.N.N.N.N.v.v.c.v.v.N.~./.A.f.Q Q Q g.P.=...S ) ' $.#.#.%.$.$.$.%.%.",
"..O...z g M l n n n n n d e.z.j.S.K./.'.'.{.{.oX].V.B.c.s.c.c.c.c.c.c.4.c.u.c.v.b.p.y.W Q Q Q ~ G.b.m l l h h m D X...M v m O.$.",
"....[ k g n v M l [ l n f H a.h.h.z.H.H.~.'.{.{.{.'.V.N.N.N.B.B.B.B.N.B.v.v.c.t.R R T Q Q Q Q D.U.4.v l l h h [ m m n n v l v m ",
"O.] ] g f n M z x x z M f k q.h.f.f.l.k.z.S.A.~.K.K.B.m.N.N.N.N.N.N.c.c.p.r.r.R R R T Q Q Q j.I.b.S v v m g h n M v [ M n m [ [ ",
"x ' g f g a p , p a p p p a d t.l.f.f.l.k.k.j.j.f.y.a.s.s.p.s.s.t.r.e.r.R R R R R E Q Q Q f.I.P.| p g f f p f y > y f y u p f g ",
"v v l v l l l 5 k t l l t r r L z.S.h.W f.f.h.h.f.f.E R R R R R R R R R R R R R R T Q Q j.J.K.=.l v n z n n v ] p l v v n M n n ",
"m v l M l l n u z t n n t r r S e.z.S.f.f.y.! ! f.! ! E R E R R R R r.R R R R E W Q Q g.J.L.&.l l l l Z n n v v p n v M n m v M ",
"l v n l n l l p k l n l t t l r Z w.M.S.h.j.j.f.! W ! T W T E E E E E R R E W W W Q j.L.H.q.s l l l l l l l M n f n n n M v l v ",
"t r l r l t t a e l k r q q t t q d w.d.z.f.f.h.f.! W W T W E W T T T W W W W ~ g.x.J.z.U n y j l n n l n n l n g z n n n v v l ",
"v v v l l l l a t l l t t t t l l 5 l K t.S.h.! ! Q W W W T W W W W W W Q ~ ~ D.J.G.r.K n n p z l M [ ..v v m ..f l [ v v l v l ",
"z j k l z t k f j j h j 8 8 8 j 9 : 9 9 a &.d.a.l.l.l.f.f.W ! E f.f.! j.x.x.D.l.r.H F l k k y 9 l z ] z j n z x , x x z z h k t ",
"z f g g g g a f f a g i a j 5 a j a a 9 4 a G w.p.d.S.d.d.z.d.z.l.l.j.l.h.E R H s y p p a a y 4 f f i f h g ) g g g h i g h p u ",
"' g m l v m v m m m n p l l l l t v l t 5 e l n G K -.U R R R Y I I P U L G Z S p Z n l n l n l n n g ..v [ X.X.] [ M g M X.m m ",
"h g O.M v D m m v v z 5 l t l t t l l l 5 k l l l l l l l C V G Z S n l n l l t p k l l l l l l l n g ....O.X.[ X.X.[ / [ ..O.M ",
"{ { <.%.#.#.v l l M j 5 t r l l t r q r 4 e t l r r r r r e 5 l t t t q t e t q 3 e q r l t r l l j p n v M v v v l v u n n m [ ",
"1.>.%.<.#.X.q q l t q 2 q = = q - * - - # q r q q q = = - * 3 q q q q e q q q q 4 q q q r t r l t e 5 r l t t t t q r 2 q r q t ",
"1.1.%.$.o.l l q q q 6 3 q = 7 q - - - q 2 e t r q = = q q 6 3 q - - - q q - - - # - q q r t q r r q 5 t t t t t t r q 4 q r q q ",
"g 3 q 3 8 0 6 = * * # + * % 6 * * q - q 2 e q q - * = * - 3 + * * * * q 6 * % * + 6 6 6 j j e e e e 2 e e e 8 e e e e 2 8 q e r ",
"8 # 3 # @ . . O O @ O O O O O o o o o + X o o o   o o o o o o o O   o o @ o o O o O @ @   @ @ @ o + < @   # 1 2 1 3 3 2 2 3 : 4 ",
"q = = = = # @ & & & & & & & & O O & & % % % % & o % & & & & & & & O % & & & & & = = = % @ & & & = & = & o % & & & = = = q = 4 t ",
"t l r r q # * = = = = = = = & @ % & & - - = = & o % = & & & = & & O % & - - - - = = = % @ = = = & = = = @ % & = = = = = q e y O.",
"$.o.o.l r 3 * = = = & = = = = @ $ & & & * - & = @ * & & & & - - = O % & = - - - q = = 6 + = & & & & = = O * q = q q q q q r p [ ",
"..$.$.....g k l l t q q t r r 5 e q q q q q q r 2 e r t q q r r r 5 e q q q r q q r l e 5 r q q q = = q # e r q t q l t r n y n ",
"#.#.$.X.D a j v l t r t l l l 5 9 l t l t l t t p l l t t l l l l 5 e r r r t r l r l 9 5 r r r r r r r 5 j l l v l l l l M g [ ",
"#.$.$.X.v u j l r l l t l t l j e t t t t t l t 4 e t r r q r t r 2 0 r q r r t r r t e a r r r q q r r 5 t l l l l M [ O.] ) .."
};
