/* XPM */
static char *bca843a8d5d044a0aea207d5956bcfefHwiA53LUP2VrhJmw[] = {
/* columns rows colors chars-per-pixel */
"64 64 92 1 ",
"  c #030100",
". c #090600",
"X c #0D0A02",
"o c #110E05",
"O c #120F08",
"+ c #16140A",
"@ c #19160D",
"# c #1A1710",
"$ c #1C1912",
"% c #211E16",
"& c #242216",
"* c #242119",
"= c #29261F",
"- c #2B281F",
"; c #2A2720",
": c #2D2A22",
"> c #302D24",
", c #35322B",
"< c #3A372E",
"1 c #3D3B2F",
"2 c #3D3A33",
"3 c #434037",
"4 c #45423C",
"5 c #4A4740",
"6 c #4E4B44",
"7 c #514E47",
"8 c #524F49",
"9 c #54514B",
"0 c #59564E",
"q c #5A5752",
"w c #5C5953",
"e c #615E55",
"r c #625F58",
"t c #646159",
"y c #6A675F",
"u c #6B685F",
"i c #6D6A61",
"p c #726F69",
"a c #75726B",
"s c #7A7770",
"d c #7E7B72",
"f c #807D76",
"g c #85827B",
"h c #8A877E",
"j c #8E8B84",
"k c #918E87",
"l c #949187",
"z c #94918A",
"x c #99978B",
"c c #9D9A92",
"v c #A19E97",
"b c #A3A196",
"n c #AAA79E",
"m c #ACAA9E",
"M c #AFACA5",
"N c #B1AEA6",
"B c #B2AFA8",
"V c #B5B2A9",
"C c #B8B6AB",
"Z c #BBB8AF",
"A c #B9B6B1",
"S c #BDBAB3",
"D c #C1BEB5",
"F c #C4C1BA",
"G c #C9C6BD",
"H c #CAC7C0",
"J c #CECCC0",
"K c #D1CEC5",
"L c #D4D1C9",
"P c #D9D6CF",
"I c #DBD8CF",
"U c #DAD7D0",
"Y c #DFDCD5",
"T c #E0DDD4",
"R c #E2DFD8",
"E c #E3E0D6",
"W c #E5E3D8",
"Q c #E9E6DC",
"! c #ECEADE",
"~ c #F0EEDF",
"^ c #EAE7E0",
"/ c #EEEBE2",
"( c #F1EEE3",
") c #F2EFE8",
"_ c #F4F2E5",
"` c #F8F6E7",
"' c #F6F4E9",
"] c #F8F6E9",
"[ c #FCFAED",
"{ c #FAF7F0",
"} c #FEFDF3",
"| c #FFFFF8",
/* pixels */
"]]]]]]]]]]]]]]]]]]]]]]]]]]]]]]]]]]]]]]]]]]]]]]]]]]]]]]]]]]]]]]]]",
"]]]]]]]]]]]`]]]]]]]]]]`]]]]]]]]]]`]]]]]]]]]]]]]]]]]]]]`]]]]]]]]]",
"]]]]]]]]]]]]]]]]]]]]]]]]]]]]]]]]]]]]]]]]]]]]]]]]]]]]]]]]]]]]]]]]",
"]]]]]]]]]]]]]]]]]]]]]]]]]]]]]]]]]]]]]]]]]]]]]`]]]]]]]]]]]]]]`]]]",
"]]]]]]]]]]]]]]]]`]]]]]]]]]]]`]]]]]]]]]]`]]]]]]]]]]]]]]]]]]]]]]]]",
"]]]]]]]]]]]]]]]]]]]]]]]]]]]]]]]]]]]]]]]]]]]]]]]]]]]]]]]]]]]]]]]]",
"]]]]]]]]]]]]]]]]]]]]]]]]]]]]]]]]]]]]]]]]]]]]]]]]]]]]]]]]]]]]]]]]",
"]]]]]]]`]]]]`]]]]]]]]]]]]]]]]]]]]]]]]]]]]]`]]]]]]]`']]]]]]]]]]]]",
"]]]]]]]]]]]]]]]]]]]]]]]]]]]]]]]]]]]]]]]]]]]]]]]]]]]]]]]]]]]]]]]]",
"]]]]]`]]]]]]]`]]]]]]]]]]]]]]]]]]]]]]]]]]]]]]]]]]`]]]]]]]]`]]]]]]",
"]]]]]]]]]]]]]]]]]]]]]`]]]]]]]]]]]]`]]]]]`]]]]]]]]]]]]]]]]]]]]]]]",
"]]]]]]]]]]]]]]]]]]]]]]]]]]]]]]]]]]]]]]]]]]]]]]]`]]]]]]]]]]]]]]]]",
"]]]]]]]]]]]`]]]]]]]]]]]]]]]]]]]]]]]]]]]]]]]]]]]]]]]]]]]]]]]]]]]`",
"]]]]]]]]]]]]]]]]]]]]]]]]]`]]]]]]]]]]]]]]]]]]]]]]]]]]]`]]]]]]]]]]",
"]]]]]]]]]]]]]]]]]]]]]]]]]]]]]]]]]]]]]]]`]]]]]]]]]]]]]]]]]]]]]]]]",
"]]]`]]]]]]]]]]]]]`]]]]]]]]]]]]]]]]]]]]]]]]]]]]]]]]]]]]]]]]]]]]]]",
"]]]]]]]]]]]]]]]]`]`}]_}`_[[_][['_[~`_[]][]]`[[~`]]]]]]]]]]]]]]`]",
"]]]]]]]]]]]]]]]]]}]!//]`']]__][[``_[]'(]]`[`````]]]]]]]]]]]]]]]]",
"]]]]]`]]]]]]]]]]Q}__}}[[}]]]]_][[~_[/[]}_`[`~`[`]`]]]]]']]]]]]]]",
"]]]]]]]]]]]]]]]]}]`]]/!]]]]}}'__```__}]']]````[~]]]]]]]`]]]]]]]]",
"]]]]]]]]]]]]]]]]]/}}`]}[_((]}]]'~[[_]]/'}}/][_[_]]]]]]]]]]]]]]]]",
"]]]]]]]]]]]]]]]]__[/W]]/[[]__][]~[`_}/}}/}_][_[`]]]]]]]]]]`]]]]]",
"]]]]]]]]]]]]]]]]]}]_}}Q[(}}]_][_`[~_]_}SG|]_[_`_]]]]]]]]]]]]]]]]",
"]]]]]]]]]]]]]]]]`]_`}l@&JQ}]_[[__[`[][Q:n|]/[_[_]]]]]]]]]]]]]]]]",
"`]]]]]]]]]]`]]]]]]'}M ..XQ{}}))}``[`_}S:|}^]]!}_]]]]]]]]]]]]]]]]",
"]]]]]]]]]]]]]]]'{')|4.gy@l]'^}))`[Q_Et=:ij^|_]}_]]]]]]]]]]]]]]]]",
"]]]]]]]]]]]]]]]')}'U r||Oq|)}}|]``!}^@+   c{Q]]]]]]]]]]]]]]]]]]]",
"]]]]]]]]]]]]]]]')}|f U|Fok}'^R){_[}KW}6=kqS}]}]]]]]]`]]]]]]]]]]`",
"]]]]]]]]]]]]]]]]'^|8$LcO L|D%:p}_]M n{wp|)||([]_]]]]]]]]]]]]]]]]",
"]]]]`]]]]]]]]]]]|{{: X  c{}8  q}}b v)|9<{{))'_]_]]]]]]]]]]]]]]]]",
"]]]]]]]]]]]]]]`])}{%;4rU}{) w#8|_@OU)}qw|)^|}]_}]]]]]]]]`]]]]]]]",
"]]]]]]]]]]]]]]]]{)|#4||')|HXB2;{]1  F|85|)}]^'_]]]]]]]]]]]]]]]]]",
"]]]]`]]]]]]]]]]]{'],:}^]]]D Z#X/{UV95|78|])_}'![]]]]]]]]]]]]]]]]",
"]]]]]]]]]]]]]]]]^(|t L|(}}N nO V|AzY;|a;{'}](][']]]]]]]]]]]]]`]]",
"]]]]]]]]]]]]]]]]}'/S 0}_i(L >  $'s4{${d:|'[[!]}_]]]]]]]]]]]]]]]]",
"]]]]]]]]]]]]]]]]('}Q* 2: F'&Xej Jg ,O|cX}]][]]}_]]]]]]]]]]]]]]]]",
"]]]]]]]]]]]]]]]])}Q'c   i|]D:L}T|M. i'C K[``}]_]]]]]]]]]]]]]]]]]",
"]]]]]]]]]]]]]]]]}^'}|d@t(|}|}}}/{{cdF}|oc}}!]`]`]]]]]]]]]]]`]]]]",
"]`]]]]]]]]]]]]]]]}'Q}]W{}]]Q}/(}{}'}|]}xC[]_[_[`]]]]]]]]]]]]]]]]",
"]]]]]]]]]]]]]]]]]!}[E}]]]/}]][]_'{}//}Q}]}Q[}![`]]]]]]]]]]]]]]]]",
"]]]]]]]]]]]]]]]]]']]]']]]]]''''{{''{]{']]]]]````]]]]]]]]]]]]]]]]",
"]]]]]]]]]]]]]]]]]]]]]{]]]]]]]{]]'{{']]]]]]]]````]]]]]]]]]]]]]]`]",
"]]]]]]]]]]]]]]]]]]]]]]]]]]]]]]]]]]'']]]]]]]]````]]]]]`]]]]]]]]]]",
"]]]]`]]]]]]]]]]]]]]]]]]]]]]]]]]]{]]]]]]]]]]]````]]]]]]]]]]]]]]]]",
"]]]]]]]]]]]]]]]]]]]]]]]]]]]]]]]`']{']]]]`````]``]]]]]]]]`]]]]]]]",
"]]]]]]]]]]]]]]]]]]]]]]]]]]]]]]]]]]]]]]]]]```````]]]]]]]]]]]]]]]]",
"]]]]]]]]]]]]]]]]]]]]]]]]]]]]]]]]]{']]]]]````````]]]]]]]]]]]]]]]]",
"]]]]]]]]]]]]]]]]]]]]]]]]]]]]]]]]]]]]]]]]```]`````]]]]]]]]]]]]]]]",
"]]]]]]]]]]]]]]]]]]]]]]]]`]]]]]]]]]]]]]]]]]]]]`]]]]]]]]]]]]]]]]]]",
"]`]]]]]]]]]]]]]]]]]]]]]]]]]]]]]]]`]]]]]]]]']]]]]]]]]]]]]]]]]]]]]",
"]]]]]]]]]]`]]]]]]]]]]]]]]]]]]]]]]]]]]]]]]]]]]]]]]]]]]]]]]]]]]]]]",
"]]]]]]]]]]]]]]]]]]]]]]]]]]]]]]]]]]]]]]]]]]`]]]]]]]]]]]]]`]]]]]]]",
"]]]]]]]]]]]]]]]]]]]]]]]]]]]]]]]]]]]]]]]]]]]]]]]]]]]]]]]]]]]]]]]]",
"]]]]]]]]]]]]]]]]]]`]]]]]]]]]]`]]]]]]]]]]]]]]]]]]]]]]]`]]]]]]]]]]",
"]]]]]]]]]]]]]]]]]]]']]]]]]]]]]]]]]]]]]]]]]]]]]]]]]]]]]]]]]]]]]`]",
"]]]]`]]]]]]]]]]`]]]]]]]]]]]]]]]]]]]]`]]]]]]]]]]]]]]]]]]]]]]]]]]]",
"]]]]]]]]]]]]]]]]]]]]]]]]]]]]]]]]]]]]]]]]]]]]]]]]]]]]]]]]]]]]]]]]",
"]]]]]]]]]]`]]]]]]]]]]]]]]]]]]]]]]]]]]]]]]]]]]]]]]]]]]]]]]]]]]]]]",
"]]]]]]]`]]]]]]]]]]]]]]]]]]]]]]]]]]]`]]]]]]]]]]`]]]]]]]]]]]]`]]]]",
"]]]]]]]]]]]]]]]]]]]]]]`]]]]]]]]`]]]]]]]]]]]]]]]]]]]]]]]`]]]]]]]]",
"]]]]]]]]]]]]]]]]]]]]]]]]]`]]]]]]]]]]]]]]]]]]]]]]]`]]]]]]]]]]]]]]",
"]]]`]]]]]]]]]]]]]]]]]]]]]]]]]]]]]]]]]]]]]]]]]]]]]]]]]]]]]]]]]]]]",
"]]]]]]]]]]]]]]]]`]]]]]]]]]]]]]]]]]]]`]]]`]]]]]]]]]]]]]]]]]]]]`]]",
"]]]]]]]]]]]`]]]]]]]]]]]]]]]]]]]]]]]]]]]]]]]]]]]]]]]]]]]]]]]]]]]]"
};
