/* XPM */
static char *_76e8a8dfa7349f8f52316697d5328a5XvkNGbGOwaxdNW7t[] = {
/* columns rows colors chars-per-pixel */
"64 64 125 2 ",
"   c #F7DE37",
".  c #F6D43D",
"X  c #F7DA3A",
"o  c #F7E434",
"O  c #F8E534",
"+  c #F7E23B",
"@  c #F6D342",
"#  c #F4D24B",
"$  c #F5DE4D",
"%  c #F3D254",
"&  c #F5DF51",
"*  c #F2D25C",
"=  c #F5DE5B",
"-  c #F5E444",
";  c #F5E943",
":  c #F4E34D",
">  c #F3E353",
",  c #F2E35B",
"<  c #F3EB5A",
"1  c #EFCF68",
"2  c #EFD466",
"3  c #EFDD67",
"4  c #EFD16C",
"5  c #EDDB69",
"6  c #F3DF65",
"7  c #F0D36A",
"8  c #F1DF6B",
"9  c #EED373",
"0  c #EED77C",
"q  c #ECDB7D",
"w  c #F0DC7B",
"e  c #EFE865",
"r  c #EFE36B",
"t  c #F1E362",
"y  c #F1EA62",
"u  c #F2E46C",
"i  c #F1EA6B",
"p  c #EFE575",
"a  c #EDE47D",
"s  c #F2E375",
"d  c #F0E873",
"f  c #F3E37B",
"g  c #F9E77B",
"h  c #F2E87B",
"j  c #ECDD84",
"k  c #EEDF8B",
"l  c #F1DA83",
"z  c #F4DE8B",
"x  c #EDE484",
"c  c #EDE48C",
"v  c #EEEB8C",
"b  c #F3E384",
"n  c #F2EA83",
"m  c #F3E58C",
"M  c #F9E68B",
"N  c #F2E98A",
"B  c #E7E492",
"V  c #ECE594",
"C  c #ECE994",
"Z  c #E6E59A",
"A  c #EBE69B",
"S  c #EBE99C",
"D  c #F5E592",
"F  c #F6E995",
"G  c #F5EA9A",
"H  c #F9EB9A",
"J  c #ECF09C",
"K  c #DDE3B4",
"L  c #E7E7A4",
"P  c #ECE6A2",
"I  c #EBE9A3",
"U  c #E7E6AB",
"Y  c #E9E7AB",
"T  c #E7E8AA",
"R  c #EBEAAB",
"E  c #F2E0A2",
"W  c #FBE7A6",
"Q  c #F6E9A1",
"!  c #F8EBA3",
"~  c #F9E6AC",
"^  c #F5EBAA",
"/  c #FAEAAB",
"(  c #ECF1A0",
")  c #EEF3AE",
"_  c #E6E8B0",
"`  c #EDEBB2",
"'  c #E7EBBA",
"]  c #ECEDBC",
"[  c #F3E7B0",
"{  c #F1EBB5",
"}  c #FAEBB5",
"|  c #F2EBBB",
" . c #FAECBA",
".. c #EEF3B2",
"X. c #EEF4BE",
"o. c #F4F3B2",
"O. c #FBF1BE",
"+. c #E7ECC2",
"@. c #EDEFC4",
"#. c #F1EEC2",
"$. c #FCEDC5",
"%. c #F1EFCB",
"&. c #F8EDCB",
"*. c #EDF1C4",
"=. c #EDF3CC",
"-. c #F4F4C4",
";. c #FAF2C1",
":. c #FCF3CB",
">. c #E8EFD1",
",. c #EDF4D5",
"<. c #EFF6DC",
"1. c #F5F3D3",
"2. c #FCF4D4",
"3. c #F6F9D6",
"4. c #F5F5DD",
"5. c #FAF5DC",
"6. c #F5F9DE",
"7. c #F7F6E1",
"8. c #F6F9E4",
"9. c #FCF9E3",
"0. c #F6FAE9",
"q. c #FCFAEC",
"w. c #FCFCF4",
"e. c #F6FBFE",
"r. c #FFFFFF",
/* pixels */
"r.r.r.r.r.r.r.r.r.r.r.r.r.r.r.r.r.r.r.r.r.r.r.r.r.r.r.r.r.r.r.r.r.r.r.r.r.r.r.r.r.r.r.r.r.r.r.r.r.r.r.r.r.r.r.r.r.r.r.r.r.r.r.r.",
"r.r.r.r.r.r.r.r.r.r.r.r.r.r.r.r.r.r.r.r.r.r.r.r.r.r.r.r.r.r.r.r.r.r.r.r.r.r.r.r.r.r.r.r.r.r.r.r.r.r.r.r.r.r.r.r.r.r.r.r.r.r.r.r.",
"r.r.r.r.r.r.r.r.r.r.r.r.r.r.r.r.r.r.r.r.r.r.r.r.r.r.r.r.r.r.r.r.r.r.r.r.r.r.r.r.r.r.r.r.r.r.r.r.r.r.r.r.r.r.r.r.r.r.r.r.r.r.r.r.",
"r.r.r.r.r.r.r.r.r.r.r.r.r.r.r.r.r.r.r.r.r.r.r.r.r.r.r.r.r.r.r.r.r.r.r.r.r.r.r.r.r.r.r.r.r.r.r.r.r.r.r.r.r.r.r.r.r.r.r.r.r.r.r.r.",
"r.r.r.r.r.r.r.r.r.r.r.r.r.r.r.r.r.r.r.r.r.r.r.r.r.r.r.r.r.r.r.r.r.r.r.r.r.r.r.r.r.r.r.r.r.r.r.r.r.r.r.r.r.r.r.r.r.r.r.r.r.r.r.r.",
"r.r.r.r.r.r.r.r.r.r.r.r.r.r.r.r.r.r.r.r.r.r.r.r.r.r.r.r.r.r.r.r.r.r.r.r.r.r.r.r.r.r.r.r.r.r.r.r.r.r.r.r.r.r.r.r.r.r.r.r.r.r.r.r.",
"r.r.r.r.r.r.r.r.r.r.r.r.r.r.r.r.r.r.r.r.r.r.r.r.r.r.r.r.r.r.r.r.r.r.r.r.r.r.r.r.r.r.r.r.r.r.r.r.r.r.r.r.r.r.r.r.r.r.r.r.r.r.r.r.",
"r.r.r.r.r.r.r.r.r.r.r.r.r.r.r.r.r.r.r.r.r.r.r.r.r.r.r.r.r.r.r.r.r.r.r.r.r.r.r.r.r.r.r.r.r.r.r.r.r.r.r.r.r.r.r.r.r.r.r.r.r.r.r.r.",
"r.r.r.r.r.r.r.r.r.r.r.r.r.r.r.r.r.r.r.r.r.r.r.r.r.r.r.r.r.r.r.r.r.r.r.r.r.r.r.r.r.r.r.r.r.r.r.r.r.r.r.r.r.r.r.r.r.r.r.r.r.r.r.r.",
"r.r.r.r.r.r.r.r.r.r.r.r.r.r.r.r.r.r.r.r.r.r.r.r.r.r.r.r.r.r.r.r.r.r.r.r.r.r.r.r.r.r.r.r.r.r.r.r.r.r.r.r.r.r.r.r.r.r.r.r.r.r.r.r.",
"r.r.r.r.r.r.r.r.r.r.r.r.r.r.r.r.r.r.r.r.r.r.r.r.r.r.r.r.r.r.r.r.r.r.r.r.r.r.r.r.r.r.r.r.r.r.r.r.r.r.r.r.r.r.r.r.r.r.r.r.r.r.r.r.",
"r.r.r.r.r.r.r.r.r.r.r.r.r.r.r.r.r.r.r.r.r.r.r.r.r.r.r.r.r.r.r.r.r.r.r.r.r.r.r.r.r.r.r.r.r.r.r.r.r.r.r.r.r.r.r.r.r.r.r.r.r.r.r.r.",
"r.r.r.r.r.r.r.r.r.r.r.r.r.r.r.r.r.r.r.r.r.r.r.r.r.r.r.r.r.r.r.r.r.r.r.r.r.r.r.r.r.r.r.r.r.r.r.r.r.r.r.r.r.r.r.r.r.r.r.r.r.r.r.r.",
"r.r.r.r.r.r.r.r.r.r.r.r.r.r.r.r.r.r.r.r.r.r.r.r.r.r.r.r.r.r.r.r.r.r.r.r.r.r.r.r.r.r.r.r.r.r.r.r.r.r.r.r.r.r.r.r.r.r.r.r.r.r.r.r.",
"r.r.r.r.r.r.r.r.r.r.r.r.r.r.r.r.r.r.r.r.r.r.r.r.r.r.r.r.r.r.r.r.r.r.r.r.r.r.r.r.r.r.r.r.r.r.r.r.r.r.r.r.r.r.r.r.r.r.r.r.r.r.r.r.",
"r.r.r.r.r.r.r.r.r.r.r.r.r.r.r.r.r.e.r.r.r.r.r.r.r.r.r.r.r.r.r.r.r.r.r.r.r.r.r.r.r.r.r.r.r.r.r.r.r.r.r.r.r.r.r.r.r.r.r.r.r.r.r.r.",
"r.r.r.r.r.r.r.r.r.r.r.r.r.r.r.e.r.r.r.r.e.r.e.r.e.r.r.r.r.r.r.r.r.r.r.r.r.r.r.r.r.r.r.r.r.r.r.r.r.r.r.r.r.r.r.r.r.r.r.r.r.r.r.r.",
"r.r.r.r.r.r.r.r.r.r.r.e.r.r.r.r.e.r.r.r.r.r.r.r.r.r.r.r.r.r.r.r.r.r.r.r.r.r.r.r.r.r.r.r.r.r.r.r.r.r.r.r.r.r.r.r.r.r.r.r.r.r.r.r.",
"r.r.r.r.r.r.r.r.r.r.r.r.e.r.r.r.r.r.r.e.r.e.r.e.r.r.r.r.r.q.9.2.:.O.O.O.;.:.2.q.r.r.r.r.r.r.r.r.r.r.r.r.r.r.r.r.r.r.r.r.r.r.r.r.",
"r.r.r.r.r.r.r.r.r.r.e.r.r.e.e.e.e.e.e.r.e.r.2./ b g :.;.G N n n v N v v n n h n H O.5.r.r.r.r.r.r.r.r.r.r.r.r.r.r.r.r.r.r.r.r.r.",
"r.r.r.r.r.r.r.r.r.r.e.e.e.r.r.e.r.e.r.e.w.F x K 5 = x G o.-.3.4.6.<.,.,.,.=.X.) C n h H :.w.r.r.r.r.r.r.r.r.r.r.r.r.r.r.r.r.r.r.",
"r.r.r.r.r.r.r.r.r.r.r.e.r.e.e.e.e.r.e.r.q.F p a F O.0.w.r.r.r.r.r.q.<.<.<.4.<.<.,.-...v d F :.w.r.r.r.r.r.r.r.r.r.r.r.r.r.r.r.r.",
"r.r.r.r.r.r.r.r.r.e.r.e.e.e.e.r.r.e.e.e.0.^ b | w.r.r.r.r.r.r.r.q. .*.*.=.=.=.,.,.,.<.=.o.v f ! 9.r.r.r.r.r.r.r.r.r.r.r.r.r.r.r.",
"r.r.r.r.r.r.r.r.r.e.e.r.e.e.r.e.e.r.w.8.G c *.8.w.r.r.r.9.$. .~ z w c x x c c c F I X.-.=.*.J h F q.r.r.r.r.r.r.r.r.r.r.r.r.r.r.",
"r.r.r.r.r.r.r.r.r.e.e.e.e.e.r.r.e.w.6.F x =.>.>.,.@.{ ^ z l z c V A A P Y P P V C c C C I ] *.( h / r.r.r.r.r.r.r.r.r.r.r.r.r.r.",
"r.r.r.r.r.r.r.r.r.e.e.e.e.e.e.e.w.0.^ h @.>.+.T Z C V V k V R Y I R Y Y Y Y U T L S Z v C v S R C f $.r.r.r.r.r.r.r.r.r.r.r.r.r.",
"r.r.r.r.r.r.r.r.r.r.e.e.e.e.e.r.0.1.f R >.' Z c A S S I V A R R I R R T _ ' @.@.#.` S A C c c v B a M w.r.r.r.r.r.r.r.r.r.r.r.r.",
"r.r.r.r.r.r.r.r.r.e.e.e.e.r.e.e.0.^ a *.] C V A A A S I D A R I I R R ` 1.8.8.4.7.7.` S C c c c c x u 2.r.r.r.r.r.r.r.r.r.r.r.r.",
"r.r.r.r.r.r.r.r.r.e.e.e.e.e.e.w.8.N C @.A c A A P I S I C c V V V V k E 2.&.| E ^ 5.*.C C C v c c a , } r.r.r.r.r.r.r.r.r.r.r.r.",
"r.r.r.r.r.r.r.r.r.e.e.e.r.e.e.w.6.b C ` c C A A I I I ( V Z I I A Y L U %.4.1.#.1.1.I C C C C c x , $ / r.r.r.r.r.r.r.r.r.r.r.r.",
"r.r.r.r.r.r.r.r.r.e.e.e.e.e.e.e.6.f v A c C Z A I I I S c Z I I P P | #.#.Y [ ] { I A A C C V x , + > W r.r.r.r.r.r.r.r.r.r.r.r.",
"r.r.r.r.r.r.r.r.r.e.e.e.e.r.r.e.0.b h V c C Z A S Q I S z V I I A ` 1.| 4.| V V C A A C V C x > o + 6 $.r.r.r.r.r.r.r.r.r.r.r.r.",
"r.r.r.r.r.r.r.r.r.e.e.e.e.r.e.r.0.^ u p x B Z Z S S I L c V I C c z E E E l 0 0 j k V Z Z x : o O < b q.r.r.r.r.r.r.r.r.r.r.r.r.",
"r.r.r.r.r.r.r.r.r.e.e.e.e.e.r.e.w.2.w , , x B Z Z L S S l c z 9 4 4 4 9 4 1 1 1 4 9 q a t ; o o ; r } r.r.r.r.r.r.r.r.r.r.r.r.r.",
"r.r.r.r.r.r.r.r.r.e.e.e.e.e.r.r.e.0./ 8 : > 3 a x B B S C j 9 7 9 9 9 9 4 1 1 1 * # # X O O O ; u D q.r.r.r.r.r.r.r.r.r.r.r.r.r.",
"r.r.r.r.r.r.r.r.r.e.e.e.e.e.e.e.r.w.7.D 6 : - : , t t r t 5 7 7 2 2 2 2 * % # @ . . . o O O ; i m 5.r.r.r.r.r.r.r.r.r.r.r.r.r.r.",
"r.r.r.r.r.r.r.r.r.r.e.e.e.e.r.r.r.e.w.5.D 8 t - - - - - + - . @ . @ @ . @ . . . . .   O o < d m 5.r.r.r.r.r.r.r.r.r.r.r.r.r.r.r.",
"r.r.r.r.r.r.r.r.r.e.r.e.e.e.r.e.e.r.e.r.9.H s u : ; - - + +     X X X X . . . X   o O ; i h G 9.r.r.r.r.r.r.r.r.r.r.r.r.r.r.r.r.",
"r.r.r.r.r.r.r.r.r.r.r.e.r.e.r.e.r.r.r.r.r.0.;.D 8 t : - + + o o     o   o   o o ; < y u m :.r.r.r.r.r.r.r.r.r.r.r.r.r.r.r.r.r.r.",
"r.r.r.r.r.r.r.r.r.e.r.r.e.r.e.r.e.e.r.e.e.r.r.0.$.G w r u , & : : $ $ > : < e e u h H :.w.r.r.r.r.r.r.r.r.r.r.r.r.r.r.r.r.r.r.r.",
"r.r.r.r.r.r.r.r.r.r.r.r.r.e.r.e.r.e.r.e.r.r.r.r.r.w.9.:. .Q D b q s w f m m G / :.q.r.r.r.r.r.r.r.r.r.r.r.r.r.r.r.r.r.r.r.r.r.r.",
"r.r.r.r.r.r.r.r.r.r.r.e.r.r.e.r.r.r.r.e.r.e.r.r.e.r.r.r.r.r.w.q.9.9.9.9.q.w.r.r.r.r.r.r.r.r.r.r.r.r.r.r.r.r.r.r.r.r.r.r.r.r.r.r.",
"r.r.r.r.r.r.r.r.r.r.r.r.r.r.e.r.r.r.r.r.r.r.e.r.r.r.r.r.r.r.r.r.r.r.r.r.r.r.r.r.r.r.r.r.r.r.r.r.r.r.r.r.r.r.r.r.r.r.r.r.r.r.r.r.",
"r.r.r.r.r.r.r.r.r.r.r.r.r.r.r.r.r.e.r.r.r.r.r.r.r.r.r.r.r.r.r.r.r.r.r.r.r.r.r.r.r.r.r.r.r.r.r.r.r.r.r.r.r.r.r.r.r.r.r.r.r.r.r.r.",
"r.r.r.r.r.r.r.r.r.r.r.r.r.r.r.r.r.r.r.r.r.r.r.r.r.r.r.r.r.r.r.r.r.r.r.r.r.r.r.r.r.r.r.r.r.r.r.r.r.r.r.r.r.r.r.r.r.r.r.r.r.r.r.r.",
"r.r.r.r.r.r.r.r.r.r.r.r.r.r.r.r.r.r.r.r.r.r.r.r.r.r.r.r.r.r.r.r.r.r.r.r.r.r.r.r.r.r.r.r.r.r.r.r.r.r.r.r.r.r.r.r.r.r.r.r.r.r.r.r.",
"r.r.r.r.r.r.r.r.r.r.r.r.r.r.r.r.r.r.r.r.r.r.r.r.r.r.r.r.r.r.r.r.r.r.r.r.r.r.r.r.r.r.r.r.r.r.r.r.r.r.r.r.r.r.r.r.r.r.r.r.r.r.r.r.",
"r.r.r.r.r.r.r.r.r.r.r.r.r.r.r.r.r.r.r.r.r.r.r.r.r.r.r.r.r.r.r.r.r.r.r.r.r.r.r.r.r.r.r.r.r.r.r.r.r.r.r.r.r.r.r.r.r.r.r.r.r.r.r.r.",
"r.r.r.r.r.r.r.r.r.r.r.r.r.r.r.r.r.r.r.r.r.r.r.r.r.r.r.r.r.r.r.r.r.r.r.r.r.r.r.r.r.r.r.r.r.r.r.r.r.r.r.r.r.r.r.r.r.r.r.r.r.r.r.r.",
"r.r.r.r.r.r.r.r.r.r.r.r.r.r.r.r.r.r.r.r.r.r.r.r.r.r.r.r.r.r.r.r.r.r.r.r.r.r.r.r.r.r.r.r.r.r.r.r.r.r.r.r.r.r.r.r.r.r.r.r.r.r.r.r.",
"r.r.r.r.r.r.r.r.r.r.r.r.r.r.r.r.r.r.r.r.r.r.r.r.r.r.r.r.r.r.r.r.r.r.r.r.r.r.r.r.r.r.r.r.r.r.r.r.r.r.r.r.r.r.r.r.r.r.r.r.r.r.r.r.",
"r.r.r.r.r.r.r.r.r.r.r.r.r.r.r.r.r.r.r.r.r.r.r.r.r.r.r.r.r.r.r.r.r.r.r.r.r.r.r.r.r.r.r.r.r.r.r.r.r.r.r.r.r.r.r.r.r.r.r.r.r.r.r.r.",
"r.r.r.r.r.r.r.r.r.r.r.r.r.r.r.r.r.r.r.r.r.r.r.r.r.r.r.r.r.r.r.r.r.r.r.r.r.r.r.r.r.r.r.r.r.r.r.r.r.r.r.r.r.r.r.r.r.r.r.r.r.r.r.r.",
"r.r.r.r.r.r.r.r.r.r.r.r.r.r.r.r.r.r.r.r.r.r.r.r.r.r.r.r.r.r.r.r.r.r.r.r.r.r.r.r.r.r.r.r.r.r.r.r.r.r.r.r.r.r.r.r.r.r.r.r.r.r.r.r.",
"r.r.r.r.r.r.r.r.r.r.r.r.r.r.r.r.r.r.r.r.r.r.r.r.r.r.r.r.r.r.r.r.r.r.r.r.r.r.r.r.r.r.r.r.r.r.r.r.r.r.r.r.r.r.r.r.r.r.r.r.r.r.r.r.",
"r.r.r.r.r.r.r.r.r.r.r.r.r.r.r.r.r.r.r.r.r.r.r.r.r.r.r.r.r.r.r.r.r.r.r.r.r.r.r.r.r.r.r.r.r.r.r.r.r.r.r.r.r.r.r.r.r.r.r.r.r.r.r.r.",
"r.r.r.r.r.r.r.r.r.r.r.r.r.r.r.r.r.r.r.r.r.r.r.r.r.r.r.r.r.r.r.r.r.r.r.r.r.r.r.r.r.r.r.r.r.r.r.r.r.r.r.r.r.r.r.r.r.r.r.r.r.r.r.r.",
"r.r.r.r.r.r.r.r.r.r.r.r.r.r.r.r.r.r.r.r.r.r.r.r.r.r.r.r.r.r.r.r.r.r.r.r.r.r.r.r.r.r.r.r.r.r.r.r.r.r.r.r.r.r.r.r.r.r.r.r.r.r.r.r.",
"r.r.r.r.r.r.r.r.r.r.r.r.r.r.r.r.r.r.r.r.r.r.r.r.r.r.r.r.r.r.r.r.r.r.r.r.r.r.r.r.r.r.r.r.r.r.r.r.r.r.r.r.r.r.r.r.r.r.r.r.r.r.r.r.",
"r.r.r.r.r.r.r.r.r.r.r.r.r.r.r.r.r.r.r.r.r.r.r.r.r.r.r.r.r.r.r.r.r.r.r.r.r.r.r.r.r.r.r.r.r.r.r.r.r.r.r.r.r.r.r.r.r.r.r.r.r.r.r.r.",
"r.r.r.r.r.r.r.r.r.r.r.r.r.r.r.r.r.r.r.r.r.r.r.r.r.r.r.r.r.r.r.r.r.r.r.r.r.r.r.r.r.r.r.r.r.r.r.r.r.r.r.r.r.r.r.r.r.r.r.r.r.r.r.r.",
"r.r.r.r.r.r.r.r.r.r.r.r.r.r.r.r.r.r.r.r.r.r.r.r.r.r.r.r.r.r.r.r.r.r.r.r.r.r.r.r.r.r.r.r.r.r.r.r.r.r.r.r.r.r.r.r.r.r.r.r.r.r.r.r.",
"r.r.r.r.r.r.r.r.r.r.r.r.r.r.r.r.r.r.r.r.r.r.r.r.r.r.r.r.r.r.r.r.r.r.r.r.r.r.r.r.r.r.r.r.r.r.r.r.r.r.r.r.r.r.r.r.r.r.r.r.r.r.r.r.",
"r.r.r.r.r.r.r.r.r.r.r.r.r.r.r.r.r.r.r.r.r.r.r.r.r.r.r.r.r.r.r.r.r.r.r.r.r.r.r.r.r.r.r.r.r.r.r.r.r.r.r.r.r.r.r.r.r.r.r.r.r.r.r.r."
};
