/* XPM */
static char *_fe3bb088bbf43b3f3dbbf24b289c5923OsWtti5BbY64TxR[] = {
/* columns rows colors chars-per-pixel */
"64 64 114 2 ",
"   c #3688DA",
".  c #3A93DC",
"X  c #3F98DE",
"o  c #448DDC",
"O  c #4196DD",
"+  c #4C95DF",
"@  c #4399DF",
"#  c #4C9DDF",
"$  c #519FDF",
"%  c #439BE1",
"&  c #499FE2",
"*  c #549DE0",
"=  c #569CE8",
"-  c #669EE6",
";  c #699CE6",
":  c #749CE6",
">  c #4CA2E5",
",  c #4CA6E9",
"<  c #4FA8EA",
"1  c #54A4E4",
"2  c #5DA6E3",
"3  c #56A8E7",
"4  c #5DAAE7",
"5  c #52A7E9",
"6  c #5CA6EA",
"7  c #54ABEB",
"8  c #5BACEB",
"9  c #5EB1EE",
"0  c #68A2E7",
"q  c #60AAE5",
"w  c #64A6EB",
"e  c #6DA6E9",
"r  c #63ABEC",
"t  c #6BADED",
"y  c #74A4E8",
"u  c #74ADEC",
"i  c #7BADEB",
"p  c #6BB0E7",
"a  c #63B2EF",
"s  c #6CB5EE",
"d  c #74B3ED",
"f  c #7DB2ED",
"g  c #7FBBEF",
"h  c #63B3F0",
"j  c #69B6F0",
"k  c #6EB9F1",
"l  c #73BBF1",
"z  c #7FC2F3",
"x  c #82ABEA",
"c  c #8AADEA",
"v  c #82B5EE",
"b  c #8AB4ED",
"n  c #83BBEF",
"m  c #8AB8EE",
"M  c #94B6EC",
"N  c #99B7ED",
"B  c #93BAEE",
"V  c #9BBDEF",
"C  c #85BCF0",
"Z  c #8BBFF1",
"A  c #98BDF0",
"S  c #85C0EF",
"D  c #9DC3EF",
"F  c #84C2F2",
"G  c #8BC4F2",
"H  c #8EC9F4",
"J  c #92C6F3",
"K  c #9AC3F1",
"L  c #95CCF5",
"P  c #9ACEF5",
"I  c #9ED0F6",
"U  c #A9C1EF",
"Y  c #A5C3F1",
"T  c #ABC4F0",
"R  c #A5CCF4",
"E  c #ACCCF3",
"W  c #B1C6F0",
"Q  c #B3CDF3",
"!  c #A3D3F6",
"~  c #AAD4F6",
"^  c #AED8F7",
"/  c #A5D4F9",
"(  c #A9D6F9",
")  c #ACD8F9",
"_  c #B3D5F6",
"`  c #BDD4F4",
"'  c #B3D8F7",
"]  c #BFDAF6",
"[  c #BCD7F8",
"{  c #B4DBF9",
"}  c #BBDEF9",
"|  c #BEE0F9",
" . c #C3D6F5",
".. c #C7DCF7",
"X. c #C9DCF7",
"o. c #C4DEF9",
"O. c #C9DFF8",
"+. c #D3DEF7",
"@. c #C3E2FA",
"#. c #CBE6FA",
"$. c #CEE8FB",
"%. c #D4E5F9",
"&. c #DBE5F9",
"*. c #D5EBFB",
"=. c #DAECFC",
"-. c #DFF0FC",
";. c #E3ECFB",
":. c #E9EFFB",
">. c #E5F2FC",
",. c #ECF5FD",
"<. c #EFF8FE",
"1. c #F3F7FD",
"2. c #F4FAFE",
"3. c #FEFFFF",
/* pixels */
"3.3.3.3.3.3.3.3.3.3.3.3.3.3.3.3.3.3.3.3.3.3.3.3.3.3.3.3.3.3.3.3.3.3.3.3.3.3.3.3.3.3.3.3.3.3.3.3.3.3.3.3.3.3.3.3.3.3.3.3.3.3.3.3.",
"3.3.3.3.3.3.3.3.3.3.3.3.3.3.3.3.3.3.3.3.3.3.3.3.3.3.3.3.3.3.3.3.3.3.3.3.3.3.3.3.3.3.3.3.3.3.3.3.3.3.3.3.3.3.3.3.3.3.3.3.3.3.3.3.",
"3.3.3.3.3.3.3.3.3.3.3.3.3.3.3.3.3.3.3.3.3.3.3.3.3.3.3.3.3.3.3.3.3.3.3.3.3.3.3.3.3.3.3.3.3.3.3.3.3.3.3.3.3.3.3.3.3.3.3.3.3.3.3.3.",
"3.3.3.3.3.3.3.3.3.3.3.3.3.3.3.3.3.3.3.3.3.3.3.3.3.3.3.3.3.3.3.3.3.3.3.3.3.3.3.3.3.3.3.3.3.3.3.3.3.3.3.3.3.3.3.3.3.3.3.3.3.3.3.3.",
"3.3.3.3.3.3.3.3.3.3.3.3.3.3.3.3.3.3.3.3.3.3.3.3.3.3.3.3.3.3.3.3.3.3.3.3.3.3.3.3.3.3.3.3.3.3.3.3.3.3.3.3.3.3.3.3.3.3.3.3.3.3.3.3.",
"3.3.3.3.3.3.3.3.3.3.3.3.3.3.3.3.3.3.3.3.3.3.3.3.3.3.3.3.3.3.3.3.3.3.3.3.3.3.3.3.3.3.3.3.3.3.3.3.3.3.3.3.3.3.3.3.3.3.3.3.3.3.3.3.",
"3.3.3.3.3.3.3.3.3.3.3.3.3.3.3.3.3.3.3.3.3.3.3.3.3.3.3.3.3.3.3.3.3.3.3.3.3.3.3.3.3.3.3.3.3.3.3.3.3.3.3.3.3.3.3.3.3.3.3.3.3.3.3.3.",
"3.3.3.3.3.3.3.3.3.3.3.3.3.3.3.3.3.3.3.3.3.3.3.3.3.3.3.3.3.3.3.3.3.3.3.3.3.3.3.3.3.3.3.3.3.3.3.3.3.3.3.3.3.3.3.3.3.3.3.3.3.3.3.3.",
"3.3.3.3.3.3.3.3.3.3.3.3.3.3.3.3.3.3.3.3.3.3.3.3.3.3.3.3.3.3.3.3.3.3.3.3.3.3.3.3.3.3.3.3.3.3.3.3.3.3.3.3.3.3.3.3.3.3.3.3.3.3.3.3.",
"3.3.3.3.3.3.3.3.3.3.3.3.3.3.3.3.3.3.3.3.3.3.3.3.3.3.3.3.3.3.3.3.3.3.3.3.3.3.3.3.3.3.3.3.3.3.3.3.3.3.3.3.3.3.3.3.3.3.3.3.3.3.3.3.",
"3.3.3.3.3.3.3.3.3.3.3.3.2.3.3.3.3.3.3.3.3.3.3.3.3.3.3.3.3.3.3.3.3.3.3.3.3.3.3.3.3.3.3.3.3.3.3.3.3.3.3.3.3.3.3.3.3.3.3.3.3.3.3.3.",
"3.3.3.3.3.3.3.3.3.3.3.3.3.3.3.3.3.3.3.2.2.3.3.3.3.3.3.3.3.3.3.3.3.3.3.3.3.3.3.3.3.3.3.3.3.3.3.3.3.3.3.3.3.3.3.3.3.3.3.3.3.3.3.3.",
"3.3.3.3.3.3.3.3.3.3.3.3.3.3.3.3.3.2.3.3.3.3.3.2.3.3.3.3.3.3.3.3.3.3.3.3.3.3.3.3.3.3.3.3.3.3.3.3.3.3.3.3.3.3.3.3.3.3.3.3.3.3.3.3.",
"3.3.3.3.3.2.3.2.3.2.3.2.3.2.3.2.3.3.3.3.2.3.3.3.3.3.3.3.3.3.3.3.3.3.3.3.3.3.3.3.3.3.3.3.3.3.3.3.3.3.3.3.3.3.3.3.3.3.3.3.3.3.3.3.",
"2.3.3.3.3.3.3.2.2.3.3.3.2.3.2.3.3.2.3.3.3.2.3.3.3.3.3.3.3.3.3.2.2.1.1.2.3.3.3.3.3.3.3.3.3.3.3.3.3.3.3.3.3.3.3.3.3.3.3.3.3.3.3.3.",
"3.3.3.2.3.2.3.3.3.2.2.3.3.2.3.2.3.2.:. .U N W 3.2.:.+.` U V M b b b b b M V E  .&.<.3.3.3.3.3.3.3.3.3.3.3.3.3.3.3.3.3.3.3.3.3.3.",
"3.2.2.3.3.3.3.2.3.2.3.2.3.2.2.2.1.U c n f : U X.Y x m D ! ' ] | | | | | ' ~ K G v v V  .;.3.3.3.3.3.3.3.3.3.3.3.3.3.3.3.3.3.3.3.",
"3.3.3.3.2.2.3.2.2.2.2.3.2.2.3.2.N ; x P D c T ` %.>.<.2.3.3.2.2.>.*.*.*.*.*.*.*.$.| R n v V +.2.3.3.3.3.3.3.3.3.3.3.3.3.3.3.3.3.",
"2.3.2.2.3.2.2.2.2.3.3.2.3.2.3.2.` W c v Q =.2.2.2.<.<.2.<.2.2.3.3.-.*.*.*.*.*.*.*.*.*.*.} P f M +.3.3.3.3.3.3.3.3.3.3.3.3.3.3.3.",
"3.2.3.2.2.2.3.2.2.2.2.2.2.2.2.2.:.U m @.<.2.2.2.,.2.2.<.2.2.2.3.2.^ I @.@.$.$.*.*.*.*.*.*.%.@.P i U 1.3.3.3.3.3.3.3.3.3.3.3.3.3.",
"3.2.2.2.2.2.2.2.2.2.2.2.2.2.2.&.b S | ,.2.<.2.<.<.<.2.2.2.2.<.-.I k z S H L I / ^ } #.$.*.*.*.*.} n c &.3.3.3.3.3.3.3.3.3.3.3.3.",
"2.3.2.3.3.2.2.2.2.2.2.2.2.2.%.i J @.$.*.-.>.>.>.>.>.>.>.*.@.! S g S L P L L L L H L I ! { @.*.*.*.#.K i +.3.3.3.3.3.3.3.3.3.3.3.",
"2.2.2.2.2.2.2.2.2.2.1.2.2.&.x J #.#.#.#.| ^ ! I L H H F S S S H P P P I P I I I L I L L L L ! } *.*.$.P x &.3.3.3.3.3.3.3.3.3.3.",
"2.2.2.3.2.2.2.2.1.2.2.2.,.b C @.#.#.| ! L L L H H H L L L I L I P L P P I I L L I P L I P L L L ! @.*.@.C b ,.3.3.3.3.3.3.3.3.3.",
"3.2.2.2.2.2.2.1.2.<.2.<.Q u { #.@.^ I L L L L L P P P L G L I L P L P P P L I I ( ) ( I P P I L F H ' @.l > m 3.3.3.3.3.3.3.3.3.",
"2.2.2.2.2.2.<.2.<.2.2.=.i H #.@.^ P L L L L L L P L L G m G L I I P P P / | #.*.*.o.E [ L I P P L H H I s , 2 %.3.3.3.3.3.3.3.3.",
"2.2.2.2.2.<.2.2.<.2.<. .e ) #.) L L H L L L L L P L L v L G m P L P P ( $.*.*.$.| A [ #.I P P P I L H F 7 , > D 3.3.3.3.3.3.3.3.",
"3.2.2.2.2.2.<.<.2.<.,.Y d | { P L L L L P L L L L L f H P I f G I P P ) *.-.*.) G f { #.I I P P L I L z , , 5 u 2.3.3.3.3.3.3.3.",
"2.2.2.2.2.2.<.2.<.<.,.B f | / L L L L L L L L L P G f I L P H d J I I I | $.*.| f J { @.I L P I I P H a , < 7 0 :.3.3.3.3.3.3.3.",
"2.2.2.2.2.2.2.<.<.2.,.B s ) P L L L L L I L P L L i H P L L P S i P I I I I { / R | @.( I P I L I L k 7 7 7 7 0 ;.3.3.3.3.3.3.3.",
"2.2.2.2.2.2.2.2.<.1.<.K 8 l H H H L L L L L L L f f P P L L P P f v I ( ( ( P g I ! I P P I I I L k 7 7 7 7 3 - ;.3.3.3.3.3.3.3.",
"2.2.2.2.2.2.2.<.2.<.<._ 6 9 k z H L L L I L L H u L P L P L L P L u G ( / / Z G I P I I P P L F 9 7 7 8 7 5 5 y 1.3.3.3.3.3.3.3.",
"2.2.2.2.2.2.2.<.<.2.<.*.t 8 9 a j z H L L L L f S P P P L L L P P G y G G n u n S G H P L S j 7 < 7 9 7 7 7 8 V 3.3.3.3.3.3.3.3.",
"3.2.2.2.2.2.2.2.2.2.<.>.K 8 7 7 7 7 9 k z H C u L L P P P L H g d t * + 2 * $ $ $ 1 q 2 3 , , 7 7 7 7 7 7 9 t ..3.3.3.3.3.3.3.3.",
"2.2.2.2.2.2.2.2.1.2.2.,.#.t 3 7 7 < < < 7 9 = p z F H H n d 2 * 1 $ # o o + # @ . . X . X @ > , 7 7 7 7 7 8 v <.3.3.3.3.3.3.3.3.",
"3.2.2.2.2.2.2.2.2.<.2.2.,.E 6 5 < 7 7 7 5 < , 7 7 7 8 3 & @ X X O O O .   . . . . . . . . . X > 7 7 7 9 4 r ] 3.3.3.3.3.3.3.3.3.",
"2.2.3.2.2.2.2.2.2.2.2.2.2.>.P 6 7 < 7 7 7 7 7 7 7 , % X .   . . . . . . . .   . . . . . . . . % , 7 9 a r P 2.3.3.3.3.3.3.3.3.3.",
"3.2.2.2.2.2.3.2.2.2.2.2.2.2.>.R 6 7 , < 7 7 7 7 7 , X X . . . . . . . . . . . . . . . . . . . % 7 a a r J >.3.3.3.3.3.3.3.3.3.3.",
"3.2.2.3.3.2.2.2.2.2.2.2.2.2.2.,.` t 7 < , < 7 7 7 > . . . . . . . . . . . . . . . . . . . . % 3 j a r K ;.3.3.3.3.3.3.3.3.3.3.3.",
"2.3.3.2.2.2.3.3.2.2.3.2.2.2.2.2.2.%.Z r 7 7 < < < , X X . . . . . . . . . . . . . . . X @ > 8 h a d ' <.3.3.3.3.3.3.3.3.3.3.3.3.",
"3.3.3.3.2.2.3.2.3.2.2.2.3.2.3.2.2.2.,.] m w 8 8 7 3 , % X . . .   . . . . . . . X % & 3 3 r r u P *.3.3.3.3.3.3.3.3.3.3.3.3.3.3.",
"3.2.2.3.3.2.2.3.2.2.3.2.3.2.2.2.3.2.2.2.,...K u r r 9 9 7 5 & % X X @ O # & & 1 3 3 8 r t g ! *.2.3.3.3.3.3.3.3.3.3.3.3.3.3.3.3.",
"3.2.3.2.3.3.3.2.2.3.2.3.2.3.2.3.2.2.3.3.3.2.1.=.[ K v t s t r r 4 8 8 4 6 3 8 r t d Z E @.>.3.3.3.3.3.3.3.3.3.3.3.3.3.3.3.3.3.3.",
"3.3.3.3.3.2.3.3.3.3.3.2.3.2.3.2.3.3.2.3.3.2.3.3.2.2.,.*.O.` ~ R K K K J P R _ o.*.>.<.3.3.3.3.3.3.3.3.3.3.3.3.3.3.3.3.3.3.3.3.3.",
"3.3.3.3.3.3.3.2.2.3.3.3.3.2.3.2.3.2.3.2.3.2.3.3.3.3.3.3.2.3.2.3.3.2.2.3.2.3.3.3.3.3.3.3.3.3.3.3.3.3.3.3.3.3.3.3.3.3.3.3.3.3.3.3.",
"3.3.3.2.2.3.3.3.3.3.3.2.3.3.3.3.3.3.3.3.3.3.3.3.3.3.3.3.3.3.3.3.3.3.3.3.3.3.3.3.3.3.3.3.3.3.3.3.3.3.3.3.3.3.3.3.3.3.3.3.3.3.3.3.",
"3.3.3.3.3.3.3.3.2.3.3.3.3.3.3.3.3.3.3.3.2.3.3.3.3.3.3.3.3.3.3.3.3.3.3.3.3.3.3.3.3.3.3.3.3.3.3.3.3.3.3.3.3.3.3.3.3.3.3.3.3.3.3.3.",
"3.3.3.3.3.3.3.3.3.3.3.3.3.3.3.3.3.2.3.3.3.3.3.3.3.3.3.3.3.3.3.3.3.3.3.3.3.3.3.3.3.3.3.3.3.3.3.3.3.3.3.3.3.3.3.3.3.3.3.3.3.3.3.3.",
"3.3.3.3.3.3.3.3.3.3.3.3.3.3.3.3.3.3.3.3.3.3.3.3.3.3.3.3.3.3.3.3.3.3.3.3.3.3.3.3.3.3.3.3.3.3.3.3.3.3.3.3.3.3.3.3.3.3.3.3.3.3.3.3.",
"3.3.3.3.3.3.3.3.3.3.3.3.3.3.3.3.3.3.3.3.3.3.3.3.3.3.3.3.3.3.3.3.3.3.3.3.3.3.3.3.3.3.3.3.3.3.3.3.3.3.3.3.3.3.3.3.3.3.3.3.3.3.3.3.",
"3.3.3.3.3.3.3.3.3.3.3.3.3.3.3.3.3.3.3.3.3.3.3.3.3.3.3.3.3.3.3.3.3.3.3.3.3.3.3.3.3.3.3.3.3.3.3.3.3.3.3.3.3.3.3.3.3.3.3.3.3.3.3.3.",
"3.3.3.3.3.3.3.3.3.3.3.3.3.3.3.3.3.3.3.3.3.3.3.3.3.3.3.3.3.3.3.3.3.3.3.3.3.3.3.3.3.3.3.3.3.3.3.3.3.3.3.3.3.3.3.3.3.3.3.3.3.3.3.3.",
"3.3.3.3.3.3.3.3.3.3.3.3.3.3.3.3.3.3.3.3.3.3.3.3.3.3.3.3.3.3.3.3.3.3.3.3.3.3.3.3.3.3.3.3.3.3.3.3.3.3.3.3.3.3.3.3.3.3.3.3.3.3.3.3.",
"3.3.3.3.3.3.3.3.3.3.3.3.3.3.3.3.3.3.3.3.3.3.3.3.3.3.3.3.3.3.3.3.3.3.3.3.3.3.3.3.3.3.3.3.3.3.3.3.3.3.3.3.3.3.3.3.3.3.3.3.3.3.3.3.",
"3.3.3.3.3.3.3.3.3.3.3.3.3.3.3.3.3.3.3.3.3.3.3.3.3.3.3.3.3.3.3.3.3.3.3.3.3.3.3.3.3.3.3.3.3.3.3.3.3.3.3.3.3.3.3.3.3.3.3.3.3.3.3.3.",
"3.3.3.3.3.3.3.3.3.3.3.3.3.3.3.3.3.3.3.3.3.3.3.3.3.3.3.3.3.3.3.3.3.3.3.3.3.3.3.3.3.3.3.3.3.3.3.3.3.3.3.3.3.3.3.3.3.3.3.3.3.3.3.3.",
"3.3.3.3.3.3.3.3.3.3.3.3.3.3.3.3.3.3.3.3.3.3.3.3.3.3.3.3.3.3.3.3.3.3.3.3.3.3.3.3.3.3.3.3.3.3.3.3.3.3.3.3.3.3.3.3.3.3.3.3.3.3.3.3.",
"3.3.3.3.3.3.3.3.3.3.3.3.3.3.3.3.3.3.3.3.3.3.3.3.3.3.3.3.3.3.3.3.3.3.3.3.3.3.3.3.3.3.3.3.3.3.3.3.3.3.3.3.3.3.3.3.3.3.3.3.3.3.3.3.",
"3.3.3.3.3.3.3.3.3.3.3.3.3.3.3.3.3.3.3.3.3.3.3.3.3.3.3.3.3.3.3.3.3.3.3.3.3.3.3.3.3.3.3.3.3.3.3.3.3.3.3.3.3.3.3.3.3.3.3.3.3.3.3.3.",
"3.3.3.3.3.3.3.3.3.3.3.3.3.3.3.3.3.3.3.3.3.3.3.3.3.3.3.3.3.3.3.3.3.3.3.3.3.3.3.3.3.3.3.3.3.3.3.3.3.3.3.3.3.3.3.3.3.3.3.3.3.3.3.3.",
"3.3.3.3.3.3.3.3.3.3.3.3.3.3.3.3.3.3.3.3.3.3.3.3.3.3.3.3.3.3.3.3.3.3.3.3.3.3.3.3.3.3.3.3.3.3.3.3.3.3.3.3.3.3.3.3.3.3.3.3.3.3.3.3.",
"3.3.3.3.3.3.3.3.3.3.3.3.3.3.3.3.3.3.3.3.3.3.3.3.3.3.3.3.3.3.3.3.3.3.3.3.3.3.3.3.3.3.3.3.3.3.3.3.3.3.3.3.3.3.3.3.3.3.3.3.3.3.3.3.",
"3.3.3.3.3.3.3.3.3.3.3.3.3.3.3.3.3.3.3.3.3.3.3.3.3.3.3.3.3.3.3.3.3.3.3.3.3.3.3.3.3.3.3.3.3.3.3.3.3.3.3.3.3.3.3.3.3.3.3.3.3.3.3.3.",
"3.3.3.3.3.3.3.3.3.3.3.3.3.3.3.3.3.3.3.3.3.3.3.3.3.3.3.3.3.3.3.3.3.3.3.3.3.3.3.3.3.3.3.3.3.3.3.3.3.3.3.3.3.3.3.3.3.3.3.3.3.3.3.3."
};
