/* XPM */
static char *b4b63649f126401ae1a40d9db0ba15f4gZBfDChpHYMIh3Bp[] = {
/* columns rows colors chars-per-pixel */
"64 64 108 2 ",
"   c #030200",
".  c #090601",
"X  c #070802",
"o  c #0B0A04",
"O  c #0D0E09",
"+  c #110E07",
"@  c #14130B",
"#  c #18150C",
"$  c #171512",
"%  c #191514",
"&  c #171813",
"*  c #1E1C15",
"=  c #1C1D18",
"-  c #201E12",
";  c #221E1E",
":  c #25231D",
">  c #29261D",
",  c #262520",
"<  c #2D2B23",
"1  c #313127",
"2  c #34332C",
"3  c #39392F",
"4  c #373632",
"5  c #383732",
"6  c #3C3B34",
"7  c #3E3D38",
"8  c #423F3A",
"9  c #44433C",
"0  c #49463F",
"q  c #464540",
"w  c #4C4C47",
"e  c #4E4E49",
"r  c #514E45",
"t  c #504D48",
"y  c #53544D",
"u  c #5B5B54",
"i  c #5F5E59",
"p  c #64625D",
"a  c #666560",
"s  c #6A6665",
"d  c #6A6A64",
"f  c #716E67",
"g  c #727166",
"h  c #72726D",
"j  c #78766A",
"k  c #7A7A6E",
"l  c #787774",
"z  c #7E7B74",
"x  c #817E77",
"c  c #807F7A",
"v  c #7F807B",
"b  c #85857C",
"n  c #88857C",
"m  c #878380",
"M  c #8D8C85",
"N  c #8F8E89",
"B  c #908D84",
"V  c #918D8E",
"C  c #93918C",
"Z  c #99968F",
"A  c #9A9790",
"S  c #9D9B95",
"D  c #9E9D99",
"F  c #A29F98",
"G  c #A2A29A",
"H  c #A7A3A0",
"J  c #A9A5A2",
"K  c #ACAAA3",
"L  c #B1AFA5",
"P  c #B3B1A4",
"I  c #B5B2AC",
"U  c #B9B9AF",
"Y  c #B8B5B2",
"T  c #BCBAB2",
"R  c #C1BFB3",
"E  c #C4C1B5",
"W  c #C4C3BA",
"Q  c #CAC7BE",
"!  c #C7C4C2",
"~  c #CDCDC4",
"^  c #D2CFC8",
"/  c #D2D0C4",
"(  c #D5D4CB",
")  c #D8D5CC",
"_  c #D6D7D2",
"`  c #DCDBD3",
"'  c #E0DDD4",
"]  c #E2DFDA",
"[  c #E5E2D5",
"{  c #E4E3DA",
"}  c #E9E6DB",
"|  c #ECEADE",
" . c #F1EEDF",
".. c #E8E4E5",
"X. c #EDECE2",
"o. c #EFEEE9",
"O. c #F1EFE2",
"+. c #F1EEEA",
"@. c #F4F2E5",
"#. c #F9F6E7",
"$. c #F6F4E9",
"%. c #F8F6E9",
"&. c #FCF9EC",
"*. c #F6F6F1",
"=. c #F9F6F2",
"-. c #F7F8F2",
";. c #FEFDF3",
":. c #FFFFF9",
/* pixels */
"%.%.%.%.%.%.%.%.%.%.%.%.%.%.%.%.%.%.%.%.%.%.%.%.%.%.%.%.%.%.%.%.%.%.%.%.%.%.%.%.%.%.%.%.%.%.%.%.%.%.%.%.%.%.%.%.%.%.%.%.%.%.%.%.",
"%.%.%.%.%.%.%.%.%.%.%.%.%.%.%.%.%.%.%.%.%.%.%.%.%.%.%.%.%.%.%.%.%.%.%.%.%.%.%.%.%.%.%.$.%.%.%.%.%.%.%.%.%.%.%.%.%.%.%.%.%.%.%.%.",
"%.%.%.%.%.%.%.%.%.%.%.%.%.%.%.%.%.%.%.%.%.%.%.%.%.%.%.%.%.%.%.%.%.%.%.%.%.%.%.%.%.%.%.%.%.%.%.%.%.%.%.%.%.%.%.%.%.%.%.%.%.%.%.%.",
"%.%.%.%.%.%.%.%.%.%.%.%.%.%.%.%.%.%.%.%.%.%.%.%.%.%.%.%.%.%.%.%.%.%.%.%.%.%.%.%.%.%.%.%.%.%.%.%.%.%.%.%.%.%.%.%.%.%.%.%.%.%.%.%.",
"%.%.%.%.%.%.%.%.%.%.%.%.%.%.%.%.%.%.%.%.%.%.%.%.%.%.%.%.%.%.%.%.%.%.%.%.%.%.%.%.%.%.#.%.$.%.%.%.%.%.%.%.%.%.%.%.%.%.%.%.%.%.%.%.",
"%.%.%.%.%.%.%.%.%.%.%.%.%.%.%.%.%.%.%.%.%.%.%.%.%.%.%.%.%.%.%.%.%.%.%.%.%.%.%.%.%.%.%.%.%.%.%.%.%.%.%.%.%.%.%.%.%.%.%.%.%.%.%.%.",
"%.%.%.%.%.%.%.%.%.%.%.%.%.%.%.%.%.%.%.%.%.%.%.%.%.%.%.%.%.%.%.%.%.%.%.%.%.%.%.%.%.%.%.%.%.%.%.%.%.%.%.%.%.%.%.%.%.%.%.%.%.%.%.%.",
"%.%.%.%.%.%.%.%.%.%.%.%.%.%.%.%.%.%.%.%.%.%.%.%.%.%.%.%.%.%.%.%.%.%.%.%.%.%.%.%.%.%.%.%.%.%.%.%.%.%.%.%.%.%.%.%.%.%.%.%.%.%.%.%.",
"%.%.%.%.%.%.%.%.%.%.%.%.%.%.%.%.%.%.%.%.%.%.%.%.%.%.%.%.%.%.%.%.%.%.%.%.%.%.%.#.$.%.%.%.%.%.%.%.%.%.%.%.%.%.%.%.%.%.%.%.%.%.%.%.",
"%.%.%.%.%.%.%.%.%.%.%.%.%.%.%.%.%.%.%.%.%.%.%.%.%.%.%.%.%.%.%.%.%.%.#.@.%.%.%.%.%.%.%.%.%.%.%.%.%.%.%.%.%.%.%.%.%.%.%.%.%.%.%.%.",
"%.%.%.%.%.%.%.%.%.%.%.%.%.%.%.%.%.%.%.%.%.%.%.%.%.%.%.%.%.%.%.%.%.%.#.%.%.%.%.%.%.%.%.%.%.%.%.%.%.%.%.%.%.%.%.%.%.%.%.%.%.%.%.%.",
"%.%.%.%.%.%.%.%.%.%.%.%.%.%.%.%.%.%.%.%.%.%.%.%.%.%.%.%.%.%.%.%.%.%.%.%.%.%.%.%.%.%.%.%.%.%.%.%.%.%.%.%.%.%.%.%.%.%.%.%.%.%.%.%.",
"%.%.%.@.%.%.%.%.%.%.%.%.%.%.%.%.%.%.%.%.%.%.%.%.%.%.%.%.%.%.%.%.%.%.%.%.%.%.%.%.%.%.%.%.%.%.%.%.%.%.%.%.%.%.%.%.%.%.%.%.%.%.%.%.",
"%.%.#.#.%.%.%.%.%.%.%.%.%.%.%.%.%.%.%.%.%.%.%.%.%.%.%.%.%.%.%.%.%.%.%.%.%.%.%.%.%.%.%.%.%.%.%.%.%.%.%.%.%.%.%.@.%.%.%.%.%.%.%.%.",
"%.%.%.%.%.%.%.%.%.%.%.%.%.%.%.%.%.%.%.%.%.%.%.%.%.%.%.%.%.%.%.%.%.%.%.%.%.%.%.%.%.%.%.%.%.%.%.%.%.%.%.%.%.%.%.%.%.%.%.%.%.%.%.%.",
"%.%.%.%.%.%.%.%.%.%.%.%.%.%.%.%.%.%.%.%.%.%.%.%.%.%.%.%.%.%.%.%.%.%.%.%.%.%.%.%.%.%.%.%.%.$.%.#.%.%.%.%.%.%.%.%.%.%.%.%.%.%.%.%.",
"%.%.%.%.%.%.%.%.%.%.%.%.%.%.%.%.&.&.@.&.&.@.&.@.%.%.&.%.&.%.%.%.;.&.%.X.%.&.@.&.%.%.%.%.@.;.&.@.%.%.%.%.%.%.%.%.%.%.%.%.%.%.%.%.",
"%.%.%.%.%.%.%.%.%.%.%.%.%.%.%.%.@.;.%.@.| ;.%.#.$.$.%.%.%.%.%.%.@.$.&.%.&.&.O.%.&.@.&.%.$.%.@.&.%.%.%.%.%.%.%.%.%.%.%.%.%.%.%.%.",
"%.%.%.%.%.$.#.%.%.%.%.%.%.%.%.%.&.$.%.;.%.;.| ;.$.$.$.$.%.$.%.%.@.;.%.%.&.%.%.&.&.O.%.%.$.%.| ;.%.%.%.%.%.%.%.%.%.%.%.%.%.%.%.%.",
"%.%.%.%.%.%.%.%.%.%.%.%.%.%.%.%.&.$.@.$.;.%.X.;.%.%.$.%.$.%.%.%.@.;.%.%.%.@.%.&.%.@.&.| ;.&.@.%.%.%.%.%.%.%.%.%.%.%.%.%.%.%.%.%.",
"%.%.%.%.%.%.%.%.%.%.%.%.%.%.%.%.%.%.%.| %.%.&.@.&.%.%.%.%.%.$.%.@.&.%.&.;.@.O.O.%.%.;.X.;.%.&.%.%.%.%.%.%.%.%.%.%.%.%.%.%.%.%.%.",
"%.%.%.%.%.%.%.%.%.%.%.%.%.%.%.%.&.@.;.;.;.;.%.@.%.%.%.%.%.$.%.%.&.%.%.+.&.;.%.;.$.@.[ ;.%.| ;.%.%.%.%.%.%.%.@.%.%.%.%.%.%.%.%.%.",
"%.%.%.%.%.%.%.%.%.%.%.%.%.%.%.%.;.X.;.' P ;.X.&.O.@.%.%.%.=.%.$.&.@.;.| +.:.} =.;.Q n ;.%.@.&.%.%.%.%.%.%.%.%.%.%.%.%.%.%.%.%.%.",
"%.%.%.%.%.%.%.%.%.%.%.%.%.%.%.%.%.&.%.g - ;.%.%.| +.$.%.%.&.$.%.%.} ;.%.$.&.T R :.S < ;.@.;.%.@.%.%.%.%.%.%.%.%.%.%.%.%.%.%.%.%.",
"%.%.%.%.$.#.%.%.%.%.%.%.%.%.%.%.&.X.;., + ] &.+.# B ;.O.=.%.;.&.;.%.;.| @.:.6 K =.x 6 =.%.&.@.&.@.%.%.%.%.%.%.%.%.%.%.%.%.%.%.%.",
"%.%.%.%.%.%.%.%.%.%.%.%.%.%.%.%.%.$.` .   ( ;.%.# 6 ;.$.=.{ ;.X.@.@.| ;.;.$.4 Y :.q t =.O.+.;.} %.%.%.%.%.%.%.%.%.%.%.%.%.%.%.%.",
"%.%.%.%.%.%.%.%.%.%.%.%.%.%.%.%.@.:.F   . W :.=.8 ; X.+.:.;.+.:.@.&.;.[ f 8   a =.; l :.;.O.;.&.%.%.%.%.%.%.%.%.%.%.%.@.%.%.%.%.",
"%.%.$.#.%.%.%.%.%.%.%.%.%.%.%.%.X.;.i . @ T :.$.: - :.$.] $.;.O.;.[ ;.) o   . s :.% m =.+.%.O.&.%.%.%.%.%.%.%.%.%.%.%.%.%.%.%.%.",
"%.%.%.%.%.%.%.%.%.%.%.%.%.%.%.%.%.=.< q @ I ;.] + 0 ;.X.=.O.=.;.@.;.+.$.=.H   ..+.. Y :.@.#.%.@.%.%.%.%.%.%.%.%.%.%.%.%.%.%.%.%.",
"%.%.%.%.%.%.%.%.%.%.$.%.%.%.%.%.;.` @ C . K :.I   x +.:.+.:.$.X.;.O.&.:.:.H % :.!   S Y ;.&.&.@.%.%.%.%.%.%.%.%.%.%.%.%.%.%.%.%.",
"%.%.%.%.%.%.%.%.%.%.%.%.%.%.%.%.:.L + ^   A :.f   R :.Z + M :.=.P E $.R :.V ; =.Y   $ X ' ;.@.@.%.%.%.%.%.%.%.%.%.%.%.%.%.%.%.%.",
"%.%.%.%.%.%.%.%.%.%.%.%.%.%.%.%.=.C * $.  B :.3   ' +.  o   F ;.j k t   ] N ; :.V       I ;.@.%.%.%.%.%.%.%.%.%.%.%.%.%.%.%.%.%.",
"%.%.%.%.$.%.%.%.$.%.%.%.%.%.%.%.-.u w :.  M o.X 4 :.D O l X e -.z       ` h 4 :.l   h O v *.-.o.$.%.%.%.%.%.%.%.%.%.%.%.%.%.%.%.",
"%.%.%.%.%.%.%.%.%.%.%.%.%.%.%.%.:.2 z :.= h _   N :.d 6 :.y o :.C X 2 I *.e e :.w & _ o d :.o.*.-.%.%.%.%.%.%.%.%.%.%.%.%.%.%.%.",
"#.%.%.%.%.%.%.%.%.%.@.%.%.%.&.&.*.$ J :.: p D   ! :.i 7 :.N   :.d   o.*.-.s e :.7 q :.X a :.] ;.%.%.%.%.%.%.%.%.%.%.%.%.%.%.%.%.",
"%.%.%.%.%.%.%.%.%.%.%.%.%.%.&.&.] & ( :.4 9 9 & *.-.s 4 *.a o :.5 h :.$.:., i :.$ h :.o a *.o.-.%.%.%.%.%.%.%.%.%.%.%.%.%.%.%.%.",
"%.%.%.%.%.%.%.%.%.%.%.%.%.%.&.;.U 2 *.-.d & O w :.o.G   ~ O 8 ;.X A -...:.7 2 :.  D ;.& u -.;.$.%.%.%.%.%.%.%.%.%.%.%.%.%.%.%.%.",
"%.%.%.%.%.%.%.%.%.%.@.%.%.%.&.&.~ M -.-.M X   G *.:.U   @   M ;.= U ;.o.:.1 9 *.b ~ :.: u :.X.;.%.%.%.%.%.%.%.%.%.%.%.%.%.%.%.%.",
"$.%.%.%.%.%.%.%.%.%.%.%.%.%.%.%.;.$.;.;.K   o _ ;.{ o.3 . # } ;.W { ;.$.-.3 b :.;.X.;.< p ;.[ ;.%.%.%.%.%.%.%.%.%.%.%.%.%.%.%.%.",
"%.%.%.%.%.%.%.%.%.#.%.%.%.%.#.#.o.@.-.-.O.  9 ;.X.:.;.Q y T ;.+.;.;.&.X.;.{ } -.$.$.:.1 g :.-.%.%.%.%.%.%.%.%.%.%.%.%.%.%.%.%.%.",
"%.%.%.%.%.%.%.%.%.%.%.%.%.%.%.%.;.O.@.;.%./ ( %.@.%.&.;.&.&.%.%.%.%.-.%.%.%.%.%.+.=.;.2 k ;.&.O.%.%.%.%.%.%.%.%.%.%.%.%.%.%.%.%.",
"%.%.%.%.%.%.%.%.%.%.%.%.%.%.%.%.@.%.&.&.$.@.%.&.%.%.%.&.&.%.%.#.%.%.%.%.%.%.%.%.%.%.&.B E &.%.%.%.#.%.%.%.%.%.%.%.%.%.%.%.%.%.%.",
"%.%.%.%.%.#.%.%.%.%.%.%.%.%.%.%.@.;.&.@.@.;.;.@.#.#.#.&.$.%.%.+.%.%.%.%.%.%.%.&.%.#.&.[ &.#.#.&.%.%.%.%.%.%.%.%.%.%.%.%.%.%.%.%.",
"%.%.%.%.%.%.%.%.%.%.%.%.%.%.%.%.&.%.%.%.#.%.@.@.#.#.#.#.%.%.%.%.%.%.%.%.%.%.%.#.%.#.&.;.&.#.#.#.%.%.%.%.%.%.%.%.%.%.%.%.%.%.%.%.",
"%.%.%.%.%.%.%.%.%.%.%.%.%.%.%.%.#.#.@.&.&.#.#.&.&.#.#.#.#.#.#.#.#.#.#.#.#.#.#.#.&.#.&.#. .&.#.@.%.%.%.%.%.%.%.%.%.%.%.%.%.%.%.%.",
"%.%.%.%.%.$.%.%.%.%.%.%.%.%.%.%.#.#.#.#.%.#.&.&.#.&.#.#.#.#.#.%.#.#.#.#.#.#.#.#.&. .#.#.#.&.@.&.%.%.%.%.%.%.%.%.%.%.%.%.%.%.%.%.",
"%.%.%.%.%.%.%.%.%.%.#.%.%.%.%.%.#.#.#.#.@.#.#. .#.#.&.#.&.#.#.#.#.#.#.#.#.#.#.#.&.@.#.#.&.#.#.&.%.%.%.%.%.%.%.@.%.%.%.%.%.%.%.%.",
"%.%.%.%.%.%.%.%.%.%.%.%.%.%.#.#.&.#.#.#.#.#.#.#.#.#.#.#.#.#.#.@.#.#.#.#.#.#.#.#.O.&.#.@.&. .&.#.%.%.%.%.%.%.%.%.%.%.%.%.%.%.%.%.",
"%.%.%.%.%.%.%.%.%.%.%.%.%.%.%.%.%.%.%.%.%.%.%.%.%.%.%.%.%.%.%.%.%.%.%.%.%.%.%.%.%.%.%.%.%.%.%.%.%.%.%.%.%.%.%.%.%.%.%.%.%.%.%.%.",
"%.%.%.%.%.%.%.%.%.%.%.%.%.%.%.%.%.%.%.%.%.%.%.%.%.%.%.%.%.%.%.%.%.%.%.%.%.%.%.%.%.%.%.%.%.%.%.%.%.%.%.%.%.%.%.%.%.%.%.#.%.%.%.%.",
"%.%.%.%.%.%.%.%.%.%.%.%.%.%.%.%.%.%.%.%.%.%.%.%.%.%.%.%.%.%.%.%.%.%.%.%.@.%.%.%.%.%.%.%.%.%.%.%.%.%.%.%.%.$.%.%.%.%.%.%.%.%.%.%.",
"#.%.%.%.%.%.%.%.%.%.%.%.%.%.%.%.%.%.%.%.%.%.@.%.%.%.%.%.%.%.%.%.%.%.%.%.%.%.%.%.%.%.%.%.%.%.%.%.%.%.%.%.%.%.%.%.%.%.%.%.%.%.$.%.",
"$.%.%.%.%.%.%.%.%.%.%.%.%.%.%.%.%.%.%.%.%.%.%.%.%.%.%.%.%.%.%.%.%.%.%.%.%.%.%.%.%.%.%.%.%.%.%.%.%.%.%.%.%.%.%.%.%.%.%.%.%.%.%.%.",
"%.%.%.%.%.%.%.%.%.%.%.%.%.%.%.%.%.%.%.%.%.%.%.%.%.%.%.%.%.%.%.%.%.%.%.%.%.%.%.%.%.%.%.%.%.%.%.%.%.%.%.%.%.%.%.%.%.%.%.%.%.%.%.%.",
"%.%.%.%.%.%.%.%.%.%.%.%.%.%.%.%.%.%.%.%.%.%.%.%.%.%.%.%.%.%.%.%.%.%.%.%.%.%.%.%.%.%.%.%.%.%.%.%.$.%.%.%.%.%.%.%.%.%.%.%.%.%.%.%.",
"%.%.%.%.%.%.%.%.%.%.%.%.%.%.%.%.%.%.%.%.%.%.%.%.%.%.%.%.%.%.%.%.%.%.%.%.%.%.%.%.%.%.%.%.%.%.%.%.%.%.%.#.%.%.%.%.%.%.%.%.%.%.%.%.",
"%.%.%.%.%.%.%.%.%.%.%.%.%.%.%.%.%.%.%.%.%.%.%.%.%.%.%.%.%.%.%.%.%.%.%.%.%.%.%.%.%.%.%.%.%.%.@.%.%.%.%.%.%.%.%.%.%.%.%.%.%.%.%.%.",
"%.%.%.%.%.%.%.%.%.%.%.%.%.%.%.%.%.%.%.%.%.%.%.%.%.%.%.%.%.%.%.%.%.%.%.%.%.%.%.%.%.%.%.%.%.%.%.%.%.%.%.%.%.%.%.%.%.%.%.%.%.%.%.%.",
"%.%.%.%.%.%.%.%.%.%.%.%.%.%.%.%.%.%.%.%.%.%.%.%.%.%.%.%.%.%.%.%.%.%.%.%.%.%.%.%.%.%.%.%.%.%.%.%.%.%.%.%.%.%.%.%.%.%.%.%.%.%.%.%.",
"%.%.%.%.%.%.%.%.%.%.%.%.%.%.%.%.%.%.%.%.%.%.%.%.%.%.%.%.%.%.%.%.%.%.%.%.%.%.%.%.%.%.%.%.%.%.%.%.%.%.%.%.%.%.%.%.%.%.%.%.%.%.%.%.",
"%.%.%.%.%.%.%.%.%.%.%.%.%.%.%.%.@.%.%.%.%.%.%.%.%.%.%.%.%.%.%.%.%.%.%.%.%.%.%.%.%.%.%.%.%.%.%.%.%.%.%.%.%.%.%.%.%.%.%.%.%.%.%.%.",
"%.%.%.%.%.%.%.%.%.%.%.%.%.%.%.%.%.%.%.%.%.%.%.%.%.%.%.%.%.%.%.%.@.%.%.%.%.%.%.%.%.%.%.%.%.%.%.%.%.%.%.%.%.%.%.%.%.%.%.%.%.%.%.%.",
"%.%.%.%.%.%.%.%.%.%.%.%.%.%.%.%.%.%.%.%.%.%.%.%.%.%.%.%.%.%.%.%.%.%.%.%.%.%.%.%.%.%.%.%.%.%.%.%.%.%.%.%.%.%.%.%.%.%.%.%.%.%.%.%.",
"%.%.%.%.%.%.%.%.%.%.%.%.%.%.%.%.%.%.%.%.%.%.%.%.%.%.%.%.%.%.%.%.%.%.%.%.%.%.%.%.%.%.%.%.%.%.%.%.%.%.%.%.%.%.%.%.%.%.%.%.%.%.%.%."
};
