/* XPM */
static char *_b845139694a43cbdd660739c502cce0FH1TjnrTkv6vfRKu[] = {
/* columns rows colors chars-per-pixel */
"64 64 232 2 ",
"   c #E17E15",
".  c #A07E76",
"X  c #DD811D",
"o  c #E58116",
"O  c #E98315",
"+  c #E6841B",
"@  c #EA851A",
"#  c #EB881E",
"$  c #F08614",
"%  c #F58915",
"&  c #FA8C16",
"*  c #F48C1C",
"=  c #FA8E1A",
"-  c #FB901E",
";  c #DC8528",
":  c #DE8D37",
">  c #E68825",
",  c #EA8B24",
"<  c #E58B2C",
"1  c #E98D2B",
"2  c #F28E23",
"3  c #EC912E",
"4  c #F59126",
"5  c #FA9223",
"6  c #F4932C",
"7  c #FA962B",
"8  c #FA982E",
"9  c #E58E32",
"0  c #E68F33",
"q  c #E69135",
"w  c #EA9234",
"e  c #E5933B",
"r  c #EA953B",
"t  c #EE993D",
"y  c #F39633",
"u  c #F59936",
"i  c #FB9B34",
"p  c #F0973A",
"a  c #F49B3B",
"s  c #FB9D38",
"d  c #FA9D3A",
"f  c #FB9E3B",
"g  c #FB9F3D",
"h  c #FBA03E",
"j  c #BA865A",
"k  c #9D817A",
"l  c #BA8B67",
"z  c #B7956B",
"x  c #A88B7A",
"c  c #B68E75",
"v  c #B59979",
"b  c #B4A17F",
"n  c #C9894B",
"m  c #D58D47",
"M  c #DD944A",
"N  c #C58957",
"B  c #D18F55",
"V  c #C9985B",
"C  c #D59757",
"Z  c #E59745",
"A  c #EB9A44",
"S  c #EB9D4B",
"D  c #F49E42",
"F  c #F69F43",
"G  c #E69C51",
"H  c #EEA04E",
"J  c #F6A145",
"K  c #FBA142",
"L  c #FBA243",
"P  c #F6A34B",
"I  c #FBA54A",
"U  c #FBA84F",
"Y  c #EAA357",
"T  c #F3A653",
"R  c #FBAA54",
"E  c #F3AA5B",
"W  c #FBAE5B",
"Q  c #FCB05F",
"!  c #C89766",
"~  c #C2936A",
"^  c #CD9969",
"/  c #C9A06D",
"(  c #D2A165",
")  c #FBB161",
"_  c #F3B26D",
"`  c #FCB569",
"'  c #6D759D",
"]  c #7A7B99",
"[  c #6E79A2",
"{  c #847A90",
"}  c #79849F",
"|  c #5D8ABD",
" . c #7684AA",
".. c #7B95AE",
"X. c #6888B7",
"o. c #788AB9",
"O. c #6B91BC",
"+. c #7897B4",
"@. c #7CA3B8",
"#. c #3988DB",
"$. c #3B91D7",
"%. c #3A93DB",
"&. c #3A94DC",
"*. c #3F99E0",
"=. c #598EC5",
"-. c #5999CA",
";. c #4389DB",
":. c #4996D7",
">. c #4297DA",
",. c #4499DD",
"<. c #4C9CDD",
"1. c #559DD4",
"2. c #519DDF",
"3. c #658CC4",
"4. c #6797CA",
"5. c #7698C9",
"6. c #699BD7",
"7. c #739AD5",
"8. c #4DA1DF",
"9. c #56A1D7",
"0. c #5DA2D5",
"q. c #54A4DD",
"w. c #5AA5DB",
"e. c #6AA4CA",
"r. c #62A4D4",
"t. c #66A6D9",
"y. c #76A7D1",
"u. c #449CE2",
"i. c #4A9DE2",
"p. c #569AE4",
"a. c #659EE2",
"s. c #47A2E5",
"d. c #4CA2E3",
"f. c #4CA6E9",
"g. c #4FA8EA",
"h. c #53A3E2",
"j. c #5AA6E5",
"k. c #54AAEB",
"l. c #5BADEC",
"z. c #5EB1EE",
"x. c #5DADF0",
"c. c #64A2E4",
"v. c #68ABE9",
"b. c #71A6E9",
"n. c #74ABEB",
"m. c #79ABEA",
"M. c #62B2EE",
"N. c #6CB5EC",
"B. c #7EB3ED",
"V. c #76B8ED",
"C. c #64AFF0",
"Z. c #68B6F1",
"A. c #75BAF1",
"S. c #7BBCF1",
"D. c #7EC0F2",
"F. c #9B988E",
"G. c #8D8C93",
"H. c #969995",
"J. c #919E9B",
"K. c #A79787",
"L. c #A6928E",
"P. c #9BA095",
"I. c #94A19E",
"U. c #99A39C",
"Y. c #AEA68F",
"T. c #8996A6",
"R. c #8C90AA",
"E. c #859AB6",
"W. c #8DA1A5",
"Q. c #8AA3AB",
"!. c #93A3A3",
"~. c #98A5A2",
"^. c #94A6A9",
"/. c #98A8A8",
"(. c #9AAAAA",
"). c #85A5B3",
"_. c #95ADB6",
"`. c #9AB2BB",
"'. c #A7B5B6",
"]. c #B1B9B4",
"[. c #CDB390",
"{. c #CABEA8",
"}. c #CFC5B2",
"|. c #819CD3",
" X c #95B5C6",
".X c #89AED5",
"XX c #96BBD4",
"oX c #83B6ED",
"OX c #8BB1E8",
"+X c #83BBEE",
"@X c #83B7F1",
"#X c #86BCF1",
"$X c #89BDF0",
"%X c #9BC3DD",
"&X c #ABC6D6",
"*X c #8BC2EC",
"=X c #97C6E6",
"-X c #9ACAEC",
";X c #84C3F3",
":X c #8CC5F3",
">X c #8EC8F4",
",X c #93C5F3",
"<X c #95CCF5",
"1X c #99CEF5",
"2X c #9DD0F6",
"3X c #9FD2F8",
"4X c #A7CCEC",
"5X c #B2CEEA",
"6X c #A3D3F6",
"7X c #A8D5F8",
"8X c #ADD8F9",
"9X c #B4DAF6",
"0X c #B4DCF9",
"qX c #BBDEF9",
"wX c #BEE0F9",
"eX c #CBD0CD",
"rX c #D4D9D8",
"tX c #C9DBE7",
"yX c #CCDDEE",
"uX c #CCE0ED",
"iX c #D4E1E8",
"pX c #CBE5F7",
"aX c #C4E3FA",
"sX c #CBE6FA",
"dX c #D4E7F3",
"fX c #D4EAFB",
"gX c #D9EDFD",
"hX c #E3F2FC",
"jX c #EAF5FD",
"kX c #EFF8FD",
"lX c #F3F9FE",
"zX c #FAFDFE",
/* pixels */
"W R U I K h a e L K g g g d d d g y w f i i i u i u f i 3 i i u g d g F g g K g g s 9 g g s h h h L L I h r I I K K h h h L h J ",
"W R U J J g F e a F F a p a u u u w r g i u g f i g u 3 0 i y 8 u i y F i u g u y p 9 y y 3 y y a p p a t : t t u u y y y h i i ",
"T S S Z e r r e w r r 9 w r q r w 0 0 9 0 9 0 w 0 9 9 < 1 w w 1 3 3 9 w w w w q w w e 3 3 1 3 w w 3 w p p e e r t p r r r q e q ",
"P U K g u g K f i i u 1 i i i s i i i i i 8 i u s 8 y w i i i i u d f f g g d K r y g i g g h 8 h h h K h h e h h h h h h h h h ",
"K I L K d K K f i f u 9 i i i h s s g g s g g g s i p r f i i f i i i i K g i f w a h i s g i i 8 8 s g i i e i i h h g i h h h ",
"L K K g K K h i h f u q i i i f i s s i i i d i i i s w s s i f f f i i f f i f w p s i 8 i i i 8 8 7 7 8 i 1 i 7 7 7 8 8 i i 8 ",
"d d d i d f i i i i 6 w i i h i i F g i f i d i 8 i y 1 i s s i i i i i i i i f 3 y i 8 8 i i 8 h 8 - - 5 7 < 4 - - 5 8 8 8 8 5 ",
"K L K g h K K f f h d w i h f h g g F g i f F g f f y 1 i s g f i f i i i i f i 1 6 7 7 7 i 7 5 7 5 - - 5 7 > 4 5 5 7 i 8 8 7 7 ",
"F F F D u F F a u a r 9 p u u F C G D D y A d F F S m N ! c l l N B M m 3 4 , , X > , , < 1 1 < , > , 1 3 < ; > > 1 q 1 1 q 3 1 ",
"F D A D e A A F A r r r r m . o.|.o.N y y Z B { { o.3.6.a.c.c.c.c.6.4.X. .k N : 2 2 4 6 1 3 6 u 6 4 4 6 6 6 6 6 7 9 3 i u u y y ",
"R U I U Z F F F K h h g l 5.m.@X7.R.B S { { a.b.S.,X6X9XqXqXwXwX0X9X7X<X#Xv.b.o.L.M u 8 w 3 8 i i 7 7 8 i i i i 8 w y i d h i h ",
"R U F I A F f F L f f x 7.,X<X@X7.~ L.|.OX-X9XsXhXhXjXhXgXfXfXfXfXgXfXfXfXaX8X,Xm.5.G.j Z 6 7 7 7 7 8 s 8 i 8 8 i w y 8 7 i 7 8 ",
"F F d L S a f F F F l 7.m.$X6X7XOX|.4XaXhXlXzXzXzXzXzXzXzXjXfXfXfXfXfXfXfXdXgXdXaX4Xy.O.] j r 8 7 7 7 7 8 8 8 7 7 3 y i 8 7 7 7 ",
"F g d L Z i f F F F ~ 3.{ 7.$XOX4XfXlXzXlXlXlXlXzXlXzXzXzXzXhXdXfXfXfXfXdXfXiXrXdXiXeX&Xy.X.. M i 8 i i f d i s d w a h h h h i ",
"K F g g Z s f s d d F Z S { oX9XhXzXzXlXlXlXkXlXlXlXlXlXzXzXjXfXfXfXfXfXiXiXrXrXrXrXrXrXqXXXO.] V h g h h h h h h r I L K I J K ",
"g f d d 9 a i y f d i i L.|.aXhXzXlXlXlXkXlXkXkXlXlXlXzXzXzXhX7XsXfXfXfXdXiXeXeXeXeX}.[.eXeX'.+.[ N i 8 i 8 i h h Z J I K I L L ",
"F S A r : e q 0 : 0 0 c 7.7XjXlXlXlXlXlXkXlXkXlXlXzXlXzXzXlX7XA.<X9X9XwXpXpX}.}.}.{.{.{.eXb [.F.+.[ j 1 1 1 3 9 0 9 q q A r Z A ",
"U I K F F g F u 3 y c 6.<XfXkXlXlXlXkXkXkXkXkXlXlXlXlXlXjX9XZ.N.D.D.;X>X-X-X&X].}.[./ {.}.C z V b ..' n 7 7 u y 6 6 1 9 p y K I ",
"F K d f i f f i 1 ~ 6.:XsXfXhXjXkXlXkXkXkXlXlXlXkXlXjXfX6XV.N.;X>X>X>X>X<X>X>X=X%X].{.{.[.C V V C b ..] m 7 8 i i i 8 1 u g L U ",
"F F f i i i f i B 5.S.aXsXsXsXgXhXjXjXjXhXjXjXhXhXfX8X;XA.S.>X<X1X1X2X2X=X=X>X*X%X%X XY.Y.( V V C V K...{ p 7 7 7 7 y w d J U U ",
"h i i i f i i g R.m.0XfXsXsXsXsXwX9X9X9X9X7X1X<X:XS.A.S.>X<X1X1X1X2X2X1X-X=X-X-X`.%X)._./.P.b ! ( ( ( U...k i i d d J S R W W W ",
"f i i i 8 8 i ^ a.1XsXsXsXsXaX8X2X<X;XD.A.A.V.S.D.;X>X1X1X1X1X1X1X1X1X1X<X-X-X-X`.`._._._.!.P.b / ( ( / Q.} C f U K T Y ) W ) ) ",
"K g g i i i u R.A.wXsXsXsXwX7X<X<X<X<X<X<X<X<X<X<X3X1X1X1X1X1X1X1X1X1X1X%X-X%X%X X_.!.~.I.Q.W.I.Y.V V V '..XH.g d h P G J U I L ",
"T P F a a u ^ 7.1XsXsXsXwX6X<X>X<X<X<X<X<X<X<X2X<X1X1X1X1X1X1X<X1X1X1X-X-X-X=X`._.W.J.J.J.J.T.).Q.F.z V H.t.=.N , 1 9 ; 1 0 1 1 ",
"T P r e 9 q G.A.0XsXsXqX7X<X>X<X<X<X<X<X<X1X<X<X:X:X1X1X1X1X1X1X1X1X1X1X1X-X6X4X].'.U.H.J.~.J.T.@.@.P.z F.9.$.G.3 4 > 2 4 5 5 - ",
"` R K w 3 Z 5.:XsXsXaX6X<X>X<X<X<X<X<X1X1X1X2X<X+X$X<X1X1X1X1X1X1X1X1X6XwXwXfXdXyX5X].I.U.H.U.J.J.@.Q.Y.P.9.8.| Z 7 1 6 7 7 7 u ",
"` ) R F D ^ c.6XsXaX7X1X<X<X<X<X<X<X<X<X<X<X<X>X+X,X$X<X1X1X1X1X1X1X9XsXgXgXgXgX4X4XeXU.U.H.U.H.P.J.).W.Q.9.8.:.j 5 , 7 8 8 i f ",
"[.) R Y T L.n.9XsXqX2X<X<X<X>X<X<X<X<X1X1X<X<XB.>X1XoX,X1X1X1X1X1X8XfXgXgXgXsXtXOXpXtX(.(.~.~.!.~.U.Q.@.@.8.8.<.G.7 1 i I K I I ",
"W W R T Y E.A.aXsX6X<X<X>X<X<X<X<X<X<X<X2X<X>XB.<X1X*XB.1X1X1X1X1XaXfXgXgXpX&X X.XaXuX(.(.(./.!./././.).r.d.8.8...P Z I R W R W ",
"R R I Y H |.;XaXqX2X<X<X>X<X<X<X<X<X<X<X<X<XB.+X<X1X<Xm.:X1X1X1X2XsXfXgXgX9X-Xv.;XwXuX'./.^.^.!././.(.Q.w.s.8.q.X.C S R R R W ) ",
"W E S M C 7.>XsX8X1X,X<X<X<X<X1X<X<X<X<X1X>Xn.<X1X1X1X$Xm.<X1X1X1X8XfXfXfXwX*X5. X5XtX(.W.W.Q.W.Q.!.!.@.d.s.8.q.| z M H Y E Y Y ",
"U P P L ( 7.>XaX6X,X<X<X<X<X<X<X<X<X<X<X1X;XB.2X<X<X<X<Xb.:X1X6X2X1X8XsXfXfXOX@.'.5X&X(.U.~.~.U.~.I.~.r.d.s.q.q.3.~ W E E ` ( _ ",
"Q Q R I Y 6.;XwX3X<X>X<X<X<X<X<X<X<X<X<X<Xn.*X2X<X1X<X<X$Xn.<X6X2X1X1X3XwXsX$X5X5XtX].~.U.~.~.U.~.U.@.w.f.8.q.q.-.~ U R R R H W ",
"Q Q Q R E 5.Z.2X1X>X<X<X<X<X1X2X<X<X<X<X;Xn.<X<X2X<X<X1X1Xb.$X2X2X6X7X3X1X,XXXtXtX'.~.U.~.U.U.U.U.W.r.q.q.q.q.q.=.~ I I U U G R ",
"Q W W R E +.z.A.;X>X<X<X<X<X1X1X<X<X<X<Xm.+X<X2X<X<X<X1X1X+Xb.2X3X8X6X7X2XoX.X~.(.I.I.U.U.U.U.U.!.e.w.q.q.q.8.q.| ! K I U R S R ",
"R R I I I !.k.M.S.;X<X>X<X<X<X1X<X<X<X>Xb.<X<X<X<X<X<X1X<X1Xb.+X7X8X3X8X1Xm.4X(.I.!.U.U.~.U.U./.e.q.q.q.w.w.8.q.| B i g I P G R ",
"T F F D A K.l.z.Z.A.;X>X<X<X<X<X1X<X<X@XV.<X-X2X<X<X<X2X<X1X+Xb.2X8X8X4XOX$X%X!.W.W.I.!.!.I.Q.e.q.8.q.w.q.q.q.q.X.Z h L K J H T ",
"T S r Z e ~ c.z.z.z.A.;X:X<X<X2X<X<X<Xb.*X1X<X<X<X<X>X1X<X2X2Xb.#X<X<X*Xm.>XXX X`.I.I.J.W.@.0.q.8.q.q.q.q.q.q.9. .M Z S S G M H ",
"R I I p p Y r.z.z.k.x.z.Z.;X>X1X<X<X+Xb.>X1X-X<X<X<X1X1X<X>X>Xn.p.V.n.v.a.N.v.t.e.Q.W.@.@.q.q.8.q.w.q.q.q.q.q.-.F.h I P I P P P ",
"I I J F t I E.k.l.x.g.g.k.z.A.;X>X<Xm.oX-X<X1X1X1X1X-X>X*XV.v.v.;.2.q.2.<.2.i.<.9.| -.9.8.8.8.q.q.q.q.w.q.q.w.e.v I U K U I U U ",
"I K F u p d / j.k.k.k.k.f.f.k.l.N.A.c.:X<X<X2X<X<X,XS.v.v.q.h.2.:.;.<.:.8.8.:.:.:.>.>.$.8.&.9.q.q.q.q.q.h.q.1.O.G J J d h h h I ",
"J L F u t d S 5.k.k.k.l.k.k.f.s.k.i.p.Z.A.;X>X>X;XV.t.q.i.q.2.p.p.;.;.i.&.$.$.$.$.$.&.&.$.:.8.9.q.q.q.q.q.w.4.H.a h d h i i d h ",
"F F F A q a h K.j.k.k.k.k.k.k.k.g.i.f.g.k.z.M.M.h.d.u.&.,.,.,.,.,.%.#.#.%.%.$.$.$.&.$.&.$.>.>.8.w.q.q.q.w.w.O.C d a J a d h h K ",
"g p w w r w y m o.k.f.k.k.k.k.k.k.k.g.f.f.f.s.u.*.&.&.%.&.&.&.%.&.&.#.%.%.%.#.%.$.&.$.$.$.$.$.,.q.q.q.w.w.r.c w q q q w 3 q q r ",
"f i i s i i i 3 / a.k.g.g.k.k.k.k.k.k.k.k.k.u.&.&.%.%.%.%.%.%.%.#.&.#.&.%.%.%.$.%.%.%.$.$.$.$.>.<.q.q.r.e.F.F h w u s s h d J u ",
"g s i g i i f 9 S P.j.g.f.g.k.k.k.l.k.l.k.f.u.u.&.%.%.%.%.%.&.%.&.&.%.&.%.%.%.%.%.%.$.$.$.$.$.>.8.q.r.r.T.S f f q s f d h u d d ",
"i f f s s i s 3 u H E.j.k.f.f.k.k.k.k.k.l.s.&.&.%.%.&.#.%.&.&.%.&.&.%.&.%.%.%.%.%.%.$.%.$.$.%.&.0.e.t.e.~ i d h r h h f h i s f ",
"7 7 i 7 i 7 i 0 6 7 C 5.l.f.f.f.k.k.k.k.k.d.&.&.&.&.%.%.&.&.&.%.%.&.%.&.%.%.%.%.%.$.$.%.$.$.%.:.e.t.1.F.h i f d q a f f d f f i ",
"f f i i d i i w u s i ( 5.l.k.f.f.f.f.k.k.s.&.&.&.&.%.%.&.&.#.%.%.%.%.%.%.%.%.%.%.%.$.$.$.>.1.e.t.0.T.G f s h h r i h h i s s i ",
"u a u u u u u 9 y y p y B ..l.l.k.k.f.k.f.f.u.&.&.&.%.%.&.&.&.%.%.%.#.%.%.%.%.%.%.%.$.$.:.-.-.t.0...C p u a a a : t a p a u u y ",
"A w p w w r w w q r r 9 w Z H.a.C.k.k.k.g.f.u.u.*.%.%.%.&.&.&.%.%.%.%.%.%.%.&.%.%.%.:.1.-.0.0.-.T.B e r r r t t r r t : r t w w ",
"a p K i g h d g f g u w i i a c 4.C.z.l.l.g.g.u.*.*.&.%.&.%.&.&.%.%.%.%.%.%.&.,.,.9.-.r.w.0.3.L.A a e K h h L K h h h r f h h s ",
"p t L g g g g g u g a 1 u 8 i 8 C R.6.C.M.z.z.l.f.i.u.u.%.%.%.&.&.&.&.,.,.:.1.q.k.w.0.r.-...~ i i s r K K K K K K h h r a K L h ",
"F S R U I I g i f g 8 < 7 8 i i 7 u ! R.a.l.z.M.Z.C.l.h.i.u.<.8.s.,.d.h.q.0.0.j.z.0.-.+.v a 7 i i u r d d d f d s i f q a h h h ",
"E T U U I h 7 7 i 7 5 , 5 = - 5 - = 5 6 l R.4.c.C.M.M.Z.C.z.l.l.j.l.l.z.l.j.0.r.6.G.c e 7 7 7 8 8 4 3 8 i 8 8 8 8 4 7 > 4 7 7 7 ",
"Y E U U L i 7 7 7 5 2 , 5 - = 5 - - 5 5 , 6 S ~ L.R.7.t.b.v.v.C.v.C.l.t.e...G.l n 3 - 5 7 8 7 8 7 4 , 8 8 8 8 7 7 7 7 , 7 7 5 - ",
"r , 4 6 2 2 2 * * * # + * * 2 = * = - 5 > 6 5 - = 2 : : n j x x x x j m : 1 * * + * 2 4 6 y 6 6 6 6 > 6 6 6 4 4 6 4 4 < 4 6 7 4 ",
"2 # # # #     @ @ O O O O O O   X O o + X O O o X o X O O o o O O o o O @ O O O   O @ @ X @ @ O + + + @ X + + # , , , + > > ; < ",
"5 5 = = = # $ & & & & & & & & O $ & & & % % % % o $ & & % & & & & O % & = = = = & = = * @ % = & = = = & @ % & = = - - = 5 - < 8 ",
"7 7 7 7 5 # * = = & = = = = & @ $ & & - - - = = o & & & & & = & = O % & & - = = = = = * @ = = = = = - = @ % & = = = = - - 7 q K ",
"U I K 7 5 , 2 = = = = = = = = # $ = & = = - % = + = = & & = - & = O % & = - = - - - = 4 @ = = % & = = = O * 5 - 5 5 - 7 4 u q h ",
"I L I L F p i i i 7 5 5 7 7 7 2 4 7 5 - 5 5 7 7 > 4 7 8 5 7 7 7 8 1 6 5 5 5 6 7 7 7 8 4 > 7 5 5 - = - - , 4 7 7 8 7 8 7 8 s w d ",
"L I I K f w i i i 8 7 8 i i i 3 3 8 8 i 8 8 i 8 9 8 i 8 8 8 i i 8 1 7 7 7 7 7 7 7 7 i 3 1 8 7 7 7 7 7 7 1 u i i d i i d i a r h ",
"I I L L f 9 u u 7 i 7 i i i f 3 y 7 8 8 7 i 8 7 < y 8 8 7 4 7 8 7 1 4 5 7 7 7 i i 7 8 6 3 7 7 7 5 5 7 7 > u 8 8 s i h K J h A h "
};
