/* XPM */
static char *_4a4dffeb665425dc88f0bc17b264821ZHto2EKTy91RipWn[] = {
/* columns rows colors chars-per-pixel */
"64 64 235 2 ",
"   c #DE7E18",
".  c #E27E14",
"X  c #9F7E77",
"o  c #DD801E",
"O  c #E98315",
"+  c #E78319",
"@  c #E5831B",
"#  c #EA851A",
"$  c #F08614",
"%  c #F58915",
"&  c #FA8C15",
"*  c #F58C1B",
"=  c #FA8E1A",
"-  c #FB901E",
";  c #DB8528",
":  c #DD8D37",
">  c #E58723",
",  c #E68926",
"<  c #EA8B24",
"1  c #E58C2C",
"2  c #E98D2B",
"3  c #F18E23",
"4  c #F88F20",
"5  c #EC912E",
"6  c #F49126",
"7  c #FA9223",
"8  c #F4932C",
"9  c #FA962B",
"0  c #FB982E",
"q  c #E58E32",
"w  c #E58E34",
"e  c #E69135",
"r  c #EA9234",
"t  c #E5933B",
"y  c #EA953B",
"u  c #EE993D",
"i  c #F39633",
"p  c #F59835",
"a  c #FB9B34",
"s  c #F29739",
"d  c #F49B3B",
"f  c #FB9D38",
"g  c #FA9D3A",
"h  c #FB9E3B",
"j  c #FB9F3D",
"k  c #FBA03E",
"l  c #BB875B",
"z  c #9D817A",
"x  c #BA8B67",
"c  c #A88C78",
"v  c #B89270",
"b  c #B59979",
"n  c #B4A17E",
"m  c #C9874A",
"M  c #D58D47",
"N  c #DA934A",
"B  c #C58956",
"V  c #D18F54",
"C  c #CA985B",
"Z  c #D89554",
"A  c #D49B5A",
"S  c #E39543",
"D  c #E69847",
"F  c #EA9944",
"G  c #EB9D4B",
"H  c #F39E42",
"J  c #F69F43",
"K  c #E49D55",
"L  c #EFA04D",
"P  c #F6A145",
"I  c #FBA142",
"U  c #FBA243",
"Y  c #F5A34C",
"T  c #FBA64A",
"R  c #FBA84F",
"E  c #EBA357",
"W  c #F3A654",
"Q  c #FBAB54",
"!  c #F3AA5C",
"~  c #FBAE5B",
"^  c #FBB05F",
"/  c #C79667",
"(  c #CC9769",
")  c #C9A06C",
"_  c #D2A164",
"`  c #FCB161",
"'  c #F3B26E",
"]  c #FCB569",
"[  c #6B749E",
"{  c #787A9A",
"}  c #6C78A3",
"|  c #84798F",
" . c #78839F",
".. c #5C89BD",
"X. c #7A95AE",
"o. c #6887B8",
"O. c #7A8AB9",
"+. c #6C91BB",
"@. c #7997B3",
"#. c #7CA3B8",
"$. c #3480D9",
"%. c #3B91D7",
"&. c #3A93DB",
"*. c #3A93DC",
"=. c #3F99E0",
"-. c #5C8BC1",
";. c #4F98CF",
":. c #5A99CA",
">. c #4389DB",
",. c #4996D6",
"<. c #4297DA",
"1. c #4499DD",
"2. c #4C9CDD",
"3. c #559DD4",
"4. c #519EDF",
"5. c #6889C8",
"6. c #6797CB",
"7. c #7798C9",
"8. c #689BD8",
"9. c #7399D4",
"0. c #4EA2DE",
"q. c #55A1D7",
"w. c #5DA1D5",
"e. c #54A4DD",
"r. c #5AA5DB",
"t. c #6AA4CA",
"y. c #76A8C9",
"u. c #62A5D4",
"i. c #65A7D9",
"p. c #78A7D8",
"a. c #449CE2",
"s. c #4B9DE2",
"d. c #5599E3",
"f. c #649DE3",
"g. c #47A2E5",
"h. c #4CA2E3",
"j. c #4CA6E9",
"k. c #4FA8EA",
"l. c #53A3E2",
"z. c #59A6E5",
"x. c #54AAEB",
"c. c #5AADEC",
"v. c #5EB1EE",
"b. c #5DAEF0",
"n. c #63A3E5",
"m. c #68ABE9",
"M. c #72A6E9",
"N. c #77ABEA",
"B. c #62B2EE",
"V. c #6CB5EC",
"C. c #75B6EB",
"Z. c #7DB3EE",
"A. c #75BAEF",
"S. c #65AFF0",
"D. c #67B6F1",
"F. c #76BBF2",
"G. c #79BBF1",
"H. c #7EC0F2",
"J. c #928E8F",
"K. c #8E9C9B",
"L. c #959A97",
"P. c #A59587",
"I. c #A6918E",
"U. c #9CA094",
"Y. c #93A19E",
"T. c #99A39C",
"R. c #AAA189",
"E. c #B2A892",
"W. c #8C90A6",
"Q. c #8896A6",
"!. c #839AB7",
"~. c #8EA1A5",
"^. c #89A3AB",
"/. c #93A3A3",
"(. c #98A5A3",
"). c #93A6AA",
"_. c #98A8A8",
"`. c #99A9AA",
"'. c #85A5B4",
"]. c #95ADB6",
"[. c #9AB2BB",
"{. c #A7B5B6",
"}. c #B1B8B4",
"|. c #CDB38F",
" X c #CBBEA8",
".X c #CDC3B0",
"XX c #D3CBBB",
"oX c #94B5C7",
"OX c #8BAFD4",
"+X c #99B3D7",
"@X c #96BBD5",
"#X c #83B5EC",
"$X c #8BB0E8",
"%X c #83BBEE",
"&X c #85BBF1",
"*X c #89BDF0",
"=X c #9BC2DA",
"-X c #ABC7D6",
";X c #8BC2EC",
":X c #97C5E6",
">X c #9ACAEC",
",X c #83C3F3",
"<X c #8CC5F3",
"1X c #8EC8F4",
"2X c #92C5F3",
"3X c #95CCF5",
"4X c #99CEF5",
"5X c #9DD0F6",
"6X c #9FD1F8",
"7X c #A7CBEC",
"8X c #B2CEEB",
"9X c #A3D3F6",
"0X c #A8D6F8",
"qX c #ADD8F9",
"wX c #B5DAF6",
"eX c #B4DCF9",
"rX c #BBDEF9",
"tX c #BEE0F9",
"yX c #CAD1CF",
"uX c #D4DAD8",
"iX c #C9DBE7",
"pX c #CCDEEE",
"aX c #CDE0ED",
"sX c #D4E1E8",
"dX c #C9E2F5",
"fX c #C4E3FA",
"gX c #CBE6FA",
"hX c #D4E6F3",
"jX c #D4EAFB",
"kX c #D9EDFD",
"lX c #E3F2FC",
"zX c #EAF5FD",
"xX c #EFF8FD",
"cX c #F3F9FE",
"vX c #FAFDFE",
/* pixels */
"~ Q R T U k d t U I k f k f f f f s r j f a f a f f f s r f a f f j f I k k k k k a q k k a a k k U U T k y U U U U k k k U k P ",
"~ Q Y T f P P t d J P s s d s s f r y f p a j f a p a i 2 p 8 i p p d d d p d p i s : p i 8 i p k u s u u : F k s u i p a k a p ",
"W G D F e t S t r r t w r r r r r q w w q 1 w w q 1 1 ; 2 5 5 2 2 r r r r r r t e e e e 5 5 e r r r r r y y t y y r y y e e t e ",
"T T I J f k k f f a f 2 a a a k f 0 f a 0 a f f f a i r a f f f f f f a f k f k y p k a a k k 0 k k k k k k t k k k k k k k k k ",
"I T U I f U I f f f f q f k 0 k f f j f g g f f f f d y f f 0 f f 0 a a I j f f e k a a f f a a 0 k k a a a e a a k k k k k k f ",
"U I I f I I f f f k p e f a f a a f f a a a g f a a i r j f a k j f a f f j f f e s k 0 0 a a f 0 9 9 9 0 a q a 9 0 7 0 0 a a 0 ",
"f f f a f f f a a a 8 r a a k a f H g f a g f a a a i 5 a f f a a f 0 0 0 a f a 5 i a 0 0 a a 9 0 0 - - 7 9 , 8 7 - 7 0 a 0 0 7 ",
"U U I j I I I f f k d 5 f k f k f j H g f g J J a f i 2 0 f k k a f k f a a a f 5 8 9 9 9 f 9 7 0 9 - - 7 9 , 7 7 7 9 0 0 0 9 9 ",
"J J J h a H H d s d y q s f p F Z K P s s F J J H G M B / / x x B V N w r 8 2 <   > , , 1 1 < 2 < < < < 2 2 ; , < 2 r 5 1 5 5 q ",
"J J F F t F F H u y y y u M X O.!.O.B y s D V | { O.5.8.f.f.n.n.n.8.5.5.| J.B 1 3 6 8 8 5 e i i 8 3 8 8 i 8 8 8 8 e r p p i 8 p ",
"Q R T T F H H H U k k d / 5.N.&X9.O.m D | | f.M.&X2X6XqXeXrXtXtXeXeX9X3X&XV.i.O.P.N p 0 r 8 0 a f 9 9 0 0 f a a 0 5 i a f f f f ",
"Q R T R D H f J U k f c 9.1X3X#XOXx I.OX$X7XwXpXlXzXzXlXkXjXjXjXjXjXjXjXgXfXeX3XZ.9.| B t 8 0 9 9 9 0 f 0 a 0 0 a r i 0 0 a 0 0 ",
"T h h R G J g J J J x 9.N.*X6X0X$XOX7XfXlXcXvXvXvXvXvXvXvXzXjXjXjXjXjXjXjXjXhXhXdX4XOXo.{ l 0 0 9 9 9 9 0 a 0 9 0 2 0 a a 9 9 9 ",
"J g g J S a g J J J x 5.| 9.*X$X7XjXzXcXcXvXcXcXcXvXvXvXvXvXlXjXjXjXjXjXhXhXsXsXhXsXyX-Xi.} | D 0 0 a p f k f a f r d k k f f f ",
"I J h h S g j f J a J S s { #XeXzXvXvXcXcXcXcXxXxXcXcXcXvXvXzXjXjXjXjXjXhXsXuXuXuXsXuXuXrX@X+.{ A k k k f f f k I S Y U U U U T ",
"f f f h w g a a f a a J v $XrXzXcXvXcXcXxXxXxXxXcXcXcXvXvXvXlX0XgXjXjXjXhXsXXXyXXXyX.X|.yXyX{.@.} B a a a a f I k y P T U T U U ",
"F F F y : t r q : w q v p.9XzXcXcXcXcXxXxXxXxXcXcXvXvXcXvXcX0XA.4XwXwXtXtXaX.X.XXX|. X XyXn |.P.@.} l , 2 2 q q q : e e y S F S ",
"Q R U J J J h h w i c 9.3XjXzXcXcXcXcXxXcXxXxXcXcXcXcXcXzXwXV.B.H.H.H.1X5X5X-X}..X|.|..XXXC x C n @.[ m 9 9 i 9 i 9 8 q i s U R ",
"U h h f a f h h 2 / 8.1XfXjXlXzXxXcXxXxXcXcXcXcXxXxXxXjX9XA.V.,X1X1X1X1X>X1X1X:X=XE.E..X|.A C C A n X.{ M 9 9 a 0 f 9 5 f f U T ",
"J I h h f f f a V 7.&XfXgXgXjXkXlXzXzXzXlXlXzXzXzXjX0X,XF.G.1X4X4X5X5X5X:X:X1X;X=X=X[.E.E._ C C A A P.X.| s 9 0 9 9 i q f T T Q ",
"f g a a a f 0 g W.N.rXgXgXgXgXfXtXwXwXwXwX9X4X2X,XG.F.G.,X4X4X4X4X4X5X4X>X>X>X>X=X=X#.[._.U.n ) _ _ _ T.X.z f f j j U F Q ~ ~ ~ ",
"j a a a 0 0 a ( f.3XgXgXgXgXfXqX5X4X,XG.A.A.G.G.H.,X3X3X6X4X4X4X4X4X5X4X>X>X>X>X[.[.].].].~.Y.n ) _ _ ) ^. .Z f U j ! E ~ ~ ` ` ",
"J j g a a f f W.F.tXgXgXgXtX0X3X3X4X3X3X3X3X3X4X4X4X4X4X4X4X4X4X5X4X4X4X=X>X:X=XoX]./.(.T.).~.Y.R.C C C {.#XU.d j I Y K T Y Y U ",
"W Y J g p a ( 8.4XgXgXgXtX9X3X1X3X3X3X3X3X4X4X3X4X4X4X4X4X4X4X4X4X4X4X>X>X>X:X[.].Y.K.K.K.K.Q.'.^.U.x C U.i.-.m < 2 q ; < q 2 q ",
"W D F y w w W.N.rXgXgXrX9X4X1X3X3X3X3X3X4X3X4X4X<X<X4X4X4X4X4X4X4X4X4X4X4X>X9X7X{.{.L.L.L.(./.Q.#.#.U.v L.q.*.J.8 6 , < - 7 - 7 ",
"] Q h i r F 7.*XgXgXfX9X4X1X4X3X3X3X3X3X3X4X4X3X#X*X3X4X4X4X4X4X4X4X4X9XeXfXhXjXpX8X}.T.(.L.U.K.Y.#.^.R.U.q.0...S 9 1 8 9 0 0 0 ",
"' ` Q G H ( n.9XgXfXqX4X3X1X3X3X3X3X3X5X4X3X4X<X&X2X#X4X4X4X4X4X4X5XqXgXkXkXkXkX7X7XyXU.T.L.U.L.U.Y.'.~.^.q.0.;.x - > 9 0 0 a f ",
"|.~ Q W W I.V.eXgXrX4X3X3X3X3X3X3X3X3X3X4X3X3XZ.2X4X#X2X4X4X4X4X3XqXjXkXkXkXdXaX$XdXiX_._.(.(./.).T.^.#.#.0.h.,.J.9 1 f T U T R ",
"^ Q Q W W !.F.tXfXqX3X3X2X3X3X3X3X3X3X3X3X3X<XZ.3X5X<XZ.4X4X4X4X4XfXjXkXkXdX-XoXN.aXaX{._._._.~._._._.^.u.h.0.0.X.P y T Q ~ Q ~ ",
"Q Q Q L E !.&XfXrX4X3X3X3X3X3X3X3X3X3X3X5X3X#X,X3X3X3XN.<X4X4X4X9XfXkXkXkXwX>Xm.;XtXaX{.)._._.).)._._.].r.g.h.e.o.A L T Q Q Q ` ",
"~ W G N _ 9.<XgXqX3X3X3X2X3X3X3X3X3X3X3X3X1XN.2X3X5X3X<XN.4X4X4X4XqXgXkXkXtX;X6.oX8XiX_.~.~.~.~.~.~.~.#.h.g.h.e.-.x N E K E E ' ",
"T Y Y U _ 9.2XfX9X3X3X3X3X3X3X3X3X3X3X3X4X,XZ.5X3X3X3X3XM.*X4X9X4X4XqXgXkXjX$X'.].iX-X_.(.(.(.T._.T./.t.h.h.e.l.-.) Q ! ! ` _ ' ",
"` ~ Q T E 8.,XtX4X3X1X3X3X3X3X5X3X3X3X3X3XM.;X5X4X3X3X4X*XM.4X9X6X4X4X6XrXfX*X8X8XsX}.(.(.(.(.T.(.T.#.q.k.e.e.e.:./ R Q Q Q E ~ ",
"` ` ` Q E 9.D.4X4X1X3X3X3X3X3X3X3X3X3X3X<XN.3X3X3X3X3X4X4XM.*X5X6X0X0X6X3X3X+XuXiX{.(.T.T.T.T.(.T./.u.e.e.e.e.e...v T T R R G Q ",
"` ~ Q Q Q @.b.F.1X1X3X3X3X3X5X4X3X3X3X3XN.&X4X4X4X3X3X4X4X*XM.4X9XqX0XqX9XZ.OX_.(.Y.Y.Y.T.T.T.T./.t.e.e.e.e.0.e.../ I I R W G Q ",
"Q Q T T T ).c.B.F.,X3X1X3X3X3X3X3X3X3X1XM.2X3X4X3X3X3X3X4X3XM.&X0X0X6X0X4XZ.:X_.(.Y.(.T.(.T.T./.t.e.e.e.e.e.e.e...Z f k T Y G Q ",
"Y P d H F P.c.v.D.H.,X1X3X3X3X5X3X3X5XG.C.3X3X3X3X3X3X4X>X3X<XM.5X0X0X7X$X*X=X/./.K./.Y./.T.'.t.e.0.e.q.e.e.0.r.o.D k U U Y L Q ",
"W G F S t / n.v.b.B.D.H.1X3X3X3X3X3X3XM.;X4X3X4X5X3X3X3X3X4X3XM.%X4X3X;XZ.<X@XoX[.T.Y./.K.#.u.e.k.e.r.e.e.e.0.q. .N D G G D N E ",
"Q T T d u E i.c.v.c.v.B.D.,X1X4X3X3X#XM.3X3X>X4X>X3X4X4X4X2X<XC.d.C.N.m.n.m.S.i.y.#.~.'.t.r.e.0.e.r.e.e.e.e.e.u.J.U T T T Y Y Y ",
"R U T H d I !.x.x.c.x.k.x.b.F.&X1X3XN.#X>X3X4X4X4X3X3X<X,XC.m.n.>.4.z.2.4.h.2.d.q...:.;.0.0.0.e.e.e.e.e.e.e.r.+.b T T T T T T T ",
"U U I s s k ) z.x.c.x.k.k.k.x.b.F.F.n.<X3X3X4X3X4X2XG.m.i.z.l.4.2.>.2.,.0.2.,.,.<.,.%.&.1.0.0.e.e.e.e.e.e.e.w.+.E k k k k f I Y ",
"P U J i u f G 7.x.x.x.x.x.k.j.j.x.s.d.D.F.,X<X3X&XC.m.e.4.2.4.4.4.>.>.d.1.%.<.%.%.%.&.&.&.,.,.q.e.e.e.e.e.e.8.J.k k f I f a f k ",
"J P J y t s f b z.k.x.x.x.x.x.x.j.a.j.k.x.c.B.B.z.s.1.a.1.2.a.a.>.&.$.&.*.*.$.&.%.&.&.&.%.%.<.0.r.e.e.e.r.r.+.A f f d d g h I I ",
"f s y t y r t M @.x.k.k.x.x.x.x.x.x.k.k.j.j.j.=.*.*.&.*.*.*.%.*.&.&.&.&.*.*.%.&.%.&.%.%.%.%.%.1.e.e.e.q.r.u.v r : e t e q r t t ",
"f f a f a a f 2 ( f.x.k.k.x.x.x.x.x.x.x.x.k.a.=.*.*.*.&.&.&.&.&.*.*.&.&.&.&.%.%.%.*.%.%.%.%.%.<.0.e.e.u.t.L.f k e f f a f f j f ",
"f f a k a a f e G U.z.k.j.k.x.c.x.c.x.c.c.j.a.*.&.*.*.&.&.&.&.&.*.*.&.*.&.&.&.&.*.%.&.%.%.%.%.1.0.e.u.u.Q.F k f t f j P j f j f ",
"f f f f f f f r p G !.x.k.j.j.k.c.x.x.x.c.g.a.%.*.*.&.&.&.&.&.&.&.*.&.*.&.&.&.%.*.%.&.%.%.%.*.*.q.t.i.t./ f k f e f f j f f f f ",
"9 0 f 7 a 9 9 r 9 0 Z 7.c.k.j.j.k.x.x.x.x.h.*.*.*.*.&.*.*.&.*.*.&.*.&.&.&.&.&.&.*.&.%.*.*.%.%.3.t.i.w.J.d f f k t s f f j f f f ",
"f f f a f a a r p a p A 7.c.k.j.j.j.j.x.x.g.=.*.*.*.*.*.*.*.*.&.&.*.&.*.&.&.&.*.&.%.%.%.&.<.;.t.i.w.X.E k f k k e a k k f a k 0 ",
"f i i p p p p e i 8 p i Z @.c.c.x.j.j.x.x.j.a.*.*.*.&.&.*.*.*.&.&.&.&.*.&.&.&.*.&.&.&.%.,.:.u.i.u.X.Z p s f d d : u d d s s s p ",
"u r y r y y r t y y y : r S L.f.S.c.x.j.k.j.a.a.*.*.&.&.*.*.*.%.&.&.&.&.&.%.&.%.*.*.,.;.:.w.u.:.Q.V e y r y F y t u y : r s r r ",
"s u k f f k a k f k f e f f s v 6.B.b.b.x.x.k.a.a.=.*.&.*.*.*.*.&.&.&.*.*.*.*.1.a.3.:.u.r.w.-.P.F f t I k k U I I k k y I k k k ",
"u u I f k I k f f f f q a 0 f 0 Z W.8.D.B.b.b.b.j.s.a.a.&.&.%.=.*.*.*.1.1.,.3.l.z.r.r.u.:.X./ a f a y U I I U U U I I y k P I k ",
"Y G Q R R I f f f f a 2 0 9 0 0 0 p / W.n.b.B.V.D.B.c.l.s.a.a.2.a.2.h.z.r.q.3.z.v.w.6.+.b u 9 a a s r k f f f f f a a e d k k k ",
"E W Q R R f 9 9 a 0 6 < = 7 7 7 - * = 9 x W.6.z.S.S.D.D.S.c.c.c.c.c.c.c.c.z.u.u.6.Q.v t 9 0 9 0 9 9 , 0 a 0 0 0 0 9 9 @ 9 9 7 9 ",
"W W Q R I f 9 9 7 7 3 < 7 = = 7 - - - 7 , 0 D / I.W.8.i.M.m.V.S.m.m.c.n.6.@.J.x m 6 - 7 0 0 7 0 9 9 , 0 0 0 0 9 0 7 9 > 9 9 7 7 ",
"y 2 8 8 3 2 * * < * # > * * * * * * 7 7 , 8 7 * - # : : m l c c c c l M t , * * @ * 6 6 8 p 8 8 8 5 < 8 8 8 8 6 8 8 6 1 6 9 9 8 ",
"3 # # # # . . # # + O # O O # . + + + + o + O O o + O O O O O O O O O @ + O O O + + + @   # # # # @ @ # o @ # < , < < @ , , ; , ",
"7 7 * - - # * & & & & & & & & O $ & & % % % & & O $ & & $ & & & % O $ & & & = & & & & % # & & & & = = & @ % & & & - - - 7 * , p ",
"0 0 9 9 7 * * & & & = = & = & # $ & & - & * - = + % & & & & = = & O % & - - - = - = - * @ = = = = = - & # % & = = - & = - 9 e I ",
"T U I 0 7 < * & = * = = = = = # $ = & = & - = * + * % = & = = * = # % = * - - - 7 - = 3 @ - & % & & = - # * 7 - 7 7 7 9 7 p e I ",
"I T T I I y g f f 9 7 7 0 0 9 2 3 9 7 - 9 7 7 9 > 9 9 9 9 7 9 9 9 , 8 - 7 7 9 9 7 9 0 8 < 9 7 7 7 = - - # 6 0 7 0 9 9 0 0 a e f ",
"T U T U h r i f a a 9 9 a a a 8 i 0 0 a 0 0 a 0 q a a 0 9 0 a a 0 5 8 9 9 9 9 9 0 9 0 5 2 0 0 9 9 9 9 7 1 p a a f p f a f d t k ",
"T R U U k 1 i f 9 9 a a 9 a f 5 5 0 0 0 0 0 0 9 1 0 0 9 9 9 9 0 9 , 6 9 9 9 0 0 a 0 0 8 5 0 9 9 7 7 9 0 1 0 a 9 f a k k I I F k "
};
