/* XPM */
static char *_913b3ce2ea74a80e54affc1ed036bb5bPNHxqB9JmUtPDJh[] = {
/* columns rows colors chars-per-pixel */
"64 64 234 2 ",
"   c #BD463A",
".  c #BE4A3D",
"X  c #BF503E",
"o  c #DE7E18",
"O  c #E27F15",
"+  c #C1563F",
"@  c #DA7A3B",
"#  c #E57F31",
"$  c #BE4D41",
"%  c #BE5245",
"&  c #BE5548",
"*  c #BF5B4B",
"=  c #BF5E51",
"-  c #BF776D",
";  c #C04F44",
":  c #C15643",
">  c #C25A45",
",  c #C05749",
"<  c #C25D4B",
"1  c #C15E50",
"2  c #C25C56",
"3  c #C4614D",
"4  c #CB6A4D",
"5  c #CD7549",
"6  c #D37B43",
"7  c #D67948",
"8  c #C26253",
"9  c #C86855",
"0  c #C4635B",
"q  c #C56B5A",
"w  c #C97756",
"e  c #CC755C",
"r  c #D27A53",
"t  c #D27B5A",
"y  c #C66764",
"u  c #C56B63",
"i  c #CB6D64",
"p  c #C57466",
"a  c #CB7465",
"s  c #C97A66",
"d  c #C4756C",
"f  c #CC736B",
"g  c #CC7C6B",
"h  c #D1766C",
"j  c #C77873",
"k  c #CB7D73",
"l  c #CA7D7A",
"z  c #D17B74",
"x  c #D37E79",
"c  c #DD801E",
"v  c #E68116",
"b  c #E98316",
"n  c #E5841B",
"m  c #EA851A",
"M  c #EB881E",
"N  c #F08614",
"B  c #F58915",
"V  c #FA8C15",
"C  c #F58C1C",
"Z  c #FA8E1A",
"A  c #FA901E",
"S  c #DB8528",
"D  c #DC8A37",
"F  c #DE8C36",
"G  c #E48624",
"H  c #E78926",
"J  c #EA8B24",
"K  c #E58C2C",
"L  c #E98D2C",
"P  c #F38E22",
"I  c #F38B26",
"U  c #ED912E",
"Y  c #F49026",
"T  c #FA9224",
"R  c #F4932C",
"E  c #FA962B",
"W  c #FB982E",
"Q  c #E58E31",
"!  c #E98D32",
"~  c #E4873B",
"^  c #EB8C3C",
"/  c #F08E37",
"(  c #E69135",
")  c #EA9234",
"_  c #E5933B",
"`  c #EB953B",
"'  c #EE993E",
"]  c #F39633",
"[  c #F99534",
"{  c #F59835",
"}  c #FA9B34",
"|  c #F2933A",
" . c #F59A39",
".. c #F49B3B",
"X. c #FB9D38",
"o. c #FA9D3A",
"O. c #FB9E3A",
"+. c #FB9E3B",
"@. c #FB9F3C",
"#. c #FBA03E",
"$. c #FBA03F",
"%. c #DE8C4C",
"&. c #D98658",
"*. c #E58945",
"=. c #E59544",
"-. c #EA9542",
";. c #EA9A44",
":. c #E89749",
">. c #EA9D4B",
",. c #F69645",
"<. c #F49D42",
"1. c #F89F41",
"2. c #F29B49",
"3. c #E68D5A",
"4. c #E89558",
"5. c #F39456",
"6. c #EFA04D",
"7. c #F6A145",
"8. c #FBA141",
"9. c #FBA243",
"0. c #FBA345",
"q. c #F6A34C",
"w. c #FBA64A",
"e. c #FCA84F",
"r. c #EDA353",
"t. c #E8A45A",
"y. c #F2A654",
"u. c #FBAA54",
"i. c #F4AA5A",
"p. c #FBAE5B",
"a. c #FBB05F",
"s. c #CE816F",
"d. c #D88968",
"f. c #CD8175",
"g. c #CC837C",
"h. c #CB847D",
"j. c #D68976",
"k. c #D48B7D",
"l. c #D9927B",
"z. c #E68C64",
"x. c #E08D7B",
"c. c #E59676",
"v. c #E3977C",
"b. c #E6997A",
"n. c #EEAC66",
"m. c #FCB161",
"M. c #FCB569",
"N. c #FABB77",
"B. c #C07E82",
"V. c #BD8A91",
"C. c #C78586",
"Z. c #CB8483",
"A. c #CD8B85",
"S. c #CD8C8B",
"D. c #D48C83",
"F. c #D78A87",
"G. c #DA8D83",
"H. c #CE918D",
"J. c #D59384",
"K. c #DB9382",
"L. c #DD9885",
"P. c #D5958C",
"I. c #DC958C",
"U. c #D6988D",
"Y. c #DA998D",
"T. c #C88E90",
"R. c #C29094",
"E. c #CC9393",
"W. c #CE969A",
"Q. c #CE989D",
"!. c #D39594",
"~. c #DE9692",
"^. c #D59A93",
"/. c #DB9A94",
"(. c #D5979B",
"). c #DD979A",
"_. c #D49A9C",
"`. c #DB9B9B",
"'. c #E18D83",
"]. c #E19984",
"[. c #E3978C",
"{. c #EA968D",
"}. c #E5988E",
"|. c #E9988B",
" X c #E19691",
".X c #E29992",
"XX c #EA9B94",
"oX c #E29B9C",
"OX c #D6A19D",
"+X c #DCA399",
"@X c #DBA39D",
"#X c #E6A28C",
"$X c #E4A492",
"%X c #E4A897",
"&X c #E4AA9C",
"*X c #CD9AA2",
"=X c #CD9BA8",
"-X c #D39BA1",
";X c #DA9EA1",
":X c #D5A3A4",
">X c #DAA4A3",
",X c #DEABA5",
"<X c #D4A6AA",
"1X c #D5A9AC",
"2X c #DBADAC",
"3X c #CFACB7",
"4X c #D3ABB3",
"5X c #DAAFB1",
"6X c #D1AEB9",
"7X c #DCB2B3",
"8X c #DFBAB8",
"9X c #E3ADA4",
"0X c #E1AFA9",
"qX c #E5B1A5",
"wX c #E4B3AC",
"eX c #E4B6B2",
"rX c #E4BAB6",
"tX c #E3BBBA",
"yX c #E8BFBB",
"uX c #E5C2BF",
"iX c #EBC3BB",
"pX c #E6C5C1",
"aX c #E8C7C2",
"sX c #E9C9C4",
"dX c #EBCBC7",
"fX c #F0CDC8",
"gX c #F2D2CE",
"hX c #F5D9D6",
"jX c #F7E1DF",
"kX c #F9E2DE",
"lX c #F6E4E2",
"zX c #FAE6E2",
"xX c #FBE9E6",
"cX c #FCECE9",
/* pixels */
"p.u.w.w.0.@..._ e.$.X.$.$.X.X.} $.] ) $.} } X.} } @.X.{ ) } } } X.X.X.8.8.$.$.$.@.{ ( @.8.X.} @.8.7.0.w.8.` 7.7.0.8.$.$.$.8.8.$.",
"p.u.w.q.8.@.<._ <.8.7.' ] ..' ]  .) `  .X.X. .X.} {  .R ( ] } ] { {  . . .{  .{ ] { ( ] ] R ] ]  .@. .' ' D ' $.]  .] ] { $.{ { ",
"r.>.:.;.) _ =._ ( ) _ ( ) ` ) ) ( K Q L K K ( ( L ( K S K U U L L ( ) ) ) ! ) ) D ) ` U U U ) ) ) ) ( ] ` ` _ ` ` ` ` ` ` ) ` ) ",
"w.w.8.8.} $.@.X.} } X.L } } } $.X.} X.} } } { X.$.} ] ) } } X.X.X.X.X.X.$.$.X.8.`  .{ } { @.8.} } $.$.1.8.@.) 0.0.$.$.$.$.$.$.$.",
"8.w.0.8.} $.8.X.X.+.{ ( } $.W $.X.X.+.+.X.X.X.X.X.} ..` $.} } X.X.W W } X.X.X.X.)  .@.} } X.} } } } X.X.} } ` { } $.$.$.{ $.$.X.",
"0.0.$.@.$.$.+.+.X.@.{ ( X.} X.} X.+.X.} } X.@.X.} } ] ) X.X.} X.@.X.X.} } } } X.) ] X.} } } } X.W W E E W } L { E E E W W +.{ W ",
"X.X.X.} +.+.+.} } } R ) } } $.} +.+.X.X.X.} @.X.} } R U } X.X.} { X.} } W } X.X.) ] } } E } } E } W A A T E K Y A A T W } W E T ",
"8.0.$.$.$.$.8.+.$.@. .U +.$.X.$.$.$.$.X.X.X.8.8.X.X.] ) } X.$.$.X.X.X.X.X.} X.} L R E E E } E T W E A A T E H T A E E W W W E E ",
"' 8.7. .] 8.0. .]  .] F  ...{ @. .......` ....<.<.<.` Q ] ] ] U U ] ` ) ) ) R J S G J J K L L L J M J L U L S J J L ( U U U L ( ",
">.7.;.6._ _ ;.;.;.` ` ) ` ) ` _ ` ` _ ` ` ` ) ` ' ` ` L ) ) I H K ] R U R R R J C Y R R L Q R { R Y I R R R R R R ) ) { ] ] ] ] ",
"e.e.w.w.:.8.$.0.0.$.$.+.X.@.8.X.+.2._ +.$.X.$.X.+. .| / ^ *.~ @ 6 %.:.<.[ W } E E W E } | R W { X.W W W } } } } W U ] W $.$.} X.",
"p.w.0.w.:.7.$.$.0.@.+.@.@.@. .=.d.j.g *.} X.] # @ 4 9 e a a a a a d d s s &.4.| W E T E L ] E E E E W } { } W W @.U ] W E } W W ",
"0.$.$.0.>.{ $.8.0.$.$.$.1.2.d.j.l.l.d._ ^ 6 q a s.I.%X9X9XqXqXwXqX0X&X$XY.k.Z.A.l.5.E T J U W E T T E W W } E E W K W } E E E E ",
"$.$.$.8.;.{ $.$.$.$.$.$.:.j.J.l.l.l.5 5 q D.qXgXhXlXhXhXfXyXeXeXeXeXeXeXeXwX9X`.P.Z.j.5.] ) X.X.} W X.{ +.+.} } X.)  .$.$.$.$.} ",
"0.8.+.$._ $.+.$.$.$.$.' d.J.k.J.K.s.q L.iXkXcXcXcXcXcXxXxXzXfXeXeXeXeXwXeXeXeXeX2X@XH.D.j.:.1.X.8.} $.$.@.+.$.$.8._ q.0.8.w.8.0.",
"@.@.} } ) { { W $.{ $.' &.d.3.l.l.l.iXxXcXcXcXcXcXcXcXcXxXzXjXyXwXeXeXwXwXwXqXwXwXqX0XOXJ.j.5.X.W $.} } +.W } $.$.;.8.w.0.0.0.0.",
";.;.;._ D _ ) ( D _ ( L ( ( 6 f.&XhXcXcXcXcXcXcXcXcXcXxXxXzXkX9X0XeXeXwXqXqX&X9XqXqX&XqX,XH.k.3.) L K K K L K ) ) D _ ( _ ;.:.;.",
"e.w.0.$.0.@.1.{ ) ] ] R U 5 p qXkXcXcXcXxXcXcXxXcXxXxXxXxXzXyXg `.,X0XwXwXqX$X&X#X%X#X&X%X$XE.k.3.| R Y [ E { R R R R K ] ] 7.w.",
"0.$.$.} } +.$.} K W W R &.f.+XgXxXxXxXxXcXcXlXlXzXzXlXzXgX9X2 , 2 0 y u D.,X#X&X#X#X$X&Xb.b.l.+XD.z.} E E } } } } } W ) } $.0.q.",
"@.0.{ $.+.} } $.( W { &.C.@XrXgXxXlXcXxXlXxXlXlXzXxXfXI.0 , 0 F.Q._.E.Z.y 0 g.^.L.#X#X$Xb.b.c.b.U.D.5.X.} E E E E E R ) X.w.w.e.",
"$.$.} { } +.E +.) [ *.f.oXeXtXyXhXlXkXjXjXjXjXhXsX~., : 9 z (.1X1X1X1X2X:XH.l C.OX+XY.].b.b.l.b.].U.l.5.X.X.} } $.$.7.=.u.u.p.p.",
"} @.W } E W } } L ^ s P.eXtXtXtX8XpXuX2XOXJ.k.s.0 % i C.(.<X<X1X1X1X1X1X<X1X1XOXOXOX/.Y.L.b.c.c.b.].!.z.,.X.X.$.8.$.i.t.a.a.m.m.",
"$.$.{ } } +.W W ! 6 l 0XtXtXtX7X7X6X6X1X:XE.E.C.& !.1X4X4X1X1X1X1X1X1X1X<X,X<XOX^.+X+X^.J.L.l.c.c.c.L.J.4.[ W X.$.$.e.>.7.w.q.7.",
"q.q.0.$.]  .] R S 9 ~.eXtXeXtX5X6X6X4X4X3X4X4Xj Z.4X4X4X1X1X1X1X1X1X2X1X:X<X:XOXOXU.U.U.OXY.J.l.c.c.].OXx.^ J J H K Q S K ( L U ",
"i.q._ _ Q ( ) ) 5 g wXrXeX7X5X4X6X6X6X4X4X4X1Xy _.4X4X4X1X1X1X1X1X<X1X<X<X<X:X+X+XJ.U.Y.Y.^.^.U.K.c.v.~.[.3.I T T Y H J A T A T ",
"M.e.1.` L W } ] 4 ^.eXeXeX1X4X3X6X6X6X4X4X1X<Xy *X4X5X4X4X1X1X1X1X1X1X1X,X2X7X2X&XY.J.Y.Y.Y.U.^.^.L.b.[.~.x.,.E E W L R E W E } ",
"N.m.e.q.;.@.X.*.p ,XrX7X1X4X4X3X6X6X4X6X4X4X4Xi A.6X4X1X1X1X<X1X1X<X1X7XuXuXiXuXuX9XY.U.U.U.L.^.^.P.].[. XG.*.T T Y J E W W } +.",
"N.m.w.r.r.0.X.7 g.7XeX2X4X=X4X3X4X4X6X4X4X4X4X!.2 !.4X4X5X<X<X1X<X5XuXuXsXsXsXsXsXwXY.Y.Y.Y.Y.Y.^.^.[.[.{.[.&.[ W W K +.w.8.w.e.",
"m.u.p.r.y.u.7.4 J.eXeX<X4X4X4X3X4X6X6X7X4X4X4X4XE.2 f S.;X<X1X1X2XpXdXdXsXuXuXsXuXiXY.Y.Y.U.U.U.U./.Y.|.{.{.d.2.w.7._ q.u.p.u.p.",
"u.u.e.6.q.w.2.q _.eX5X<X4X4X4X3X4X4X4X6X4X4X1X1X5X=XB.y 0 y f f j Z.I.>XuXuX7XpXuXrX+XU.Y././.U.Y./.Y.|.{.{.l.,.w.q.6.w.u.u.p.m.",
"i.y.r.=.:.6._ q @X7X1X<X4X4X4X3X4X4X6X4X4X4X1X1X5X4X5X<X-X(.A.B.C.F.k.f i k OXtXsXuX/.U.Y.U.^.P.U.U.Y.XX{.XXl.&.6.>.=.r.:.t.t.n.",
"e.q.q.6.7.` _ e >X7X<X4X=X4X4X4X4X4X4X6X4X4X4X4X4X4X4X<X1X1X4X<X<XeXpXpXeXg.8 ^.iXrX/.Y.U.U.U.U.U.U.[..X{.{.J.4.q.y.i.n.i.n.t.N.",
"m.p.u.w.0.@.| s >X5X<X4X4X<X4X3X6X4X4X4X4X4X4X4X1X3X1X1X1X1X1X1X<X<X2XtXdXaX/.i rXqXU.Y.I.U.U.U.U.U.~.}.{.{.G.4.w.u.u.u.u.u.r.p.",
"m.m.m.u.w.0.1.t `.2X:X4X4X4X4X<X4X4X6X6X4X4X4X4X4X1X1X1X1X1X1X1X1X4X4X4X7XrXrXp U.+XU.Y.Y.Y.U.Y.U.~.I.}.{.{.G.z.0.w.w.w.u.w.>.u.",
"m.p.p.u.e.w.<.t !.;X>X<X<X4X4X<X7X4X4X4X4X4X4X1X1X1X1X<X1X<X1X1XrXuXpX8X1X:X`.a i U.Y.U.Y.Y.Y.!.(.~.~.|.{. XG.3.@.8.0.0.e.w.>.i.",
"u.u.0.w.w.0.1.t P.-X-X-X:X<X<X<X1X4X4X4X4X4X4X<X1X1X1X<X1X1X1X1XtX8XtX8X1X1X@Xf.2 Y.Y.U.L.Y.P.W.^.[.U.|.{. Xj.*.} X.X.@.q.y.>.u.",
"w.q. ...' ` _ w Z.;X_.;X@X:X<X<X1X1X1X4X1X:XC.<X1X1X1X1X:X*XW.H.^.^.^.P.F.E.J.k 0 Y.J.I.P.!.Q.Q./.~.I.|.}.~.f.^ { $.$.0.0.q.>.u.",
"i.:.;.=._  . .*.f.`.-X-X`.`.>X<X1X1X1X<X1X:X0 S.1X1X*XT.h.p q q 8 8 8 8 8 0 q * 1 D.P.Y.!.*XQ./..XI.[.|.~.I.g _ ` _ :.:.:.>.:.r.",
"u.w.0...' 8.X.-.f !.-X).`.`.`.@X>X1X<X1X<X<XS.y W.H.s 8 * * * * * = < * * 3 * . * q f._.Q.Q./.I.~.[.[.[.~.G.t q.0.w.w.w.q.q.q.q.",
"w.w.w.<.| 1.X. .e A.=X-X).(.~.`.`.@X<X<X<X<X1Xy 0 q 8 * 3 = * = = = = = = = & . * * 0 B.*X^.~.[..X[.[..X~.k 5 w.e.w.e.0.w.w.e.q.",
"0.8.0. .` $.+.} 7 l *X=X_./.(./.`..X+X@X:X1X:Xd ; ; : = 3 8 8 = 8 = = = 8 & . * 8 = = - F.Y. X~.}.[.~. XJ.p *.@.$.$.$.$.$.$.$.0.",
"8.0.$.| ` 1.$.$.` p S.=X*X_./..X.X}..X~.`.`.S.q , + ; 2 8 = * * * * * * . . = 0 8 8 * 8 x ~.[..X{.~. X Xk.9 ' 1.$.$.$. .{ } $.$.",
"8.7...` ` { { {  .&.- W.=X-X(..X}.|.|.|.[.[.p < 3 < + ; * * * & & & X   . * * q 9 < < 2 z ~.[. X.X~.~.G.d 7 '  .$. .$.$. .$.$.$.",
"..' ` ` ` ` ) F _ ( d k.-X-X(..X}.}.|.|.{.x.4 < < < : +     . .     . X * 3 3 9 8 < < 8 z [.[. X.XoXI.g.w D _ Q F Q ( ( L _ ) ` ",
"$.} W X.} } } U { E *.f F.-X(.I.}..X.X{.{.x.4 < 3 3 > > : + + + X & > > > 3 3 3 = < & 0 G.[.oXoXoX~.k.f _ X.X.@.` } +.} 8.$.$.{ ",
"$.$.} $.} { } (  .} } &.k J.`.~.}.}.}..X.X'.9 > 3 > > + ; + + > > & > + > 3 3 3 < < 1 z  XoXoXoX XK.j %.X.X.@.@.) { @.@.$.{ +.$.",
"W X.$.X.X.X.X.) { } } { e l J.).Y.}..X}..X}.h < > < > > : + > : + + 3 3 3 3 > > : < f ).oXoXoXXXK.k 5 | X.X.X.@.( ..@.+.+.X.} X.",
"W T X.T } E E ) E } [ E / e l K.~./.I.}..XXX'.9 > > > > > : > > 3 3 3 3 > > & + < h  XoXoXoX XG.g.t | } } X.X.@.`  .+.+.+.X.X.X.",
"$.$.X.W X.} X.) W } } W E ) e g.D.~./.oXoXoXXX'.9 : : : : < < 3 < < < < < : < a F.oXoXoX XY.D.l e <.1.8.$.X.$.0.) X.@.X.@.X.X.} ",
"{ ] ] { { ] { ( ] ) ' ] R R Q r l A.Y..XoXoXoXoXF.h 9 < , , > > < < 9 i h x  XoXoXoX X!.J.D.d 6 | { .. .{ .. ...F ' ......] ] [ ",
"' ( ..) ) ` U ) ) ) ` F ] ) L ) *.g S.D.I.oXoXoXoX~.F.F.x z h k x '.F.oXoXoX`.`.).!.P.H.Z.p D Q ) _ F ` ) ` ` ` ` ` ` F ) ` ) ) ",
"' ] @.@.+.$.+.$.$.$.+.( } } } W W | r k S.A.P./.).`.oX).).).).).).).).).(.).Q.W.E.S.Z.k 7 ^ } $.@. .` 0.X.0.0.8.$.$.$.` 8.$.$.$.",
"' ' 0.$.$.$.$.$.X.@.X.K } } } E E } } ^ r j C.S.S.!.!.(.(.W.-X-X-X*X-XW.S.J.S.E.Z.d 5 ^ W } } } X. .` 0.8.8.0.0.8.$.$.` 8.8.8.$.",
"6.6.u.e.w.0.$.W } X.{ ! W E } } E E T E K ^ %.t j C.S.T.T.T.S.E.S.E.R.V.V.V.d d w ~ E W } W W } X.{ ) X.$.X.$.X.+.X.X.(  .$.$.8.",
"y.r.u.e.w.$.T T } W Y J T T T T Z T Z Z G Y T R I K 6 7 e h d j d d p q w @ ! U K T T T E W E W W I L E } } W E E T W H T T T E ",
"y.y.u.w.0.X.W E T T P J Z Z T Z T Z T T K E } E T A Z T I J S ! J I Y Y T A Z A M T T T E E E E E E J } E E W E W E T K E E Y T ",
"' L R T P J C Z P C M n C C Z C C A T T G R E A A C Z Z C P n Z Z C C C T C C C n J T Y { R R R R R G R R R Y Y R R R K Y Y T W ",
"P m m m m c v m m b b b b v n O v n v n o n v v o v v O v n v b v o v m m v b v v b b n c m n b n n G m c n M J J J J n H H S K ",
"T A A A A m b V V V V V V V V b N V V V V B B V O V V V V V V B V v B V Z Z V V V V V C b V V V V V V V b B V Z V A A Z T A K { ",
"W W E W T M C Z Z V Z Z V Z V m N V V A Z Z A V n B Z V V V Z Z Z v B V Z A Z Z Z A A C m A Z A V A A Z m B V V Z Z V A A R L 8.",
"w.0.8.W T J C Z Z Z Z Z A A Z m b V V V Z A V Z n Z V Z V Z Z Z Z b C V Z Z Z T T A C C m A V V V V V A m C T Z T T T T T +.( 8.",
"0.w.w.8.0.`  .} } W T T W E T I U T T T T T T E H Y E E T T E E E L Y T T T E E T E W R H E T T T A A A M Y E E W E W E W { ( +.",
"w.0.0.0.X.( { } } W E E } W X.U R } W { } } W W K } } } W } W } } L R E E E E E W E } R U E W R E E E T K { X.} $.W X.} X. .` +.",
"w.e.0.0.@.) R } E { } } } } X.U R W E } E W } W K R W E T E E } E J P E E E E E W E W U U W E E T T E W K W W E X.+.$.$.8.<.;.$."
};
