/* XPM */
static char *_2c5339a68ac4a1ff05232aaba0198b53X4MQospnByuCfPX[] = {
/* columns rows colors chars-per-pixel */
"64 64 228 2 ",
"   c #BD463A",
".  c #BE4A3D",
"X  c #BF503E",
"o  c #DE7E17",
"O  c #E17F16",
"+  c #C1563F",
"@  c #DA7A3B",
"#  c #BE4D41",
"$  c #BE5245",
"%  c #BE5548",
"&  c #BF5B4B",
"*  c #BF5E51",
"=  c #BF796E",
"-  c #C15642",
";  c #C25A46",
":  c #C15548",
">  c #C25D4B",
",  c #C15E50",
"<  c #C4614D",
"1  c #CD6E4C",
"2  c #CD7448",
"3  c #D37B44",
"4  c #D67949",
"5  c #C26253",
"6  c #C86856",
"7  c #C4635C",
"8  c #C56B5B",
"9  c #CB7857",
"0  c #CC755C",
"q  c #D27A53",
"w  c #D27B5A",
"e  c #C46C62",
"r  c #C86A65",
"t  c #C67466",
"y  c #CB7465",
"u  c #C87967",
"i  c #C3756C",
"p  c #CC736B",
"a  c #CC7C6B",
"s  c #D17B67",
"d  c #C77973",
"f  c #CB7D73",
"g  c #CA7D7B",
"h  c #D17C74",
"j  c #D37E78",
"k  c #DD811D",
"l  c #E68116",
"z  c #E98316",
"x  c #E5841C",
"c  c #EA851A",
"v  c #EB881E",
"b  c #F08614",
"n  c #F58915",
"m  c #FA8C16",
"M  c #F58C1C",
"N  c #FA8E1A",
"B  c #FA901E",
"V  c #DC8528",
"C  c #DC8A37",
"Z  c #DE8C36",
"A  c #E48625",
"S  c #E78926",
"D  c #EA8B24",
"F  c #E68C2C",
"G  c #EA8D2C",
"H  c #F38E23",
"J  c #F0892A",
"K  c #ED912E",
"L  c #F49126",
"P  c #FA9224",
"I  c #F4932C",
"U  c #FA962B",
"Y  c #FA982E",
"T  c #E58E32",
"R  c #EA8D33",
"E  c #E3873A",
"W  c #EB8C3C",
"Q  c #E69135",
"!  c #EB9234",
"~  c #E5933B",
"^  c #EB953B",
"/  c #EE993E",
"(  c #F39633",
")  c #F99534",
"_  c #F59835",
"`  c #FA9A34",
"'  c #FB9C35",
"]  c #FB9C37",
"[  c #F2943A",
"{  c #F69A39",
"}  c #F49A3B",
"|  c #FB9D38",
" . c #FB9E3A",
".. c #FB9E3B",
"X. c #FA9F3E",
"o. c #FBA03F",
"O. c #DE8D4C",
"+. c #D98659",
"@. c #E58A45",
"#. c #EA9542",
"$. c #EB9A44",
"%. c #E79649",
"&. c #EA9D4B",
"*. c #F49644",
"=. c #F49D42",
"-. c #F89F40",
";. c #F19B49",
":. c #E48D59",
">. c #E99458",
",. c #F39456",
"<. c #EEA04E",
"1. c #F6A145",
"2. c #FBA141",
"3. c #FBA243",
"4. c #FBA345",
"5. c #F6A34C",
"6. c #FBA64A",
"7. c #FBA84E",
"8. c #EDA354",
"9. c #E8A359",
"0. c #F2A553",
"q. c #FBAA54",
"w. c #F4A95A",
"e. c #FBAE5A",
"r. c #FCB05F",
"t. c #CE816E",
"y. c #D88A68",
"u. c #CD8175",
"i. c #CC837C",
"p. c #CB857D",
"a. c #D48C75",
"s. c #DC8C74",
"d. c #D48578",
"f. c #D48C7E",
"g. c #D9927B",
"h. c #E68C64",
"j. c #E08D7B",
"k. c #E59676",
"l. c #E3977C",
"z. c #E79979",
"x. c #EEAC66",
"c. c #FBB161",
"v. c #FCB569",
"b. c #FABB76",
"n. c #C07E81",
"m. c #BD8A90",
"M. c #C78586",
"N. c #CC8583",
"B. c #CD8A85",
"V. c #CD8C8A",
"C. c #D48C83",
"Z. c #D68A87",
"A. c #DA8C84",
"S. c #CE918E",
"D. c #D69384",
"F. c #DB9483",
"G. c #DD9885",
"H. c #D5958C",
"J. c #DC958D",
"K. c #D6988E",
"L. c #DA998D",
"P. c #CA8F90",
"I. c #CD9394",
"U. c #CB959A",
"Y. c #CE989C",
"T. c #D39593",
"R. c #DD9692",
"E. c #D59A93",
"W. c #DB9A94",
"Q. c #D5979B",
"!. c #DD979A",
"~. c #D59B9C",
"^. c #DB9B9B",
"/. c #E18D83",
"(. c #E19984",
"). c #E3978C",
"_. c #EA968D",
"`. c #E5988E",
"'. c #E9988C",
"]. c #E19692",
"[. c #E29992",
"{. c #EA9D96",
"}. c #E29B9C",
"|. c #DAA29B",
" X c #DBA29C",
".X c #E6A38C",
"XX c #E4A492",
"oX c #E4A797",
"OX c #E4AB9C",
"+X c #CD9AA2",
"@X c #CD9AA8",
"#X c #D39BA1",
"$X c #DA9EA1",
"%X c #D5A3A4",
"&X c #DAA4A3",
"*X c #DEABA5",
"=X c #D4A6AA",
"-X c #D5A9AC",
";X c #DBADAC",
":X c #CFACB7",
">X c #D3ABB3",
",X c #DAAFB1",
"<X c #D1AEB9",
"1X c #DCB2B3",
"2X c #DFB9B8",
"3X c #E3AEA4",
"4X c #E1AEA8",
"5X c #E5B1A6",
"6X c #E4B3AC",
"7X c #E4B6B2",
"8X c #E3BAB5",
"9X c #E1B7B8",
"0X c #E3BBBA",
"qX c #E6C3BF",
"wX c #EAC2B9",
"eX c #E6C4C1",
"rX c #E8C7C2",
"tX c #E9C9C4",
"yX c #EECDCA",
"uX c #F0CDC8",
"iX c #F2D2CE",
"pX c #F5DAD6",
"aX c #F6E0DE",
"sX c #F9E2DE",
"dX c #F7E4E2",
"fX c #FAE6E3",
"gX c #FBE9E6",
"hX c #FCECE9",
/* pixels */
"e.q.6.6.3...} ~ 6.2.....o.] ] ] X.( ! ..` ' | ` ` | | _ Q ` ` | | o.X.2.| o.o.| o.} Q } o.` ' o.o.4.3.6.2./ 4.4.4.4.o.o.o.4.o.2.",
"e.q.5.6.3.3.=.~ =.2.=.} } } / _ { ^ ^ } ' ` } | ` } _ ( Q _ Y I _ _ _ o.{ _ } _ I / Q ( _ I ( _ { $.} } / Z / / _ } ! ` _ o.} _ ",
"8.<.&.#.Q ~ ~ ~ Q ! ^ T ! ^ ! Q ! T F ! R F T Q F G F F G G G G G Q Q ! Q Q ! ^ Q Q ! ! K K ! ! ! ! ! ! ^ ^ ~ ^ ^ ! / ! ^ ! ^ ! ",
"4.5.2.2.` X.3...` ` _ Q ' ' ' | ` ` ` ` ) ` ` | } ] ( Q ` | ] ] | | ] ] | | o.2.^ _ ] ` ' o.' ` ' o.o.o.o.X.! 3.4.o.o.o.o...o...",
"4.6.4.4.` o.3.] ` ..] G ' ' ` ....' X...` ....X.| | } ^ | ] ` | ` ` U ` | ] ] ] ! } o.` | ] ` ` ' ` ] ..| ] ! ' ] o.o.| ] o.] o.",
"4.4.o.| 2.o...] ...._ Q | ' | | ` ....` ' ` ..' ` ] ( ! | | | X.o.o.` o.] ] ] | Q _ ] ` ] ` ` ` Y Y Y P Y ` T } U Y P Y Y } ` Y ",
"] | ] ` | ..] ` ` ` ( Q ' ` ..| ' o.X.' ..` ..' ` ` ( K ] | | | Y ` ` Y Y ` ] ] K ! ` Y Y ` ` Y ` Y P B P U S L B P P ` ` Y Y P ",
"2.4.4.o.o.3.3.] ..o.` Q | ........o.X.o.` ..o.o.| | ( K ` | o.| ] o.] o.] ` ] | K I U U U ` U P Y P B B P U S P P P P ` Y Y U U ",
"o.o.1.o.} 1.1./ } } ^ T _ _ } } } } =.} ^ } { =.=.=.! T ( ( ( ! K ^ ^ ( K ( K K k A S D G G G G D D D G G G V S D G K T G K G Q ",
"<.<.$.$.~ ~ / $.$.^ ^ ^ ^ ^ ~ ^ ^ ^ ~ ^ ^ ^ ^ ( / ^ ^ R ! G G D G ( K I K K L L D L L I G T I ( K L L I I I I I I Q Q _ ` ( ( ( ",
"7.6.6.6.$.o.o.4.3.o.............X.;.E X.3...' o...' [ R W @.E @ 3 @.%.*.` Y ) U U Y Y Y ( K U ` ` U Y U ` ` ` ` Y K ` ` | ] ` ] ",
"q.6.4.6.%.1.o.o.3...........} %.y.a.t.@.` ' ( @ 3 1 6 0 y y p y u i i u s +.:.*.` U P U R ( U U U U Y ] ` ` Y Y ] ! ( Y Y ` U ` ",
"6.o.} 3.<.o.o.2.3.o.o.3.-.;.y.a.f.g.y.^ W 3 8 y h `. XOX3X3X5X5X5X3XOXXXH.f.N.C.s.&.( P H G Y Y P P U Y Y ` Y U Y K I ` Y Y Y U ",
"o.o.o.4.~ _ o.o.o.o.o.o.;.d.D.D.g.a.2 2 0 D.5XuXpXpXfXpXuXwX8X8X6X8X7X7X7X6X3X^.S.B.s.,.^ ! | | ` ` ` ` | o.] ` ] ! } o.o.| | ` ",
"4.o.o.o.~ o.o.o.o.} Y } y.f.f.D.g.a.8 G.wXsXhXhXhXhXgXgXgXfXuX7X8X6X7X7X7X7X7X7X7X&XH.C.j.%.| | o.o.o.o.| | | o.4.^ 5.4.2.6.4.6.",
"o.o._ Y Q } Y Y ` o.o.} y.y.:.g.a.G.wXfXhXhXhXhXhXhXhXhXgXfXsXwX6X7X7X6X6X6X5X5X6X3X*X~.C.d.,.{ ` ] ` ` _ ` ] o.X.$.4.6.2.4.4.4.",
"$.$.$.~ C ~ Q Q C Z Q Q Q F 3 t.OXpXhXhXhXhXhXhXhXhXgXgXgXgXsX3X4X7X7X6X5X3XOX3X5X5XOX5X|.H.f.:.Q G G G G G T Q Q C Q Q ^ ~ $.%.",
"7.6.4.o.1.o.o.} Q ( ` I K 2 u 3XfXhXhXhXgXhXhXgXgXgXgXgXgXfX0Xh !.3X4X6X6X3XoXOX.XoX.XOXOX|.E.g.:.[ I L Y I ` I I I K F _ ( 1.7.",
"4.o.o.' ` o.' ` G ` Y I +.u.|.iXsXgXgXgXhXhXfXdXfXfXfXfXiX3X, : , r r r C.&X.XoX.X.X.X3Xz.z.g.E.C.h.) ) Y Y ) ` ` ` Y Q _ o.4.6.",
"o.o.o.` ` ` ` o.G ` ( +.M.|.8XiXgXgXgXgXdXdXdXfXfXfXuXJ.7 : 7 Z.Q.Y.T.n.e e p.E.G..X.XXXz.z.k.z.K.C.,.` ` Y U Y U U Y Q o.6.6.q.",
"o.o.` ` ` ' _ ` Q ` @.p.}.7X9XeXpXdXgXaXpXaXaXpXuX].: : 7 g Q.-X-X-X-X-X%XS.p.M.|.~.L.(.z.z.z.z.l.E.g.,.| | ` ] o.o.5.$.7.e.e.e.",
"o.` ` Y Y Y ` ` G W u D.7X0X9X9X0XeX2X;X&XH.f.t., : r M.Q.$X-X;X-X-X-X-X%X-X=X|.|.|.|.L.g.z.g.z.z.(.T.h.;.] ` o.4.o.0.9.r.e.r.r.",
"o.o.{ { ` ` Y Y T 3 h 3X0X8X9X9X<X1X>X=X%XI.I.p.> T.-X-X,X-X-X=X-X-X-X-X-X=X=X|.|.|.E.E.L.L.g.g.k.k.G.D.,.) ] | o.o.5.&.6.4.5.4.",
"5.6.o.o.} } _ I V 6 W.8X8X0X9X,X:X<X<X:X:X>X<Xd n.>X>X>X>X-X-X-X-X-X;X=X%X=X%X|.E.K.L.L.L.E.G.g.k.k.(.|.s.W D S S F Q V S T K T ",
"0.&.^ ~ Z ! Q ! 2 a 4X9X7X1X,X>X:X<X<X<X>X>X=X7 +X>X,X>X-X-X-X-X-X-X-X=X=X=X|.|.K.L.K.K.K.K.K.K.F.k.l.[.).:.I P P L A H L P P B ",
"v.q.3.( K Y Y ( 1 W.7X8X9X>X>X:X<X<X>X<X>X,X=Xr +X>X>X-X>X-X-X-X-X=X-X-X=X;X1X*X*XL.L.G.L.L.K.K.K.G.l.).).j.*.P U U K I P Y U ` ",
"b.c.q.<.$...` @.t *X7X9X,X-X>X:X<X<X>X<X>X>X-Xr N.>X>X,X-X-X=X-X-X-X-X1XqXqXqXqXqX3XL.L.L.L.L.K.T.K.(.).].A.@.P L P S U Y Y ] ] ",
"b.r.q.8.0.3.} 4 g 6X9X,X@X>X>X:X<X>X>X>X>X>X>XI.7 U.>X-X-X-X-X-X-X;XqXrXtXtXtXtXqX6XL.L.L.L.L.K.E.E.J.)._.).+.) Y Y T ` 6.4.6.7.",
"r.e.q.8.0.q.1.1 H.7X7X-X-X>X:X:X>X>X<X>X,X>X>X,XI.7 p Z.@X=X-X-X>XqXtXtXtXtXqXtXqXwXE.L.L.L.L.K.L.W.L.'.'._.y.;.4.1.~ 6.q.e.q.e.",
"e.q.7.<.<.7.1.8 W.1X>X-X>X>X-X:X>X<X<X,X>X>X-X-X>X@Xn.r 7 r p p d C.R.&XwX0X1XqXqX2X|.L.L.W.L.T.L.W.L.'._._.s.,.7.5.<.7.q.e.e.r.",
"0.8.8.#.$.<.@.8 |.1X-X-X>X>X>X:X>X<X>X<X>X>X>X>X;X>X>X=X$XI.M.n.n.Z.f.p r g Y.2XtXwXW.K.E.K.K.K.K.K.L._.'._.D.O.<.&.O.8.8.9.9.9.",
"7.5.5.<.4.^ ~ 9 &X1X-X-X>X@X:X>X>X>X<X>X>X>X>X-X>X>X-X=X-X-X,X>X;X,XrXrX6Xd.5 |.qX8XL.L.L.K.K.K.L.L.R.{._.'.D.>.0.0.q.x.w.x.9.b.",
"c.r.q.6.4.o.*.s &X,X=X-X=X:X<X>X>X>X,X<X>X>X>X-X>X>X-X-X-X-X-X-X-X-X,X0XtXrXE.r 7X5XL.L.L.L.K.K.K.K.R.`._._./.h.7.7.q.q.q.q.8.e.",
"c.c.c.q.6.2.[ w ~.=X=X>X-X=X:X>X<X>X>X>X>X>X>X>X-X-X>X=X=X-X-X-X-X,X,X-X1X2X8Xp H.|.L.L.L.H.K.K.K.R.R.)._.).A.:.2.6.6.6.q.6.$.e.",
"r.e.q.q.q.6.=.w T.$X$X-X-X:X=X=X>X>X>X<X>X>X>X>X-X-X-X-X-X-X-X-X9XrXeX2X-X&XW.p r L.L.J.L.H.L.K.E.R.L.'._.].g.:.2.o.2.2.7.q.&.q.",
"q.q.6.6.6.2.=.w I.$X$X$X%X=X-X=X-X>X>X<X>X>X>X-X-X-X=X-X-X=X-X-X9X9X2X2X-X-X|.u.6 L.L.J.G.L.K.Y.Q.].J.'._.].f.@.] o.| o.5.0.&.q.",
"6.1.} $.} ^ ~ q C.~.$X$X|.&X-X=X-X-X-X-X-X%XV.%X-X-X-X-X%X@XU.S.T.|.T.K.V.S.C.f 7 H.H.H.K.T.Y.Y.R.L.).(.{.J.d.W _ o.o.4.2.5.<.q.",
"w.&.$.~ ~ } } @.f !.~.#X^.|.&X=X-X-X-X-X-X#X7 M.>X=X#XV.u.i 8 8 5 5 5 5 5 8 7 > , C.H.L.T.Y.Y.R.[.].).).[.Z.t.E ~ ~ %.%.&.%.%.8.",
"q.6.6.} / X...#.a T.+XQ.!.Q.^.|.&X-X-X-X=X-XV.e U.S.i 5 < & & & & & & & > * > . & 8 f Q.+XY.W.J.J.`.'.`.!.A.w 1.6.6.6.6.6.6.<.<.",
"6.6.6.=.[ X.` } y C.@XQ.Q.E.!.^.!.$X=X-X-X-X%Xe 7 e < & & & < * * * 5 * * , $ # & * 7 n.Y.E.].L.[.).).R.R.f q 6.6.6.6.6.6.6.7.6.",
"6.2.2.^ ^ 2.| | 4 f Y.+X~.!.W.!.!.[.|. X%X-X%Xi - : : * * , * * * * 5 * < % . * * * * = Z.R.).R.[.'.R.[.D.t E o.o.o.o.o.o.o.o.o.",
"2.2.4.( / | | | ^ i V.@X+X~.!.[.`.{.`.R.!. XV.8 : + # > , * * % & & & & $ . * 7 5 5 > , j R.R.`.`.R.[.].d.8 / o.o.o.o.o.Y o.o.o.",
"4.2.} ^ ~ } | } } +.d Q.@X#X~.[.'.'.'.'.'.`.r > > > + + & & & % % % X . . & < 8 6 , > , h ).).[.[.R.].A.i 3 / } o.o.} o.o.o.o.o.",
"} / ^ ^ ^ ! ! Z T ~ t C.#X#XQ.[.`.`.`.'.'.s.6 > > > - +     # #     . X & & < 6 5 , > , j ).).].!.[.J.i.9 C Q ! Z Q Q T F Q Q ~ ",
"| | Y | ` ` ' K ( U @.s C.#XQ.R.`.[.[.`.'.j.6 ; < < ; < - + + + X % ; ; ; < < 5 > > : 7 /.].}.}.}.].f.u E o.o.o.! _ ` Y o.o.o._ ",
"o.| ` o.` ' ` ! } ` ..q f C.!.R.`.`.`.[.L./.6 ; ; < ; + - + + ; & % + + ; < < < > > , h ].}.}.}.{.f.f 3 } ` o.] Q _ o.o.o._ o.o.",
"] | X.| | ` | Q ( ` ` [ w g D.W.L.`.`.`.[.`.s > ; < ; - + + - - + + < < < < ; ; : > p ].}.}.}.[.A.f q ' ` o.` o.^ o.o.o.o.o.Y _ ",
"Y P | P ` Y Y Q U ` ` Y R 0 i.D.R.R.J.`.{.{./.6 ; ; ; - : : ; ; < < < < ; ; X + > p ].}.}.}.].A.i.w [ ' o.` ` o.^ } ` o.` Y o.o.",
"| | | ` ` ` ` Q Y ` ` ` U W 9 p.C.J.!.R.}.}.{./.6 ; - - ; > > > < < < : ; > > p Z.}.}.}.[.H.D.u.9 #.3.3.X.` 3.X.! | ......' ..` ",
"| _ ( _ ` ` ( ~ ^ ( } ! I L G 9 p.B.G.}.}.}.}.}.Z.p 6 > : : ; > : < 6 r s h Z.}.}.}.].T.H.C.i 3 [ { } { _ } { } Z / } } } _ ( ( ",
"/ Q ^ ! ^ ^ ! ! ! ^ ^ T ( ! G ^ @.a B.C.L.^.^.}.!.R.Z.Z.j h p h j /.Z.!.}.}.}.^.Q.T.H.V.i.t 3 K ! ~ ~ ^ ^ ^ / ^ ^ / ^ Z ! / ! ! ",
"} / 2.| ..o.| o...o.` Q ' ' ` U Y [ q f B.C.J.!.}.$X}.}.!.!.}.!.!.!.!.!.$X~.Y.U.T.V.B.a 4 W ] ] ` } ^ 3...3.3.X.X.o.o.^ 3.o.X.X.",
"/ / 6.| o.o.o...` X.} T ` Y ` Y Y ` ) W q d M.V.V.S.T.Q.Q.~.Q.+X#X#X#XU.I.S.S.S.n.i q W ` ` ` ` X.{ #.3.3.X.3.3.4.o.2.^ X.3.3.o.",
"1.<.q.6.6.4.| | ' ..` G Y Y ` ) Y U P U F W O.w d N.V.V.P.I.I.I.V.I.P.m.m.n.i u q E I Y ` Y I ] ` ` ! ` ........` ` ] ! } X...o.",
"w.8.q.7.6.o.P P ` Y L D P B B P P N N N A P U I J @ @ 3 9 i i i = i i 8 q 3 R ( F P P P U U U Y Y P G Y ` Y Y Y Y P I D L U P U ",
"8.8.q.7.6.' U P P P H D B B B P P N P P S I ` P P P N P H G A R G H H L P N M N v P B P U Y U Y U I G Y Y Y Y U Y Y U D U U P P ",
"^ L I I H D D M M M v x M M M M M M L L S U U P B M N N M D x N M M N H H N M M x D L L I ` I I I K A I I I I L I L L F L L L Y ",
"D c c c c l l z z c z z z z z O l c z c o l l l o l l l z l l z O O O z c z z O l l z c k c c c c c A c k x x D D D S A S D V F ",
"P B B B B c n m N m m m m m m z z m m m N n n n l n m m m m m m m z m m N m m m m N m M l m m m m m m m z m m m m N B N P B F Y ",
"Y Y U U P v M N N m N N N N m c b m m B N N N m z n N m m m N m m z n m N B N N N N N M c N N N m N B N c n m m N N N N P L Q 4.",
"7.6.3.U P D M N N N N N N N N c b m m m N B m B x N N N m N N B N z n m N B N P P B B M x B m m m m N B l M P B P P P L P ` Q 2.",
"4.4.6.3.3.^ } ` ` U P P Y U Y D I P P P P P P I A I U I P P P ) Y G I P P P Y P P U Y I G P P P P B B B D L U U Y U Y Y Y _ ! } ",
"6.3.6.3.X.! ( ` ` ` Y U ` ` ` I I ` Y ` ` Y Y Y G ` ` Y Y ` ` ` Y G I U U Y Y Y Y U ` I K U Y U P U I P G ` ` ] | ` ] ` ] } ^ X.",
"6.6.6.3.| ! ) ` Y Y Y ` ` ` ` ! I Y I Y Y ` ` Y G I Y Y U U P Y U G L U P P U Y Y U Y K K U U U U P U Y G I ` Y ] ` o.o.4.2.$.o."
};
