/* XPM */
static char *_81378c817004dba89b2ff0940e09d1aDM6YdT94FWpZjfDu[] = {
/* columns rows colors chars-per-pixel */
"64 64 158 2 ",
"   c #BE4C3E",
".  c #BE4E41",
"X  c #BE5244",
"o  c #BF5648",
"O  c #BF5C4D",
"+  c #C15542",
"@  c #C25A45",
"#  c #C25D4B",
"$  c #C15E51",
"%  c #C4614D",
"&  c #C36253",
"*  c #C96657",
"=  c #C5655A",
"-  c #C86658",
";  c #C46B5D",
":  c #C96A5A",
">  c #C66D64",
",  c #CA6C62",
"<  c #C66C6A",
"1  c #CF7267",
"2  c #C6736B",
"3  c #CC736E",
"4  c #D0766D",
"5  c #C87774",
"6  c #CA7C75",
"7  c #CB7D7C",
"8  c #D17B73",
"9  c #CF8577",
"0  c #CC847D",
"q  c #D1867D",
"w  c #D38D7B",
"e  c #D7937F",
"r  c #E08C7C",
"t  c #CB8582",
"y  c #CE8983",
"u  c #C78C8E",
"i  c #CD8D8B",
"p  c #D68785",
"a  c #D48C84",
"s  c #DB8C83",
"d  c #D28D8B",
"f  c #DA8D8B",
"g  c #CE918D",
"h  c #D49183",
"j  c #DE9386",
"k  c #DA9985",
"l  c #D4938C",
"z  c #DB938B",
"x  c #D5988E",
"c  c #D9998E",
"v  c #CA8F93",
"b  c #CC9293",
"n  c #C6979D",
"m  c #CA969A",
"M  c #CE9A9C",
"N  c #D29493",
"B  c #DD9592",
"V  c #D69A95",
"C  c #DC9994",
"Z  c #D29799",
"A  c #DC9598",
"S  c #D59B9B",
"D  c #DA9C9B",
"F  c #E09286",
"G  c #EB968D",
"H  c #E5988D",
"J  c #E8988C",
"K  c #E29794",
"L  c #E89790",
"P  c #E29993",
"I  c #EA9990",
"U  c #E29C9D",
"Y  c #D9A092",
"T  c #D7A59E",
"R  c #DCA39E",
"E  c #E1A397",
"W  c #E4A499",
"Q  c #E1AB9E",
"!  c #E8AB9E",
"~  c #C299A1",
"^  c #CE9BA2",
"/  c #D39DA2",
"(  c #D99FA2",
")  c #CFA1A3",
"_  c #CDA3A9",
"`  c #D5A2A5",
"'  c #DAA5A5",
"]  c #DCAAA5",
"[  c #D5A6AA",
"{  c #D9A7A9",
"}  c #D5A9AD",
"|  c #DBABAB",
" . c #DEB1AD",
".. c #CCABB3",
"X. c #D3ABB3",
"o. c #D8AEB0",
"O. c #D1AEB9",
"+. c #CEB0BC",
"@. c #DCB4B4",
"#. c #D8B2B8",
"$. c #DEBBBC",
"%. c #E3ACA5",
"&. c #E3AEA9",
"*. c #E8B0A7",
"=. c #E4B3AD",
"-. c #E8B0A8",
";. c #E4B5B2",
":. c #E3B9B7",
">. c #E3BCBA",
",. c #E8BFB9",
"<. c #E4C1BE",
"1. c #ECC1BD",
"2. c #F1C4BA",
"3. c #D7BAC1",
"4. c #E2BEC2",
"5. c #DEC0C2",
"6. c #DBC8D0",
"7. c #E5C4C1",
"8. c #EAC5C1",
"9. c #E6CAC4",
"0. c #EAC9C4",
"q. c #EACCCB",
"w. c #F0CECA",
"e. c #ECD2CE",
"r. c #E5CFD3",
"t. c #EAD4D4",
"y. c #EDDBDD",
"u. c #F1D6D4",
"i. c #F5DAD5",
"p. c #F9DCD7",
"a. c #F4DFDC",
"s. c #FAE1DD",
"d. c #EDE0E1",
"f. c #EEE5E9",
"g. c #F2E3E3",
"h. c #FBE6E3",
"j. c #FBE9E7",
"k. c #F5EBEB",
"l. c #FBEBE9",
"z. c #FCEDEB",
"x. c #FDEEEB",
"c. c #FEF1EF",
"v. c #EDEFF5",
"b. c #F7F1F2",
"n. c #F6F3F5",
"m. c #FAF4F3",
"M. c #F7F6F8",
"N. c #F8F7F9",
"B. c #F4F8FC",
"V. c #F7FBFE",
"C. c #FEFBFA",
"Z. c #FDFCFB",
"A. c #F9FBFD",
"S. c #FBFBFC",
"D. c #FAFBFE",
"F. c #FBFCFD",
"G. c #FCFEFF",
"H. c white",
/* pixels */
"H.H.H.H.H.H.H.H.H.H.H.H.H.H.H.H.H.H.H.H.H.H.H.H.H.H.H.H.H.H.H.H.H.H.H.H.H.H.H.H.H.H.H.H.H.H.H.H.H.H.H.H.H.H.H.H.H.H.H.H.H.H.H.H.",
"H.H.H.H.H.H.H.H.H.H.H.H.H.H.H.H.H.H.H.H.H.H.H.H.H.H.H.H.H.H.H.H.H.H.H.H.H.H.H.H.H.H.H.H.H.H.H.H.H.H.H.H.H.H.H.H.H.H.H.H.H.H.H.H.",
"H.H.H.H.H.H.H.H.H.H.H.H.H.H.H.H.H.H.H.H.H.H.H.H.H.H.H.H.H.H.H.H.H.H.H.H.H.H.H.H.H.H.H.H.H.H.H.H.H.H.H.H.H.H.H.H.H.H.H.H.H.H.H.H.",
"H.H.H.H.H.H.H.H.H.H.H.H.H.H.H.H.H.H.H.H.H.H.H.H.H.H.H.H.H.H.H.H.H.H.H.H.H.H.H.H.H.H.H.H.H.H.H.H.H.H.H.H.H.H.H.H.H.H.H.H.H.H.H.H.",
"H.H.H.H.H.H.H.H.H.H.H.H.H.H.H.H.H.H.H.H.H.H.H.H.H.H.H.H.H.H.H.H.H.H.H.H.H.H.H.H.H.H.H.H.H.H.H.H.H.H.H.H.H.H.H.H.H.H.H.H.H.H.H.H.",
"H.H.H.H.H.H.H.H.H.H.H.H.H.H.H.H.H.H.H.H.H.H.H.H.H.H.H.H.H.H.H.H.H.H.H.H.H.H.H.H.H.H.H.H.H.H.H.H.H.H.H.H.H.H.H.H.H.H.H.H.H.H.H.H.",
"H.H.H.H.H.H.H.H.H.H.H.H.H.H.H.H.H.H.H.H.H.H.H.H.H.H.H.H.H.H.H.H.H.H.H.H.H.H.H.H.H.H.H.H.H.H.H.H.H.H.H.H.H.H.H.H.H.H.H.H.H.H.H.H.",
"H.H.H.H.H.H.H.H.H.H.H.H.H.H.H.H.H.H.H.H.H.H.H.H.H.H.H.H.H.H.H.H.H.H.H.H.H.H.H.H.H.H.H.H.H.H.H.H.H.H.H.H.H.H.H.H.H.H.H.H.H.H.H.H.",
"H.H.H.H.H.H.H.H.H.H.H.H.H.H.H.H.H.H.H.H.H.H.H.H.H.H.H.H.H.H.H.H.H.H.H.H.H.H.H.H.H.H.H.H.H.H.H.H.H.H.H.H.H.H.H.H.H.H.H.H.H.H.H.H.",
"H.H.H.H.H.H.H.H.H.H.H.H.H.H.H.H.H.H.H.H.H.H.H.H.H.H.H.H.H.H.H.H.H.H.H.H.H.H.H.H.H.H.H.H.H.H.H.H.H.H.H.H.H.H.H.H.H.H.H.H.H.H.H.H.",
"H.H.H.H.H.H.H.H.H.H.H.H.H.H.H.H.H.H.H.H.H.H.H.H.H.H.H.H.H.H.H.H.H.H.H.H.H.H.H.H.H.H.H.H.H.H.H.H.H.H.H.H.H.H.H.H.H.H.H.H.H.H.H.H.",
"H.H.H.H.H.H.H.H.H.H.H.H.H.H.H.H.H.H.H.H.H.H.H.H.H.H.H.H.H.H.H.H.H.H.H.H.H.H.H.H.H.H.H.H.H.H.H.H.H.H.H.H.H.H.H.H.H.H.H.H.H.H.H.H.",
"H.H.H.H.H.H.H.H.H.H.H.H.H.H.H.H.H.H.H.H.H.H.H.H.H.H.H.H.H.Z.H.H.H.H.H.H.H.H.H.H.H.H.H.H.H.H.H.H.H.H.H.H.H.H.H.H.H.H.H.H.H.H.H.H.",
"H.H.H.H.H.H.H.H.H.H.H.H.H.H.H.H.H.H.H.H.H.H.H.H.Z.H.C.C.C.C.C.H.H.H.H.H.H.H.H.H.H.H.H.H.H.H.H.H.H.H.H.H.H.H.H.H.H.H.H.H.H.H.H.H.",
"H.H.H.H.H.H.H.H.H.G.H.H.H.H.H.H.H.H.H.H.H.H.H.C.C.C.C.C.C.C.S.H.H.H.H.H.H.H.H.H.H.H.H.H.H.H.H.H.H.H.H.H.H.H.H.H.H.H.H.H.H.H.H.H.",
"H.H.H.H.H.G.H.G.H.H.H.H.H.H.H.H.H.H.H.H.Z.S.C.C.C.C.C.C.Z.H.H.H.H.H.H.H.H.H.H.H.H.H.H.H.H.H.H.H.H.H.H.H.H.H.H.H.H.H.H.H.H.H.H.H.",
"H.H.H.H.H.H.H.G.G.H.G.G.H.H.H.H.H.A.S.S.S.A.S.S.G.S.H.H.H.H.H.H.H.H.H.H.H.H.H.H.H.H.H.H.H.H.H.H.H.H.H.H.H.H.H.H.H.H.H.H.H.H.H.H.",
"H.H.H.H.H.G.G.G.G.G.H.H.H.G.H.H.H.A.S.A.S.H.H.S.H.H.H.H.G.G.H.H.H.H.H.H.H.H.H.H.H.H.H.H.H.H.H.H.H.H.H.H.H.H.H.H.H.H.H.H.H.H.H.H.",
"H.H.H.H.H.G.G.G.G.H.H.H.H.G.H.H.A.S.B.A.H.H.b.y.e.f.H.Z.S.b.g.t.0.<.@. .=.$.9.t.g.b.A.H.H.H.H.H.H.H.H.H.H.H.H.H.H.H.H.H.H.H.H.H.",
"H.H.H.H.G.G.G.A.G.H.H.H.H.H.H.A.A.S.H.G.f.<.V e e @.y.@.V h h k c c c c c V c c l Z { 4.y.m.H.H.H.H.H.H.H.H.H.H.H.H.H.H.H.H.H.H.",
"H.H.H.H.H.A.G.G.H.H.H.H.H.H.H.G.V.G.V.t.x e h e 9 l c %.0.i.p.h.p.i.w.,.;.;.;.;.=.=.] D S ' >.a.C.H.H.H.H.H.H.H.H.H.H.H.H.H.H.H.",
"H.H.H.H.A.H.G.H.H.H.H.H.H.H.G.G.V.V.V.9.@.T e k %.w.h.c.z.z.z.z.z.j.h.u.=.=.;.;.=.;.;.;.;.&.D V =.a.H.H.H.H.H.H.H.H.H.H.H.H.H.H.",
"H.H.H.H.H.A.H.H.H.H.H.H.H.H.G.B.V.V.V.B.6.l T s.z.z.j.j.j.z.j.j.z.j.p.%.a ' %.&.=.=.=.=.=.=.;.&.D V 1.z.H.H.H.H.H.H.H.H.H.H.H.H.",
"H.H.H.H.G.H.H.H.H.H.H.H.H.H.G.H.G.G.v.+.g R i.s.j.j.z.j.j.h.l.a.8.E 8 = 5 7 5 6 0 l R &.&.=.-.-.*.] V %.s.H.H.H.H.H.H.H.H.H.H.H.",
"H.H.H.H.G.H.H.H.H.H.H.H.H.H.H.H.H.b._ g ;.:.4.p.a.u.q.q.8.,.U 3 - > 0 S } } } [ Z i v / | { %.&.-.-.&.D E a.H.H.H.H.H.H.H.H.H.H.",
"H.H.H.H.H.H.H.H.H.H.H.H.H.H.H.H.M.) h ;.:.:.:.#.#.X./ N g 3 > b / } } } } } } } } } { { { { { %.%.%.*.&.R W h.H.H.H.H.H.H.H.H.H.",
"H.H.H.H.H.H.H.H.H.H.H.H.H.H.H.H.@.q  .:.@.o.X.O.O.O.X.X./ < [ X.o.X.} } } } } } o.} } ` { { { { ' ' %.*.%.C ! c.H.H.H.H.H.H.H.H.",
"H.H.H.H.H.H.H.H.H.H.H.H.H.H.H.d.6 T :.@.X.X.O.O.#.X.X.X./ < X.X.o.} [ } } } } } o.@.:.:.| { { { { ` ' ' W C j 2.H.H.H.H.H.H.H.H.",
"H.H.H.H.H.H.H.H.H.H.H.H.H.H.H.] 9 @.o.o.} X.O.X.X.O.X.X.| 7 7 / [ | } } } @.$.<.0.0.0.0.>.' { { { ' { ` E H H E m.H.H.H.H.H.H.H.",
"H.H.H.H.H.H.H.H.H.H.H.H.H.H.N.y V @.| } X.X.O.X.O.X.X.X.X.} b 7 7 t t d i Y ] =.>.>.7.9.,.{ ' ' { ' { ' P G I j u.H.H.H.H.H.H.H.",
"H.H.H.H.H.H.H.H.H.H.H.H.H.H.b.y R @.} } X.X.X.X.X.X.X.X.} X.X.X./ ^ N g i N V c a t T 1.<.{ { ' ` { ' ' P I G F 1.H.H.H.H.H.H.H.",
"H.H.H.H.H.H.H.H.H.H.H.H.H.H.b.l T | } X.X._ X.X.X.O.O.X.X.| X.} } } } } } o.@.>.7.] 8 ' >.{ ' { { { ' D C G G j :.H.H.H.H.H.H.H.",
"H.H.H.H.H.H.H.H.H.H.H.H.H.H.H.V V ( [ } ..} } X.O.X.O.X.X.X.} } [ } } } } $.$.@.o.@.V 5 { ' ' ' { } / D C J G j >.H.H.H.H.H.H.H.",
"H.H.H.H.H.H.H.H.H.H.H.H.H.H.H.] d ( ( ' { } [ } } o.X.} ` } } } } } ` ` }  . .] S / S > ( ' ' { / / V K H H P p 0.H.H.H.H.H.H.H.",
"H.H.H.H.H.H.H.H.H.H.H.H.H.H.H.q.0 D / A D ` { } } } } / 2 b } M i 7 2 > ; ; ; ; > > < $ d / ` / ^ V K B H H B i g.H.H.H.H.H.H.H.",
"H.H.H.H.H.H.H.H.H.H.H.H.H.H.H.k.a v ^ S V C D ' ` [ } } N > 6 ; $ # O # O O O O $ # . o $ 2 v / A B K J H P a h N.H.H.H.H.H.H.H.",
"H.H.H.H.H.H.H.H.H.H.H.H.H.H.H.H.>.t ^ ^ Z A C K D D D { l = X o $ $ $ # $ O $ O + + $ $ $ $ > B C H H H C C 6 $.H.H.H.H.H.H.H.H.",
"H.H.H.H.G.V.G.H.H.H.H.H.H.H.H.H.A.} t ^ ^ D L H G H H j : % # X   o o o o X     + # $ = & # = s c K K C K q D C.H.H.H.H.H.H.H.H.",
"H.H.H.H.G.V.G.H.G.H.H.H.H.H.H.H.H.m.Z t S D K H H H J r - % % # @           X o # # & $ # # , j K U U K w b k.H.H.H.H.H.H.H.H.H.",
"H.H.H.H.G.V.V.B.G.H.H.H.H.H.H.H.H.H.k.V 0 l C H H H K F : @ @ @ @ @ @ + + @ @ % # # # # @ : p U U U K a D k.H.H.H.H.H.H.H.H.H.H.",
"H.H.H.H.G.B.G.V.V.G.G.H.H.H.H.H.H.H.H.k.] 0 a c c K G I s : # + @ @ @ @ # # % # @ @ @ * 8 B U U U l y | m.H.H.H.H.H.H.H.H.H.H.H.",
"H.H.H.H.G.G.A.G.G.B.G.H.H.H.H.H.H.H.H.H.A.6.M y l C U U U z 4 & % % % % # * * , 1 8 q K U D A d i { t.C.H.H.H.H.H.H.H.H.H.H.H.H.",
"H.H.H.H.G.G.G.V.V.H.A.H.G.G.G.G.H.H.H.H.H.H.b.r.) y a l K D U B f a w p p f B A A D U A Z i i ` q.G.H.H.H.H.H.H.H.H.H.H.H.H.H.H.",
"H.H.H.H.G.G.G.G.A.G.G.A.G.B.V.G.H.H.H.H.H.H.H.H.A.d.$.D i i i N Z Z Z Z Z Z m m b u u v M :.g.A.H.H.H.H.H.H.H.H.H.H.H.H.H.H.H.H.",
"H.H.H.H.H.H.A.H.A.G.G.H.G.V.G.H.A.G.G.H.H.H.H.H.H.H.H.N.f.t.3.X._ n m m m n ~ ~ ..3.r.f.A.H.H.H.H.H.H.H.H.H.H.H.H.H.H.H.H.H.H.H.",
"H.H.H.H.H.A.G.H.G.G.G.A.G.G.A.A.G.H.A.G.H.H.H.H.H.H.H.H.H.H.H.H.A.N.n.n.n.M.N.A.H.H.H.H.H.H.H.H.H.H.H.H.H.H.H.H.H.H.H.H.H.H.H.H.",
"H.H.H.H.H.H.H.G.H.H.G.H.G.G.G.G.G.G.A.G.G.G.H.H.H.H.H.H.H.H.H.H.H.H.H.H.H.H.H.H.H.H.H.H.H.H.H.H.H.H.H.H.H.H.H.H.H.H.H.H.H.H.H.H.",
"H.H.H.H.H.G.H.H.A.H.H.G.G.G.G.H.G.G.H.G.G.H.G.G.H.H.H.H.H.H.H.H.H.H.H.H.H.H.H.H.H.H.H.H.H.H.H.H.H.H.H.H.H.H.H.H.H.H.H.H.H.H.H.H.",
"H.H.H.H.H.H.H.G.H.H.H.H.G.G.H.H.H.H.H.H.H.H.H.H.G.H.G.H.H.H.H.H.H.H.H.H.H.H.H.H.H.H.H.H.H.H.H.H.H.H.H.H.H.H.H.H.H.H.H.H.H.H.H.H.",
"H.H.H.H.H.H.H.H.H.H.H.G.H.H.G.H.H.H.H.H.H.G.G.H.H.H.H.H.H.H.H.H.H.H.H.H.H.H.H.H.H.H.H.H.H.H.H.H.H.H.H.H.H.H.H.H.H.H.H.H.H.H.H.H.",
"H.H.H.H.H.H.H.H.H.H.H.H.H.H.H.H.H.H.H.H.H.H.H.H.H.H.H.H.H.H.H.H.H.H.H.H.H.H.H.H.H.H.H.H.H.H.H.H.H.H.H.H.H.H.H.H.H.H.H.H.H.H.H.H.",
"H.H.H.H.H.H.H.H.H.H.H.H.H.H.H.H.H.H.H.H.H.H.H.H.H.H.H.H.H.H.H.H.H.H.H.H.H.H.H.H.H.H.H.H.H.H.H.H.H.H.H.H.H.H.H.H.H.H.H.H.H.H.H.H.",
"H.H.H.H.H.H.H.H.H.H.H.H.H.H.H.H.H.H.H.H.H.H.H.H.H.H.H.H.H.H.H.H.H.H.H.H.H.H.H.H.H.H.H.H.H.H.H.H.H.H.H.H.H.H.H.H.H.H.H.H.H.H.H.H.",
"H.H.H.H.H.H.H.H.H.H.H.H.H.H.H.H.H.H.H.H.H.H.H.H.H.H.H.H.H.H.H.H.H.H.H.H.H.H.H.H.H.H.H.H.H.H.H.H.H.H.H.H.H.H.H.H.H.H.H.H.H.H.H.H.",
"H.H.H.H.H.H.H.H.H.H.H.H.H.H.H.H.H.H.H.H.H.H.H.H.H.H.H.H.H.H.H.H.H.H.H.H.H.H.H.H.H.H.H.H.H.H.H.H.H.H.H.H.H.H.H.H.H.H.H.H.H.H.H.H.",
"H.H.H.H.H.H.H.H.H.H.H.H.H.H.H.H.H.H.H.H.H.H.H.H.H.H.H.H.H.H.H.H.H.H.H.H.H.H.H.H.H.H.H.H.H.H.H.H.H.H.H.H.H.H.H.H.H.H.H.H.H.H.H.H.",
"H.H.H.H.H.H.H.H.H.H.H.H.H.H.H.H.H.H.H.H.H.H.H.H.H.H.H.H.H.H.H.H.H.H.H.H.H.H.H.H.H.H.H.H.H.H.H.H.H.H.H.H.H.H.H.H.H.H.H.H.H.H.H.H.",
"H.H.H.H.H.H.H.H.H.H.H.H.H.H.H.H.H.H.H.H.H.H.H.H.H.H.H.H.H.H.H.H.H.H.H.H.H.H.H.H.H.H.H.H.H.H.H.H.H.H.H.H.H.H.H.H.H.H.H.H.H.H.H.H.",
"H.H.H.H.H.H.H.H.H.H.H.H.H.H.H.H.H.H.H.H.H.H.H.H.H.H.H.H.H.H.H.H.H.H.H.H.H.H.H.H.H.H.H.H.H.H.H.H.H.H.H.H.H.H.H.H.H.H.H.H.H.H.H.H.",
"H.H.H.H.H.H.H.H.H.H.H.H.H.H.H.H.H.H.H.H.H.H.H.H.H.H.H.H.H.H.H.H.H.H.H.H.H.H.H.H.H.H.H.H.H.H.H.H.H.H.H.H.H.H.H.H.H.H.H.H.H.H.H.H.",
"H.H.H.H.H.H.H.H.H.H.H.H.H.H.H.H.H.H.H.H.H.H.H.H.H.H.H.H.H.H.H.H.H.H.H.H.H.H.H.H.H.H.H.H.H.H.H.H.H.H.H.H.H.H.H.H.H.H.H.H.H.H.H.H.",
"H.H.H.H.H.H.H.H.H.H.H.H.H.H.H.H.H.H.H.H.H.H.H.H.H.H.H.H.H.H.H.H.H.H.H.H.H.H.H.H.H.H.H.H.H.H.H.H.H.H.H.H.H.H.H.H.H.H.H.H.H.H.H.H.",
"H.H.H.H.H.H.H.H.H.H.H.H.H.H.H.H.H.H.H.H.H.H.H.H.H.H.H.H.H.H.H.H.H.H.H.H.H.H.H.H.H.H.H.H.H.H.H.H.H.H.H.H.H.H.H.H.H.H.H.H.H.H.H.H.",
"H.H.H.H.H.H.H.H.H.H.H.H.H.H.H.H.H.H.H.H.H.H.H.H.H.H.H.H.H.H.H.H.H.H.H.H.H.H.H.H.H.H.H.H.H.H.H.H.H.H.H.H.H.H.H.H.H.H.H.H.H.H.H.H."
};
