/* XPM */
static char *_39153740eb64b59953780149022d2f3KYmRbcrkuNhAdbiL[] = {
/* columns rows colors chars-per-pixel */
"64 64 135 2 ",
"   c #030100",
".  c #090600",
"X  c #0D0A02",
"o  c #15120B",
"O  c #19160D",
"+  c #1D1B0E",
"@  c #191610",
"#  c #1C1913",
"$  c #211E15",
"%  c #211E19",
"&  c #232017",
"*  c #25221A",
"=  c #29271C",
"-  c #2B281F",
";  c #2D2A22",
":  c #312F22",
">  c #302D28",
",  c #343227",
"<  c #36332B",
"1  c #383629",
"2  c #3A382B",
"3  c #3C3930",
"4  c #423F36",
"5  c #423E3B",
"6  c #424034",
"7  c #47443D",
"8  c #4A4740",
"9  c #4E4B43",
"0  c #514E45",
"q  c #524E4B",
"w  c #545147",
"e  c #55524B",
"r  c #585550",
"t  c #5E5B52",
"y  c #605D55",
"u  c #615E59",
"i  c #65625C",
"p  c #6F6C63",
"a  c #716E67",
"s  c #75726A",
"d  c #7B786F",
"f  c #7A7770",
"g  c #7E7B72",
"h  c #817E74",
"j  c #807D78",
"k  c #86837B",
"l  c #89867D",
"z  c #8E8C7F",
"x  c #918F84",
"c  c #96938A",
"v  c #99968C",
"b  c #9C9A8F",
"n  c #989590",
"m  c #9F9C95",
"M  c #A19E95",
"N  c #A29F98",
"B  c #A6A49A",
"V  c #A9A69D",
"C  c #AEABA2",
"Z  c #B2AFA6",
"A  c #B2AEAB",
"S  c #B3B0A7",
"D  c #B6B3AC",
"F  c #B9B6AB",
"G  c #BDBAB1",
"H  c #BFBBB8",
"J  c #C0BDB6",
"K  c #C5C3B6",
"L  c #C5C2BA",
"P  c #C9C6BD",
"I  c #CBC9BD",
"U  c #CDCAC3",
"Y  c #D1CEC5",
"T  c #D1CDCA",
"R  c #D2D0C3",
"E  c #D6D3CB",
"W  c #D9D6CD",
"Q  c #DEDBD3",
"!  c #E0DDD4",
"~  c #E2DFD9",
"^  c #E4E1D6",
"/  c #E6E3D9",
"(  c #E9E7DC",
")  c #ECEADE",
"_  c #EAE7E0",
"`  c #EEECE1",
"'  c #F1EEE4",
"]  c #F1EEE8",
"[  c #F5F3E5",
"{  c #F8F6E7",
"}  c #F9F8E6",
"|  c #F6F4E9",
" . c #F8F5EC",
".. c #F9F6ED",
"X. c #F8F5EE",
"o. c #FAF7EE",
"O. c #F8F6E9",
"+. c #FAF8E9",
"@. c #FBF9EA",
"#. c #FAF8EB",
"$. c #FCFAEB",
"%. c #FAF8EC",
"&. c #FBF9EC",
"*. c #FBF9ED",
"=. c #FBF8EF",
"-. c #FDFBEC",
";. c #FCFAED",
":. c #FCFAEE",
">. c #FDFBEE",
",. c #FDFBEF",
"<. c #FEFCED",
"1. c #FFFDEE",
"2. c #FEFCEF",
"3. c #FFFEEF",
"4. c #FBF9ED",
"5. c #FBF8F1",
"6. c #FCF9F0",
"7. c #FDFAF1",
"8. c #FEFBF2",
"9. c #FEFCF0",
"0. c #FFFDF0",
"q. c #FFFDF1",
"w. c #FFFCF3",
"e. c #FFFFF2",
"r. c #FFFFF3",
"t. c #FDFAF5",
"y. c #FEFBF4",
"u. c #FFFDF4",
"i. c #FFFCF5",
"p. c #FFFFF4",
"a. c #FFFEF5",
"s. c #FFFFF6",
"d. c #FEFDF3",
"f. c #FFFFF8",
"g. c #FFFFFA",
/* pixels */
"O.O.O.O.O.O.O.O.O.O.O.O.O.O.O.O.O.O.O.O.O.O.O.O.O.O.O.O.O.O.O.O.O.O.{ {  .O.O.O.O.O.O.O.O.O.O.O.O.O.O.O.O.O.O.O.O.O.O.O.O.O.O.O.",
"O.O.O.O.O.O.O.O.O.O.O.O.O.O.O.O.O.O.O.O.O.O.O.O.O.O.O.O.O.O.O.O.O.O.O.O.O.O.O.O.O.O.O.O.O.O.O.O.O.O.O.O.O.O.O.O.O.O.O.O.O.O.O.O.",
"O.O.O.O.O.O.O.O.O.O.O.O.O.O.O.O.O.O.O.O.O.O.O.O.O.O.O.O.O.O.O.O.O.O.O.O.O.O.O.O.O.O.O.O.O.O.O.O.O.O.O.O.O.O.O.O.O.O.O.O.O.O.O.O.",
"O.O.O.O.O.O.O.O.O.O.O.O.O.O.O.O.O.O.O.O.O.O.O.O.O.O.O.O.O.O.O.O.O.O.O.O.O.O.O.O.O.O.O.O.O.O.O.O.O.O.O.O.O.O.O.O.O.O.O.O.O.O.O.O.",
"O.O.O.O.O.O.O.O.{ { O.O.O.O.O.O.{ {  .O.O.O.O.O.O.O.O.O.O.O.O.O.O.O.O.O.O.O.O.O.O.O.O.O.| O.O.O.O.O.O.O.O.O.O.O.O.O.O.O.O.O.O.O.",
"O.O.O.O.O.O.O.O.{ O.O.O.O.O.O.O.{ { O.O.O.O.O.O.O.O.O.O.O.O.O.O.O.O.O.O.O.O.O.O.O.O.O.O.O.O.O.O.O.O.O.O.O.O.O.O.O.O.O.O.O.O.O.O.",
"O.O.O.O.O.O.O.O.{  .O.O.O.O.O.O.O.O.O.O.O.O.O.O.O.O.O.O.O.O.O.O.O.O.O.O.O.O.O.O.O.O.O.O.O.O.O.O.O.O.O.O.O.O.O.O.O.O.O.O.O.O.O.O.",
"O.O.O.O.O.O.O.O.{ { O.O.O.O.O.O.O.O.O.O.O.O.O.O.O.O.O.O.O.O.O.O.O.O.O.O.O.O.O.O.O.O.O.O.O.O.O.O.O.O.O.O.O.O.O.O.O.O.O.O.O.O.O.O.",
"O.O.O.O.O.O.O.O. .{ O.O.O.O.O.O.O.O.O.O.O.O.O.O.O.O.O.O.O.O.O.O.O.O.O.O.O.O.O.O.O.O.O.O.O.O.O.O.O.O.O.O.O.O.O.O.O.O.O.O.O.O.O.O.",
"O.O.O.O.O.O.O.O.{  .O.O.O.O.O.O.O.O.O.O.O.O.O.O.O.O.O.O.O.O.O.O.O.O.O.O.O.O.O.O.O.O.O.O.O.O.O.O.O.O.O.O.O.O.O.O.O.O.O.O.O.O.O.O.",
"O.O.O.O.O.O.O.O.{  .O.O.O.O.O.O.O.O.O.O.O.O.O.O.O.O.O.O.O.O.O.O.O.O.O.O.O.O.O.O.{ { O.O.O.O.O.O.O.O.O.O.O.O.O.O.O.O.O.O.O.O.O.O.",
"O.O.O.O.O.O.O.O. .{ O.O.O.O.O.O.O.O.O.O.O.O.O.O.O.O.O.O.O.O.O.O.O.O.O.O.O.O.O.O. .{ O.O.O.O.O.O.O.O.O.O.O.O.O.O.O.O.O.O.O.O.O.O.",
"O.O.O.O.O.O.O.O.O.O.O.O.O.O.O.O.O.O.O.O.O.O.O.O.O.O.O.O.O.O.O.O.O.O.O.O.O.O.O.O.O.O.O.O.O.O.O.O.O.O.O.O.O.O.O.O.O.O.| O.O.O.{ O.",
"O.O.O.O.O.O.O.O.O.O.O.O.O.O.O.O.O.O.O.O.O.O.O.O.O.O.O.O.O.O.O.O.O.O.O.O.O.O.O.O.O.O.O.O.O.O.O.O.O.O.O.O.O.O.O.O.O.O.O.O.O.O.O.O.",
" .{ O.O.O.O.O.O.O.O.O.O.O.O.O.O.O.O.O.O.O.O.O.O.O.O.O.O.O.O.O.O.O.O.O.O.O.O.O.O.O.O.O.O.O.O.O.O.O.O.O.O.O.O.O.O.O.O.O.O.O.O.O.O.",
"O.{ { O.O.O.O.O.O.O.O.O.O.O.O.O.O.{ O.O.O.O.O.O.O.O.O.O.O.O.O.O.O.O.O.O.O.O.O.O.O.O.O.O.O.O.O.O.O.O.O.O.O.O.O.O.O.O.O.O.O.O.O.O.",
"O.O.O.O.O.O.O.O.O.O.O.{ {  .O.O.[ { { { { [ [ } 0.) K 0.` ' 9.[ { O.{ &.) &.| 0.5.` 0.9.@.[ -.[ O.O.O.O.O.O.O.O.O.O.O.O.O.O.O.O.",
"O.O.O.O.O.O.O.O.O.O.O.O.O.O.O.{ { { } } { { } @.[ + X K 0.' 0.' &.[ [ 0.0.p.7...` t.[ { [ { -.@.O.O.O.O.O.O.O.O.O.O.O.O.O.O.O.O.",
"O.O.O.O.O.O.O.O.O.O.O.O.O.O.O.O.{ } { [ [ } @.3.z X c Q p.0./ &.0.[ ] @.O.` ] `  .g.{  .{ O.[ @.O.O.O.O.O.O.O.O.O.O.O.O.O.O.O.O.",
"O.O.O.O.O.O.O.O.O.O.O.O.O.O.O.O.{ } { } } [ @.3.1 c 0.[  .{ 0. .O.[ { { ..O.g.p.5.W 5.9.@.O.[ @.O.O.O.O.O.O.O.O.O.O.O.O.O.O.O.O.",
"O.O.O.O.O.O.O.O.O.O.O.O.O.O.O.O.[ } } O.} [ O.O.1 K [ { [ O.p.[ [ @.3.[ ..0._ / ` p _ ..{  .[ &.{ O.O.O.O.O.O.O.O.O.O.O.O.O.O.O.",
"O.O.O.O.O.O.O.O.O.O.O.O.O.O.O.O.[ } @.O.} [ O.[ , R 0.&.{ 0./ ;.{ &.&.` X...m n | * Q &.{ { { &.O.O.O.O.O.O.O.O.O.O.O.O.O.O.O.O.",
"O.O.O.O.O.O.O.O.O.O.O.O.O.O.O.O.[ } O.} { { O.@.= F &./ X.| g...| { &.{ 0.p.j N g.O U p. . .{ [ O.O.O.O.O.O.O.O.O.O.O.O.O.O.O.{ ",
"O.O.O.O.O.O.O.O.O.O.O.O.O.O.O.O.| } O.[ | O.;.0.w , p.5. .| X.|  .{ { [ ` ' i D g.$ J g.{ &.&.[ O.O.O.O.O.O.O.O.O.O.O.O.O.O.O.O.",
"O.O.O.O.O.O.O.O.O.O.O.O.O.O.O.O.;.) O.0.0.{ ` p.I . n p...( g.` |  ./ {  .*   > s % H g.^ p.p.[ O.O.O.O.O.O.O.O.O.O.O.O.O.O.O.O.",
"O.O.O.O.O. .O.O.O.O.O.O.O.O.O.O.;.O.O.`  .&.9.{ 0.x O |  .g.Q p.| p.p.0.X.Z X . u % T g.g.^ ` &.O.O.O.O.O.O.O.{ O.O.O.O.O.O.O.O.",
"O.O.O.O.{ { O.O.O.O.O.O.O.O.O.O.[ &.;.` &.[ 7.( | 5.* L g.L f p.| B W l t.g.t j ] @ U ] ] p.&.3.O.O.O.O.O.O.O.O.O.O.O.O.O.O.O.O.",
"O.O.O.O.{ O.O.O.O.O.O.O.O.O.O.O.[ [ ;.@.0.( 0.0.` p.l k X.> X ~ D 6 M & t.] r D Q o U ] { 5.] [ O.O.O.O.O.O.O.O.O.O.O.O.O.O.O.O.",
"O.O.O.O.O.O.O.O.O.O.O.O.O.O.O.O.&.{  .' &.| p.X.X.| m g E X   g g g G , g.g.3 A Q # # t p.] p.| O.O.O.O.O.O.O.O.O.O.O.O.O.O.| O.",
"O.O.O.O.O.O.O.O.O.O.O.O.O.O.O.O.{ ..&.` { p.R m ..g.k c J 8 a # 9 C A * ] g.8 H T     *  .|  .[ O.O.O.O.O.O.O.O.O.O.O.O.O.O.O.O.",
"O.O.O.O.O.O.O.O.O.O.O.O.O.O.O.O.| [ 7.{ | p.c 0 g.g.9 B C 8 _ # 6 B x * g.t.q T T   i # ^ f.[ [ O.O.O.O.O.O.O.O.O.O.O.O.O.O.O.O.",
"O.O.O.O.O.O.O.O.O.O.O.O.O.O.O.O.0.` &.0._ 9.g w 5.E X ~ D % Q < - k q o ] t.r Q n # D o _ 5.O.%.O.O.O.O.O.O.O.O.O.O.O.O.O.O.O.O.",
"O.O.O.O.O.O.O.O.O.O.O.O.O.O.O.O.[ 7...] ..5.f O M o - p.Q   3 = d   .   C p.f  .v t B ; 0.&.| &.O.O.O.O.O.O.O.O.O.O.O.O.O.O.O.O.",
"O.O.O.O.O.O.O.O.O.O.O.O.O.O.O.O.7.` ..X.{ p.Z     X V g.&.t   < '   & s F 0._ &.( / K m &.[  . .O.O.O.O.O.O.O.O.O.O.O.O.O.O.O.O.",
"O.O.O.O.O.O.O.O.O.O.O.O.O.O.O.O.7.` p.7.` t.| w   y ` _ p.E 0 Z @.D K ` p.9.) 0.5.p.^ &.0.{  .{ O.O.O.O.O.O.O.O.O.O.O.O.O.O.O.O.",
"O.O.O.O.O.O.O.O.O.O.O.O.O.O.O.O.| 7.;.] ] | g./ U p.` p.g. .5.g.[ 0.p.&. .{ &.[ ( { { 0.0.{ { 5.O.O.O.O.O.O.O.O.O.O.O.O.O.O.O.O.",
"O.O.O.O.O.O.O.O.O.O.O.O.O.O.O.O.X...] | 5.p._ p.p.` X.7.! 9._  .0.` ` { ` [ p.&.0.( p._ @.` &.0.O.O.O.O.O.O.O.O.O.O.O.O.O.O.O.O.",
"O.O.{ O.O.O.O.O.O.O.O.O.O.O.O.O...| 7.7.` g._ | ` 7.( p.| | p.' | &.p.&.p.O./ p.p.&.{  .9.( p.' O.O.O.O.O.O.O.O.O.O.O.O.O.O.O.O.",
"O.O.{ { O.O.O.O.O.O.O.O.O.O.O.O.O.[ p.7.( { 0.| 0.p.` [ ' | 9.| 0.` [ ' ' 0.p.[ ` @.' 0.0.[ 0.` O.O.O.O.O.O.O.O.O.O.O.O.O.O.O.O.",
"O.O.O. .O.O.O.O.O.O.O.O.O.O.O. .[ @.] | p.` p.| { ` 7.0.| %. .%.[ 0.&.O.&.[ [ &.&.O.p.' { { 0...O.O.O.O.O.O.O.O.O.O.O.O.O.O.O.O.",
"O.O.O.O.O.O.O.O.O.O.O.O.O.O.{ { O.O...O.O.{  .{ O.O.O.O. .O.O.O.O.O.O.O. .O.O.O.O.O.O.O.{ {  .{ O.O.O.O.O.O.O.O.O.O.O.O.O.O.O.O.",
"O.O.O.O.O.O.O.O.O.O.O.O.O.O.{ O.O...O.O.O...{  .O.O. .O. .O.O.O.O.O.O.O.{ { O.O.O.O.O.O. .{ {  .O.O.O.O.O.O.O.O.O.O.O.O.O.O.O.O.",
"O.O.O.O.O.O.O.O.O.O.O.O.O.O.O.O.O.O.O.O.O.O. .O.O.O.O.O.O.O.O.O.O.{ O.{ { { @.} { { O.{ { { { { O.O.O.O.O.O.O.O.O.O.O.O.O.O.O.O.",
"O.O.O.O.O.O.O.O.O.O.O.O.O.O.O.O.O.O.O.O.O.O.O.O.O.O.O.O.O.O.O.O.{ { O.{ { } [ [ { { { { { { { { O.O.O.O.O.O.O.O.O.O.O.O.O.O.O.O.",
"O.O.O.O.O.O.O.O.O.O.O.O.O.O.O.O.O.O.O.O.O.O.O.O.O.O.O.O.O.O.O.O.{ { { { { { { { { { [ } O.} { { O.O.O.O.O.O.O.O.O.O.O.O.O.O.O.O.",
"O.O.O.O.O.O.O.O.O.O.O.O.O.O.O.O.O.O.O.O.O.O.O.O.O.O.O.O.O.O.O.O.{ { { { { { { { { O.} @.{ } { { O.O.O.O.O.O.O.O.O.O.O.O.O.O.O.O.",
"O.O.O.O.O.O.O.O.O.O.O.O.O.O.O.O.O.O.O.O.O.O.O.O.O.O.O.O.O.O.O.O.{ { { { { { { O.{ { { [ { { { { O.O.O.O.O.O.O.O.O.O.O.O.O.O.O.O.",
"O.O.O.O.O.O.O.O.O.O.O.O.O.O.O.O.O.O.O.O.O.O.O.O.O.O.O.O.O.O.O.O.{ { { { { { { { { { { { { { { { O.O.O.O.O.O.O.O.O.O.O.O.O.O.O.O.",
"O.O.O.O.O.O.O.O.O.O.O.O.O.O.O.O.O.O.O.O.O.O.O.O.O.O.O.O.O.O.O.O.O.O.O.O.O.O.O.O.O.O.O.O.O.O.O.O.O.O.O.O.O.O.O.O.O.O.O.O.O.O.O.O.",
"O.O.O.O.O.O.O.O.O.O.O.O.O.O.O.O.O.O.O.O.O.O.O.O.O.O.O.O.O.O.O.O.O.O.O.O.O.O.O.O.O.O.O.O.O.O.O.O.O.O.O.O.O.O.O.O.O.O.O.O.O.O.O.O.",
"O.O.O.O.O.O.{ O.O.O.O.O.O.O.O.O.O.O.O.O.O.O.O.O.O.O.O.O.O.O.O.O.O.O.O.O.O.O.O.O.O.O.O.O.O.O.O.O.O.O.O.O.O.O.O.O.O.O.O.O.O.O.O.O.",
"O.O.O.O.O. .{ O.O.O.O.O.O.O.O.O.O.O.O.O.O.O.O.O.O.O.O.O.O.O.O.O.O.O.O.O.O.O.O.O.O.O.O.O.O.O.O.O.O.O.O.O.O.O.O.O.O.O.O.O.O.O.O.O.",
"O.O.O.O.O.O.O.O.O.O.O.O.O.O.O.O.O.O.O.O.O.O.O.O.O.O.O.O.O.O.O.O.O.O.O.O.O.O.O.O.O.O.O.O.O.O.O.O.O.O.O.O.O.O.O.O.O.O.O.O.O.O.O.O.",
"O.O.O.O.O.O.O.O.O.O.O.O.O.O.O.O.O.O.O.O.O.O.O.O.O.O.O.O.O.O.O.| O.O.O.O.O.O.O.O.O.O.O.O.O.O.O.O.O.O.O.O.O.O.O.O.O.O.O.O.O.O.O.O.",
"O.O.O.O.O.O.O.O.O.O.O.O.O.O.O.O.O.O.O.{ O.O.O.O.O.O.O.O.O.O.O.O.O.O.O.O.O.O.O.O.O.O.O.O.O.O.O.O.{ { { O.O.O.O.O.O.O.O.O.O.O.O.O.",
"O.O.O.O.O.O.O.O.O.O.O.O.O.O.O.O.O.O.O.O.O.O.O.O.O.O.O.O.O.O.O.{ O.O.O.O.O.O.O.O.O.O.O.O.O.O.O.O.O.O.{  .O.O.O.O.O.O.O.O.O.O.O.O.",
"O.O.O.O.O.O.O.O.O.O.O.O.O.O.O.O.O.O.O.O.O.O.O.O.O.O.O.O.O.O.O.O.O.O.O.O.O.O.O.O.O.O.O.O.O.O.O.O.O.O.O.O.O.O.O.O.O.O.O.O.O.{  .O.",
"O.O.O.O.O.O.O.O.O.O.O.O.O.O.O.O.O.O.O.O.O.O.O.O.O.O.O.O.O.O.O.O.O.O.O.O.O.O.O.O.O.O.O.O.O.O.O.O.O.O.O.O.O.O.O.O.O.O.O.O.{ { O.O.",
"O.O.O.O.O.O.O.O.O.O.O.O.O.O.O.O.O.O.O.O.O.O.O.O.O.O.O.O.O.O.O.O.O.O.O.O.O.O.O.O.O.O.O.O.O.O.O.O.O.O.O.O.O.O.O.O.O.O.O.O.O.O.O.O.",
"O.O.O.O.O.O.O.O.O.O.O.O.O.O.O.O.O.O.O.O.O.O.O.O.O.O.O.O.O.O.O.O.O.O.O.O.O.O.O.O.O.O.O.O.O.O.O.O.O.O.O.O.O.O.O.O.O.O.O.O.O.O.O.O.",
"O.O.O.O.O.O.O.O.O.O.O.O.O.O.O.O.O.O.O.O.O.O.O.O.O.O.O.O.O.O.O.O.O.O.O.O.O.O.O.O.O.O.O.O.O.O.O.O.O.O.O.O.O.O.O.O.O.O.O.O.O.O.O.O.",
"O.O.O.O.O.O.O.O.O.O.O.O.O.O.O.O.O.O.O.O.O.O.O.O.O.O.O.O.O.O.O.O.O.O.O.O.O.O.O.O.O.O.O.O.{ O.O.O.O.O.O.O.O.O.O.O.O.O.O.O.O.O.O.O.",
"O.O.O.O.O.O.O.O.O.O. .O.O.O.O.O.O.O.O.O.O.O.O.O.O.O.{ O.O.O.O.O.O.O.O.O.O.O.O.O.O.O.| O.{ { O.O.O.O.O.O.O.O.O.O.O.O.O.O.O.O.O.O.",
"O.O.O.O.O.O.O.O.O.O.{ { { O.O.O.O.O.O.O.O.O.O.O.O.O.O.O.O.O.O.O.O.| O.O.O.O.O.O.O.O.O.O.O. .O.O.O.O.O.O.O.O.O.O.O.O.O.O.O.O.O.O."
};
