/* XPM */
static char *_be6ce630445448d9b18f5a09b3ff05f38E6HwGysKpsPpOz[] = {
/* columns rows colors chars-per-pixel */
"64 64 115 2 ",
"   c #5CCF8D",
".  c #64D193",
"X  c #6AD297",
"o  c #6DD39A",
"O  c #73D69E",
"+  c #76D7A1",
"@  c #77D8A2",
"#  c #7ED9A8",
"$  c #82DAA7",
"%  c #86D7AC",
"&  c #85DAAA",
"*  c #8AD9AC",
"=  c #83DDB2",
"-  c #8DDBB1",
";  c #83D9B8",
":  c #91DCB3",
">  c #95DEBA",
",  c #9BDEBB",
"<  c #95E1B5",
"1  c #98E1B7",
"2  c #96E0B8",
"3  c #9CE1BC",
"4  c #A1E4BD",
"5  c #90DDC2",
"6  c #9EDDC2",
"7  c #97DEC9",
"8  c #9EDAC8",
"9  c #A2DEC3",
"0  c #A4DECA",
"q  c #A9DECE",
"w  c #ABDCD0",
"e  c #AEDFDC",
"r  c #B1DFD3",
"t  c #B2DFD9",
"y  c #96E1C3",
"u  c #9EE1C2",
"i  c #A4E2C4",
"p  c #AAE5C5",
"a  c #AEE8C5",
"s  c #A5E2C9",
"d  c #ACE5CB",
"f  c #ABE9CA",
"g  c #B2EAC4",
"h  c #B1E6CD",
"j  c #B4E9CD",
"k  c #BBECCF",
"l  c #AEE5D1",
"z  c #B2E6D2",
"x  c #BAE6D4",
"c  c #B5E8D2",
"v  c #BBEBD3",
"b  c #BCE5DA",
"n  c #BCE8D8",
"m  c #BFE4E1",
"M  c #C2EDD5",
"N  c #C4ECDB",
"B  c #CAEEDD",
"V  c #C7F0D3",
"C  c #CCF0DC",
"Z  c #D2F2DE",
"A  c #C3E5E2",
"S  c #C5E8E1",
"D  c #CDEEE2",
"F  c #CCE7E8",
"G  c #D2EEE6",
"H  c #D5ECED",
"J  c #D8EFEB",
"K  c #CFF0E1",
"L  c #D4F1E4",
"P  c #D8F2E4",
"I  c #D9F1E7",
"U  c #DBF2E7",
"Y  c #D9F4E6",
"T  c #DEF5E7",
"R  c #D7F0EA",
"E  c #DAF3E9",
"W  c #DFF3EB",
"Q  c #DDF4EA",
"!  c #CBE6F5",
"~  c #D8EEF0",
"^  c #E0F4EB",
"/  c #E3F6ED",
"(  c #E2F4EF",
")  c #E5F7ED",
"_  c #E6F8EF",
"`  c #E3F4F3",
"'  c #E6F5F1",
"]  c #E7F7F0",
"[  c #E9F7F3",
"{  c #EAF6F6",
"}  c #EBFAF0",
"|  c #EBF9F2",
" . c #ECF9F1",
".. c #ECF9F3",
"X. c #EEF9F4",
"o. c #EDFAF4",
"O. c #EEF7F9",
"+. c #EEF9F8",
"@. c #F1FBF4",
"#. c #F2F9F9",
"$. c #F1F9FA",
"%. c #F5FBF8",
"&. c #F5FCF8",
"*. c #F7FDF9",
"=. c #F6FBFD",
"-. c #F7FBFD",
";. c #F8FDFB",
":. c #FAFEFB",
">. c #F9FBFE",
",. c #FAFDFC",
"<. c #F8FCFE",
"1. c #FBFCFE",
"2. c #FDFEFD",
"3. c #FCFEFF",
"4. c white",
/* pixels */
"4.4.4.4.4.4.4.4.4.4.4.4.4.4.4.4.4.4.4.4.4.4.4.4.4.4.4.4.4.4.4.4.4.4.4.4.4.4.4.4.4.4.4.4.4.4.4.4.4.4.4.4.4.4.4.4.4.4.4.4.4.4.4.4.",
"4.4.4.4.4.4.4.4.4.4.4.4.4.4.4.4.4.4.4.4.4.4.4.4.4.4.4.4.4.4.4.4.4.4.4.4.4.4.4.4.4.4.4.4.4.4.4.4.4.4.4.4.4.4.4.4.4.4.4.4.4.4.4.4.",
"4.4.4.4.4.4.4.4.4.4.4.4.4.4.4.4.4.4.4.4.4.4.4.4.4.4.4.4.4.4.4.4.4.4.4.4.4.4.4.4.4.4.4.4.4.4.4.4.4.4.4.4.4.4.4.4.4.4.4.4.4.4.4.4.",
"4.4.4.4.4.4.4.4.4.4.4.4.4.4.4.4.4.4.4.4.4.4.4.4.4.4.4.4.4.4.4.4.4.4.4.4.4.4.4.4.4.4.4.4.4.4.4.4.4.4.4.4.4.4.4.4.4.4.4.4.4.4.4.4.",
"4.4.4.4.4.4.4.4.4.4.4.4.4.4.4.4.4.4.4.4.4.4.4.4.4.4.4.4.4.4.4.4.4.4.4.4.4.4.4.4.4.4.4.4.4.4.4.4.4.4.4.4.4.4.4.4.4.4.4.4.4.4.4.4.",
"4.4.4.4.4.4.4.4.4.4.4.4.4.4.4.4.4.4.4.4.4.4.4.4.4.4.4.4.4.4.4.4.4.4.4.4.4.4.4.4.4.4.4.4.4.4.4.4.4.4.4.4.4.4.4.4.4.4.4.4.4.4.4.4.",
"4.4.4.4.4.4.4.4.4.4.4.4.4.4.4.4.4.4.4.4.4.4.4.4.4.4.4.4.4.4.4.4.4.4.4.4.4.4.4.4.4.4.4.4.4.4.4.4.4.4.4.4.4.4.4.4.4.4.4.4.4.4.4.4.",
"4.4.4.4.4.4.4.4.4.4.4.4.4.4.4.4.4.4.4.4.4.4.4.4.4.4.4.4.4.4.4.4.4.4.4.4.4.4.4.4.4.4.4.4.4.4.4.4.4.4.4.4.4.4.4.4.4.4.4.4.4.4.4.4.",
"4.4.4.4.4.4.4.4.4.4.4.4.4.4.4.4.4.4.4.4.4.4.4.4.4.4.4.4.4.4.4.4.4.4.4.4.4.4.4.4.4.4.4.4.4.4.4.4.4.4.4.4.4.4.4.4.4.4.4.4.4.4.4.4.",
"4.4.4.4.4.4.4.4.4.4.4.1.4.4.4.4.4.4.4.4.1.4.4.4.4.4.4.4.4.4.4.4.4.4.4.4.4.4.4.4.4.4.4.4.4.4.4.4.4.4.4.4.4.4.4.4.4.4.4.4.4.4.4.4.",
"4.4.4.4.4.4.4.4.4.4.1.4.4.4.1.4.4.>.4.4.4.4.4.4.4.4.4.4.4.4.4.4.4.4.4.4.4.4.4.4.4.4.4.4.4.4.4.4.4.4.4.4.4.4.4.4.4.4.4.4.4.4.4.4.",
"4.4.1.4.4.1.>.4.4.4.1.4.1.4.1.1.4.1.4.-.4.4.1.4.4.1.4.4.4.4.4.4.4.4.4.4.4.4.4.4.4.4.4.4.4.4.4.4.4.4.4.4.4.4.4.4.4.4.4.4.4.4.4.4.",
"4.4.4.1.4.1.4.4.4.1.4.4.4.4.4.4.4.4.1.4.>.4.>.4.4.>.4.4.4.4.4.4.4.4.4.4.4.4.4.4.4.4.4.4.4.4.4.4.4.4.4.4.4.4.4.4.4.4.4.4.4.4.4.4.",
"4.1.4.1.1.4.1.1.>.4.1.>.>.>.1.>.1.4.1.4.4.1.4.4.1.4.4.4.4.4.4.4.4.4.4.4.4.4.4.4.4.4.4.4.4.4.4.4.4.4.4.4.4.4.4.4.4.4.4.4.4.4.4.4.",
"1.4.4.1.1.4.-.4.4.-.>.4.>.4.1.4.>.1.4.4.1.4.4.4.4.4.4.4.4.4.:.;.$.@.-.-.;.4.4.4.4.4.4.4.4.4.4.4.4.4.4.4.4.4.4.4.4.4.4.4.4.4.4.4.",
"1.1.1.1.4.>.4.1.>.4.4.>.4.>.4.-.4.1._ v f u v 1.>.$.' G B N v x z x h x x v N G ^ $.4.4.4.4.4.4.4.4.4.4.4.4.4.4.4.4.4.4.4.4.4.4.",
"4.<.1.1.1.1.1.1.1.1.1.1.1.1.<.4.| f y 7 5 = c E N z x M B D B G K K K K S A b z z q b F [ >.4.4.4.4.4.4.4.4.4.4.4.4.4.4.4.4.4.4.",
"1.1.1.1.1.1.1.1.1.1.1.1.1.<.1.1.i ; e ! m d B L _ X.;.4.;.4.;.%.] E L Y L L L L D D N z r b P <.4.4.4.4.4.4.4.4.4.4.4.4.4.4.4.4.",
"1.1.1.1.1.1.<.1.<.1.1.1.1.1.1.4.C n i z P -.4.4.4.4.4.4.4.4.4.4.4.| Y K K K L K L G I L G N z z I =.4.4.4.4.4.4.4.4.4.4.4.4.4.4.",
"1.1.1.1.1.<.1.1.1.1.<.<.1.<.1.<.| N k _ 4.4.4.4.4.4.4.4.4.4.4.4.&.B v v v v N B C C C L I R R D z M | 4.4.4.4.4.4.4.4.4.4.4.4.4.",
"<.1.<.<.<.1.1.<.<.1.<.<.1.-.4.W d z I 1.4.4.4.4.4.4.4.4.4.4.o.K i i l l z c c c v c k M C K L Y J b r ^ 1.4.4.4.4.4.4.4.4.4.4.4.",
"1.<.1.1.1.<.<.1.<.1.<.1.<.-.E p v D L E _ } @.} | _ T Z k p 3 2 f c l l d c c c z c c v k k V C I J A w G 4.4.4.4.4.4.4.4.4.4.4.",
"<.<.<.<.1.<.1.<.<.1.>.>.>.' p c D G C M k v v v j f i i i p l c c l c c c c c c c c c j c v k $ g V U N w I 4.4.4.4.4.4.4.4.4.4.",
"<.1.1.<.<.<.1.1.1.>.>.>.$.z l D D B v f p c c c c c c l l l l c l c l c c c c c c c v v k k 3 O h M V Z b q ' 4.4.4.4.4.4.4.4.4.",
"<.1.<.<.<.<.1.=.1.1.1.=.G i S K B v c c u c c c z l l c l c l c f l c l c c c c v v v v v v * - z k k M z 8 z ;.4.4.4.4.4.4.4.4.",
"<.<.<.<.<.-.<.=.1.=.1.{ l c K B v c c c 2 d z l z l l l c l c 2 O u c c c N K Y Q Y P v c j O i v v c k q 8 0 G 4.4.4.4.4.4.4.4.",
"<.<.<.<.1.-.-.-.>.>.<.H i N C v c c c c 2 2 l l l l c j c c f O y u i c K _ } } _ ^ ) L v 3 O j v v v j 9 0 8 z 4.4.4.4.4.4.4.4.",
"<.<.<.<.-.-.-.-.-.>.<.F i N v c c c z c y # l c c c l c l l # - c f & p Q } ^ L L ) ) L v $ 1 V v v v d 9 0 q 0 [ 4.4.4.4.4.4.4.",
"<.<.<.<.=.=.-.-.-.-.$.A 8 v c l c l l z d o d l c c c c c 2 @ l c c u @ v _ Y v v T _ B g O f v k v k i u u 0 0 ^ 4.4.4.4.4.4.4.",
"<.<.<.<.=.=.-.-.-.-.O.m 2 c c l l c z c c @ 2 c c c c c s + p c c c v 2 $ N Y L E T C v 1 $ v v v k p 0 6 i s 6 W 4.4.4.4.4.4.4.",
"<.<.1.<.;.=.=.>.-.-.$.F > s l l c c c c c - & c c c c f @ < c c v c v K - 1 v v M v v v # 1 v v c d i 6 u i 0 6 ^ 4.4.4.4.4.4.4.",
"<.<.<.=.1.=.=.;.-.-.$.~ > u s s d f c c c u @ c c c c < # c c c v c v K V # 3 v v v v a O j v d i i u u 0 i 0 0 | 4.4.4.4.4.4.4.",
"1.<.<.<.1.=.1.=.-.<.-.` s 3 s i s i d l c f + p v v i O a x x g f i 3 3 3 * X : 9 h M : $ h p 9 9 u 9 i 0 i 0 h 4.4.4.4.4.4.4.4.",
"1.<.1.1.=.<.<.1.<.<.-.{ S < u u u s u d d d + 2 v j $ , x h 4 : < - : - : : @ . % : , o - 9 6 6 i 9 u 0 s s 9 B 4.4.4.4.4.4.4.4.",
"<.1.<.<.=.4.1.=.<.1.4.-.` s 3 0 u u s i i i & @ p : - h 4 : : : - : : : - - * O X % $ o , 6 9 9 i 6 i i s s d o.4.4.4.4.4.4.4.4.",
"1.<.1.4.;.=.<.1.-.<.>.-.<.~ i 3 u u i s i s > X 1 * 4 4 * % * * * * * * * % & & . o O O 9 9 9 9 i i 0 i i s F 4.4.4.4.4.4.4.4.4.",
"4.1.<.1.1.1.<.=.1.1.<.<.<.$.H i u u u p i s i X % u i i : * * * * * * * * % % * $   X : 9 4 9 9 u s 6 i i b 4.4.4.4.4.4.4.4.4.4.",
"<.1.1.1.1.1.1.1.<.1.1.1.1.1.<.D 4 3 3 u i p p $ - p 9 p 4 : * * * * * * * * * % % $ O 6 9 6 9 9 i u i s b $.4.4.4.4.4.4.4.4.4.4.",
"<.<.1.1.1.1.1.=.<.1.1.1.1.1.4.@.Z p 3 3 i i s p p 9 p 9 i i , , : : : * * : : : , 9 9 9 9 9 9 i i i q A $.4.4.4.4.4.4.4.4.4.4.4.",
"1.1.1.1.1.1.1.4.1.1.1.1.>.4.>.<.;.) k 4 4 4 i i i p p 9 p 9 4 i 9 4 4 4 9 9 i i i 9 9 9 4 9 i i s t H >.4.4.4.4.4.4.4.4.4.4.4.4.",
"1.1.1.1.1.1.1.1.1.1.1.<.1.4.1.4.4.1.@.Y k 4 3 4 4 i i i i i i i 9 4 9 9 i i 9 i 4 9 p 4 4 p i d F { 4.4.4.4.4.4.4.4.4.4.4.4.4.4.",
"1.1.1.1.1.1.1.4.4.1.1.1.1.4.1.4.1.1.1.1.<.Q V a 4 3 4 4 p i i i p p 9 p i i p 4 p 4 4 p q z F { 1.4.4.4.4.4.4.4.4.4.4.4.4.4.4.4.",
"1.1.1.1.1.1.1.1.1.1.1.1.1.1.4.1.4.1.4.4.1.4.1.+.E B j p a p p a g p g g p p p p d h N F ` @.>.4.4.4.4.4.4.4.4.4.4.4.4.4.4.4.4.4.",
"4.1.4.1.1.1.1.4.4.1.1.4.1.4.4.1.4.1.1.4.1.1.4.4.4.4.-.| ^ E B B N N N x N D G J ( -.;.:.4.4.4.4.4.4.4.4.4.4.4.4.4.4.4.4.4.4.4.4.",
"4.>.1.4.1.1.1.1.4.4.1.4.>.4.4.4.>.4.4.4.4.4.4.4.4.1.4.4.4.1.4.1.>.>.>.4.;.4.4.4.1.4.4.4.4.4.4.4.4.4.4.4.4.4.4.4.4.4.4.4.4.4.4.4.",
"4.4.4.4.4.4.4.4.1.1.4.1.4.4.1.1.4.4.1.4.4.4.4.-.4.4.4.1.4.4.4.4.>.>.4.4.4.4.4.4.4.4.4.4.4.4.4.4.4.4.4.4.4.4.4.4.4.4.4.4.4.4.4.4.",
"4.4.4.1.4.4.1.4.1.4.4.>.4.4.4.4.4.4.4.>.1.4.4.4.4.4.4.1.4.4.4.4.4.4.>.4.4.4.4.4.4.4.4.4.4.4.4.4.4.4.4.4.4.4.4.4.4.4.4.4.4.4.4.4.",
"4.4.4.4.1.1.4.4.4.4.4.4.4.4.4.4.4.1.4.4.4.1.4.4.1.4.4.4.4.4.4.4.4.1.>.4.4.4.4.4.4.4.4.4.4.4.4.4.4.4.4.4.4.4.4.4.4.4.4.4.4.4.4.4.",
"4.4.4.4.4.4.1.4.4.1.4.4.4.4.4.4.4.4.4.1.4.4.4.4.4.4.4.4.4.4.4.4.4.4.4.4.4.4.4.4.4.4.4.4.4.4.4.4.4.4.4.4.4.4.4.4.4.4.4.4.4.4.4.4.",
"4.4.4.4.4.4.4.4.4.4.4.4.4.4.4.4.4.4.4.4.4.4.4.4.4.4.4.4.4.4.4.4.4.4.4.4.4.4.4.4.4.4.4.4.4.4.4.4.4.4.4.4.4.4.4.4.4.4.4.4.4.4.4.4.",
"4.4.4.4.4.4.4.4.4.4.4.4.4.4.4.4.4.4.4.4.4.4.4.4.4.4.4.4.4.4.4.4.4.4.4.4.4.4.4.4.4.4.4.4.4.4.4.4.4.4.4.4.4.4.4.4.4.4.4.4.4.4.4.4.",
"4.4.4.4.4.4.4.4.4.4.4.4.4.4.4.4.4.4.4.4.4.4.4.4.4.4.4.4.4.4.4.4.4.4.4.4.4.4.4.4.4.4.4.4.4.4.4.4.4.4.4.4.4.4.4.4.4.4.4.4.4.4.4.4.",
"4.4.4.4.4.4.4.4.4.4.4.4.4.4.4.4.4.4.4.4.4.4.4.4.4.4.4.4.4.4.4.4.4.4.4.4.4.4.4.4.4.4.4.4.4.4.4.4.4.4.4.4.4.4.4.4.4.4.4.4.4.4.4.4.",
"4.4.4.4.4.4.4.4.4.4.4.4.4.4.4.4.4.4.4.4.4.4.4.4.4.4.4.4.4.4.4.4.4.4.4.4.4.4.4.4.4.4.4.4.4.4.4.4.4.4.4.4.4.4.4.4.4.4.4.4.4.4.4.4.",
"4.4.4.4.4.4.4.4.4.4.4.4.4.4.4.4.4.4.4.4.4.4.4.4.4.4.4.4.4.4.4.4.4.4.4.4.4.4.4.4.4.4.4.4.4.4.4.4.4.4.4.4.4.4.4.4.4.4.4.4.4.4.4.4.",
"4.4.4.4.4.4.4.4.4.4.4.4.4.4.4.4.4.4.4.4.4.4.4.4.4.4.4.4.4.4.4.4.4.4.4.4.4.4.4.4.4.4.4.4.4.4.4.4.4.4.4.4.4.4.4.4.4.4.4.4.4.4.4.4.",
"4.4.4.4.4.4.4.4.4.4.4.4.4.4.4.4.4.4.4.4.4.4.4.4.4.4.4.4.4.4.4.4.4.4.4.4.4.4.4.4.4.4.4.4.4.4.4.4.4.4.4.4.4.4.4.4.4.4.4.4.4.4.4.4.",
"4.4.4.4.4.4.4.4.4.4.4.4.4.4.4.4.4.4.4.4.4.4.4.4.4.4.4.4.4.4.4.4.4.4.4.4.4.4.4.4.4.4.4.4.4.4.4.4.4.4.4.4.4.4.4.4.4.4.4.4.4.4.4.4.",
"4.4.4.4.4.4.4.4.4.4.4.4.4.4.4.4.4.4.4.4.4.4.4.4.4.4.4.4.4.4.4.4.4.4.4.4.4.4.4.4.4.4.4.4.4.4.4.4.4.4.4.4.4.4.4.4.4.4.4.4.4.4.4.4.",
"4.4.4.4.4.4.4.4.4.4.4.4.4.4.4.4.4.4.4.4.4.4.4.4.4.4.4.4.4.4.4.4.4.4.4.4.4.4.4.4.4.4.4.4.4.4.4.4.4.4.4.4.4.4.4.4.4.4.4.4.4.4.4.4.",
"4.4.4.4.4.4.4.4.4.4.4.4.4.4.4.4.4.4.4.4.4.4.4.4.4.4.4.4.4.4.4.4.4.4.4.4.4.4.4.4.4.4.4.4.4.4.4.4.4.4.4.4.4.4.4.4.4.4.4.4.4.4.4.4.",
"4.4.4.4.4.4.4.4.4.4.4.4.4.4.4.4.4.4.4.4.4.4.4.4.4.4.4.4.4.4.4.4.4.4.4.4.4.4.4.4.4.4.4.4.4.4.4.4.4.4.4.4.4.4.4.4.4.4.4.4.4.4.4.4.",
"4.4.4.4.4.4.4.4.4.4.4.4.4.4.4.4.4.4.4.4.4.4.4.4.4.4.4.4.4.4.4.4.4.4.4.4.4.4.4.4.4.4.4.4.4.4.4.4.4.4.4.4.4.4.4.4.4.4.4.4.4.4.4.4.",
"4.4.4.4.4.4.4.4.4.4.4.4.4.4.4.4.4.4.4.4.4.4.4.4.4.4.4.4.4.4.4.4.4.4.4.4.4.4.4.4.4.4.4.4.4.4.4.4.4.4.4.4.4.4.4.4.4.4.4.4.4.4.4.4."
};
