/* XPM */
static char *_856e155d1e54219e5cd4d6ef3a3473eOy24Uu8hzznHsQOM[] = {
/* columns rows colors chars-per-pixel */
"64 64 225 2 ",
"   c #DE7D17",
".  c #E17F16",
"X  c #DE811C",
"o  c #E68116",
"O  c #E98316",
"+  c #E5841B",
"@  c #EA851A",
"#  c #EB881E",
"$  c #F08614",
"%  c #F58915",
"&  c #FA8C16",
"*  c #F58C1C",
"=  c #FA8E1A",
"-  c #FA901E",
";  c #DC8427",
":  c #DE8C35",
">  c #DD8E39",
",  c #D8993F",
"<  c #E48723",
"1  c #E68926",
"2  c #EA8B24",
"3  c #E58B2C",
"4  c #E98D2B",
"5  c #F38E22",
"6  c #ED932E",
"7  c #EE992F",
"8  c #F59126",
"9  c #FA9223",
"0  c #F4932C",
"q  c #FA962B",
"w  c #FA982E",
"e  c #E58E32",
"r  c #E98F30",
"t  c #E18E38",
"y  c #E69135",
"u  c #EA9234",
"i  c #E5933B",
"p  c #EA953B",
"a  c #EE9A3D",
"s  c #F39633",
"d  c #F59935",
"f  c #FB9B34",
"g  c #F29738",
"h  c #F49B3B",
"j  c #FB9D38",
"k  c #FA9D3A",
"l  c #FB9E3B",
"z  c #FB9F3C",
"x  c #F99F3E",
"c  c #EDA13F",
"v  c #FBA03F",
"b  c #A5AD5C",
"n  c #B5B36D",
"m  c #BBB97A",
"M  c #DD9C47",
"N  c #D79A50",
"B  c #E79843",
"V  c #EA9A43",
"C  c #E49B4B",
"Z  c #EB9D4B",
"A  c #F39D42",
"S  c #F89F40",
"D  c #F09F49",
"F  c #E89F50",
"G  c #DAA64B",
"H  c #CAAA59",
"J  c #D7A958",
"K  c #DCAC59",
"L  c #E8A446",
"P  c #EDA24A",
"I  c #F6A144",
"U  c #FBA141",
"Y  c #FBA243",
"T  c #FBA345",
"R  c #F5A44B",
"E  c #FBA54A",
"W  c #F4A84E",
"Q  c #FBA84F",
"!  c #E5A657",
"~  c #EDA354",
"^  c #EAAA54",
"/  c #EDAC5B",
"(  c #F3A553",
")  c #FBAA54",
"_  c #F3AA5A",
"`  c #FBAE5A",
"'  c #FCB05F",
"]  c #C9AD65",
"[  c #CAB36B",
"{  c #D5B669",
"}  c #C3BA76",
"|  c #C8B877",
" . c #DAB475",
".. c #EEAC66",
"X. c #E4B26A",
"o. c #FBB161",
"O. c #FCB569",
"+. c #FABB76",
"@. c #88C476",
"#. c #B0C17B",
"$. c #C5C37B",
"%. c #57CE8A",
"&. c #6AD08A",
"*. c #64D192",
"=. c #6BD294",
"-. c #6CD499",
";. c #74D396",
":. c #72D59D",
">. c #7DD69B",
",. c #76D6A1",
"<. c #7BD6A3",
"1. c #7CD8A5",
"2. c #7FDAA9",
"3. c #7BDAB1",
"4. c #BCBA86",
"5. c #B6BE96",
"6. c #C6BD89",
"7. c #8AD195",
"8. c #BAC68C",
"9. c #AAC796",
"0. c #B7C599",
"q. c #ADD29C",
"w. c #B4D39B",
"e. c #9BCFAA",
"r. c #86D8A6",
"t. c #84D7A9",
"y. c #85D9AA",
"u. c #8AD9AC",
"i. c #90D7A6",
"p. c #93D9A9",
"a. c #9CDBAD",
"s. c #83DDB5",
"d. c #8DDBB1",
"f. c #92DBB3",
"g. c #9ADCB4",
"h. c #9CD7BE",
"j. c #95DEB9",
"k. c #9DDEBD",
"l. c #A7CCA8",
"z. c #B8CBA8",
"x. c #A9D7A8",
"c. c #B5D4AA",
"v. c #BEDDAD",
"b. c #AACDB4",
"n. c #B2CFBA",
"m. c #ABD4B6",
"M. c #A4DCB4",
"N. c #A1DEBD",
"B. c #ACDCBA",
"V. c #BCDBB3",
"C. c #B5DDBB",
"Z. c #B9DFBC",
"A. c #95E3B5",
"S. c #9BE1B5",
"D. c #9DE2BC",
"F. c #A5E3B6",
"G. c #A2E3BC",
"H. c #AAE3BD",
"J. c #BBE2B6",
"K. c #B3E1BE",
"L. c #BAE1BE",
"P. c #C5C289",
"I. c #C0C696",
"U. c #CAD9AC",
"Y. c #D8D4AC",
"T. c #C7DDB6",
"R. c #D7D5B5",
"E. c #C7E4BE",
"W. c #8CDEC2",
"Q. c #9EDEC2",
"!. c #A2DEC2",
"~. c #ABDBC3",
"^. c #A3DDC9",
"/. c #ABDBCA",
"(. c #B7D9C6",
"). c #B4DEC4",
"_. c #BCD9C7",
"`. c #B2DDCC",
"'. c #A5DFD4",
"]. c #9EE1C1",
"[. c #A4E1C3",
"{. c #AAE4C4",
"}. c #ABE8C3",
"|. c #A5E2C8",
" X c #ACE6CB",
".X c #AEE8C8",
"XX c #B5E2C3",
"oX c #BAE2C1",
"OX c #B4E6CD",
"+X c #BCE6CB",
"@X c #B4E9CD",
"#X c #BAEACE",
"$X c #AFE6D1",
"%X c #B2E7D1",
"&X c #B5E8D2",
"*X c #BAEAD3",
"=X c #BDEADA",
"-X c #BCE3E7",
";X c #C7DBC7",
":X c #D5DBC1",
">X c #C3E7CC",
",X c #D5E3C7",
"<X c #CBE7D6",
"1X c #C2EDD5",
"2X c #C4EDDA",
"3X c #CBEEDC",
"4X c #D3E9D4",
"5X c #D6EBD7",
"6X c #D3ECDB",
"7X c #CCF0DE",
"8X c #D3F0DF",
"9X c #C4E4E7",
"0X c #CCEEE2",
"qX c #D1EFE3",
"wX c #CFF1E1",
"eX c #D4F1E5",
"rX c #DCF4E6",
"tX c #DDF5E9",
"yX c #CEE6F8",
"uX c #E4F6EC",
"iX c #E6F7ED",
"pX c #EBF9F2",
"aX c #F2FBF6",
"sX c #F6FCF8",
"dX c #FEFFFE",
/* pixels */
"` ) E E Y z h p Y S k z z k k f j g u j f f j d f j j s u f f f z z j U z z S z k h y k k k k k U Y Y E Y p E Y Y Y z k Y T z Y ",
"` ) W E S S A i h S z h g h g h k u p h k f z j f k d s r d s 0 s j h S k d h j 0 g e g g 0 0 f z A g a p i a A g g d f d z k g ",
"( Z V B y p V i y p p t u u y u y e e r y 3 e r e r 3 3 4 r 6 4 4 u r y u y r p y i u y 6 6 y y u y y u p p i p p u p p p p p y ",
"E E Y S k z z j f f k 3 k k f k j w j j f f d j k d s r f f j f j f z f k j z S a f f f k j j j f k z Y z z u T Y z Y k k k k k ",
"Y E Y Y f z Y k f k k y f f f j z f z z j j j z j f g p k k f j j w d w k j j j y k k f k k f f f f f j f j y k f j v j k k k k ",
"Y Y Y z k Y j k j k d u j j j j f j j f f f z j j f d u z j j j v j f v f f j j y s k f w f f f w f q q w w 3 k w w q w f j f f ",
"k k k f k z f f j f 0 u f f z j j z z f j j k j z z g u f k j f w f f w w f f j 4 g f f w f f w f f - - 9 q 4 8 = 9 9 w f w w 9 ",
"Y Y S z z Y Y k z j k u j j z j I E S j j j z z z z h V W / X.{ ! ^ I k f f f f 6 0 q q 9 j q 9 w 9 - - 9 q 2 9 9 9 q w w w q q ",
"S S S h d A R g h h d e g L G n 7.&.H g u g A Z ^ X.| 0.c.m.~.!.N.m.x.0.| ] C y X < 2 2 2 3 4 4 2 2 2 2 y 2 ; 2 2 4 y 4 4 y 4 u ",
"R D Z V i a V V V p p y , b &.3.W.t.H e M H m 0.c.).*X*X2X2X2X2X2X1X=X*X X^.b.5.n N a s u 4 0 g s 8 0 8 s 0 0 0 0 e u d d s f s ",
"Q E E E B I v T U Y k L @.W.-X'.s.#.J 6.x.{.*X3XeXtXtXtXeXqXqXeXeXeXeXeXwX0X-X*XOXn.6.K B u f f f q w w w f f f f u s f j j f f ",
"` E E E V I z v U z z @.W.-XyXyX0Xe.C.2XtXpXsXdXdXdXdXdXsXpXtXeXeXeXeXqXeXwXeXwX0X-X`.z.6.J d q q q w f f f w w f u w w f w q f ",
"T z z U C z S T T z c 7.i.9.2X-X%XrXaXsXdXdXdXdXdXdXdXdXdXdXsXtXeXeXeXeXeXeXwX6XqXqX3X>X_.z.| V q 9 q q w f w w w 4 0 f f q q q ",
"Y j j T V f k v U k h G G H g.*XaXdXdXdXdXdXdXdXdXdXdXdXdXdXdXiXeX6X7X7X3X6X6X4X4X6X4X4X0X9X(.z.J j f d v j f f k y k v j j j j ",
"T S z z i k j z U f f j d $.1XaXdXdXdXdXdXdXdXdXdXdXdXdXdXdXdXrX2X2X2X7X3X6X5X4X4X5X5X,X,X6X<X;Xb.| U v z j k z Y V R E U T T E ",
"z k j k i f f d f j j k #.XXpXdXdXdXdXdXdXdXdXdXdXdXdXdXdXdXiX[.#X*X#X*X*X1X>XE.>XE.,X,X4X,X:X:X;Xb.| Y f f f Y k p U E T E T U ",
"Z V V p > i e e : e i m [.eXsXdXdXdXdXdXdXdXdXdXdXdXdXdXdXrXD.[.$X$X%X&X*X=X+XL.oXJ.J.E.<XT.U.Y.Y._.b.} i 4 e 6 e : e y B p V V ",
"Q E T T S S z j e g } N.1XeXpXdXdXdXdXdXdXdXdXdXdXdXsXiX#Xu.].$X$X$X$X%X%X&X%X%XXXoXJ.J.L.U.Y.Y.Y.R._.b.[ d s s s 0 s e s s A R ",
"T v j j f j j k e J M.2XeXeXeXiXpXsXdXsXdXsXsXpXrX#XA.y.u.|.&X$X%X%X%X%X%XOX%X%X&XOXXXoXV.v.v.U.Y.Y.R.(.l.J w f w w f r f j Y Q ",
"S S z f j j j f M 9.%X0XwXqX0X2X1X1X2X1X#X}.G.f.u.u.A.|.&X$X$X&X%X%X%X*X%XOXOX%X@XXXXX).oXJ.V.x.c.Y.R.R.(.0.c w q w 0 r j E E ) ",
"z j f f f f f f m G.0XqXwXwX*X@X#X#X*X&X@XOX XOX%X%X&X$X$X$X&X$X%X&X&X&X*X%XOXOXOXXXXXXXXX).Z.;.i.U.U.R.>Xn.m k j z R Z ) ` ` ` ",
"z f f w f w f Z x.=XqX0XwX1X#X}.$X&X&X&X*X%X&X&X$X$X$X$X&X$X&X%X%X%X&X&XOXOX*XOXXX+XoXoXoXZ.B.&.M.v.v.U.:X&Xm.K T S ) F o.` o.o.",
"z U j j f f f [ |.0XeX3X=X*X&X[. X&X&X&X&X&X$X$X$X%X%X%X&X$X%X%X&X%X%X%XOX%X*XOXoXXXZ.Z.Z.Z.a.=.H.Z.T.U.T._.^.4.z S R Z E R W S ",
"W R z L f d h 9.*XeX7X2X*X&X&X[.[.&X&X&X&X$X$X&X%X%X%X&X$X&X@X%X&X%X&X&X%X*XOX&XXXXXJ.C.C.C.r.;.C.L.C.v.V.`.^.b.M 4 e ; 4 r r r ",
"_ R B i t r H M.9X0X2X1X*X&X&X[.D.&X&X%X$X$X$X&X$X%X%X%X$Xj.3.%X&X&X&X&X&X*X1X7X1X>XoXZ.Z.C.;.i.Z.XX).Z.V.~.Q.Q.n = 3 5 5 9 9 9 ",
"O.E z u r w | {.0X3X1X=X&X&X*X XA.%X%X%X$X$X&X$X$X&X%X%X X-.2.|.$X&X&X*X7XtXiXiXuXrX3XL.J.B.&.M.Z.Z.XXoXC.^.Q.^.9.0 2 0 q w 0 w ",
"+.o.) D A S 9.&X3X2X=X&X&X*X&X Xy.|.%X%X$X&X&X$X$X&X&X%Xj.-.|.j.$X&X=XeXpXpXiXiXuXuXuXoXL.a.;.C.Z.oXL.oXK.^.^.^.l.M < q w f f k ",
"+.o.) ( ~ _ x.=X3X*X*X&X&X&X%X X1.].%X%X$X&X$X$X&X$X&X X-.d.%Xj.j.&XwXpXpXiXiXiXuXuXuX>XZ.r.>.Z.oXoXL.L.{.!.^.^.!.H 2 k E U E R ",
"o.` ` ( ( X.M.=X1X#X&X&X$X&X&X$X<.d.%X%X%X%X$X&X&X&X&XA.-. X&X X2.}.tXpXiXiXtXtXuXuXuX>XL.;.p.oXoXL.L.oX{.!.!.^.!.4.B E ) ` ` ` ",
"` Q ) Z (  .N.=X#X&X&X&X$X$X$X%X3.2.%X$X&X&X&X%X&X$X%X-.s.&X&X&Xu.y.eXpXiXwX*X*XrXiXrX>XH.=.M.oX>XZ.oXL.[.Q.!./.^.5.V E ) ) ) o.",
"_ ( D B C  .h.*X&X@X%X$X&X$X@X%Xf.-.$X&X%X&X%X&X&X&XA.-. X&X&X*X}.-.[.uXtX7X*X+X6XiX6XoXa.;.C.XXoXL.oXK.!.Q.Q.^.^.5.N Z F ! F ..",
"R ( R D A [ g.%X&X&X&X$X$X$X&X&X].-. X&X&X&X&X&X&X%X:.s.&X&X&X&X&X2.:.=XtXtX7X6XiXrX>XL.r.>.oXL.oXoXL.{.[.k.Q.^.!.e..._ o...! +.",
"o.' ) E S  .f. X%X%X&X$X&X&X&X&X}.-.].&X&X&X&X&X&XD.-. X&X*X&X*X&X@X:.}.=XeXrXrXrX1XoXJ.;.p.oXL.L.L.K.|.Q.k.[.^.!.l._ ) ) ) ~ ` ",
"o.o.o.) E  .f.|. X$X$X&X&X&X&X&X$X:.A.&X&X&X&X&X&X:.u.&X&X&X&X&X&XeXA.r.=X*X#X>XoXoXL.K.=.M.L.L.L.XX[.[.k.[.[.!.!.9.W E Q W C ) ",
"' ` ` ) E  .g.!.|.|.$X&X&X$X&X&X&X2.y.&X&X&X&X*XD.*.{.&X&X*X&X&X*XrX%X:.D.*X#X+XL.oXJ.M.=.K.L.L.K.[.!.k.k.!.[.^.^.9.I T Q Q Z ) ",
") ) E E E ..a.].|.|.[..X$X&X&X&X*Xs.1.&X&X&X&X&X,.y.*X&X*X&X*X&X*XeXrX}.:..X*XoXL.L.L.r.7.oXL.K.N.[.[.k.Q.!.[.|.^.m k z E W F ) ",
"E D k h h F l.A.|.].|.|.[.$X&X&X*XD.-.@X&X*X*XD.-.}.&X&X*X&X*XOX.X{.XX~.=.d.@X#X+XL.L.;.i.oXXX!.[.].k.Q.[.!.!.~.!.| S z E R F ) ",
"/ Z B B i h 0.A.|.].|.|.|.[. X&X*X|.-.}.*X#X@X1.y.*X*X*X&X[.D.A.d.d.d.d.,.%.y.A.~.).B.*.g.[.N.!.Q.k.Q.!.!.!.!.|.m.] V C V C N Z ",
") R E h p v  .f.].Q.Q.|.|.|.|.[. X}.-.D.*X*X[.:.}.*X*X Xj.p.f.f.f.f.f.f.d.*.-.u.d.M.g.*.k.[.!.Q.k.!.[.[.[.!.^.^.b.! E E E W I ) ",
"E Y E A a v R x.].|.].].|.].[.|.}.G.-.s.#X*Xu.d.&X#X[.d.f.f.f.f.f.f.d.d.d.t.%.y.d.t.:.:.!.N.k.k.!.!.Q.!.Q.{.|.^.8.E E E E E R E ",
"Y Y S d p S z | S.G.[.].].|.[.|.[.|.1.-.[.D.1.}.@XG.f.f.f.f.f.f.f.f.f.d.d.u.*.*.t.t.*.t.k.k.!.!.[.Q.!.!.^.{.~.B.J z T k S j S T ",
"Y Y S s p z z ` q.S.].].Q.|.|.[.[.|.u.-.[.s.y.G.D.r.y.u.u.f.d.p.d.d.d.u.u.d.<.%.<.t.=.d.!.N.!.!.[.[.!.[.|.^.|.0.L U j j j j z z ",
"S S A p p h z A | M.D.].].[.[.|.|. XA.*.j.y.D. Xj.y.y.r.y.u.t.y.u.t.u.y.t.t.y.*.*.<.=.h.!.!.!.!.!.[.!.!.N.G.N.H j j z S h z T z ",
"h A p p p p y : L 8.D.].].Q.|.[.[.|.].*.r.j.|.[.N.u.u.u.u.u.u.u.t.d.t.t.y.y.y.<.%.=.<.h.!.!.N.N.!.Q.!.!.N.{.9.i e e i r r u i p ",
"z f f j f f f 4 d ^ w.D.].D.].}.|.[.[.-.,.[.|.[.[.f.u.u.u.y.i.u.u.u.u.u.u.u.y.y.*.%.d.!.N.!.!.!.!.[.!.D.G.m.J z p d j f z z z j ",
"z f j z f f k r c w K q.D.D.].[.{.{.[.<.1.{.{.[.[.N.f.u.u.u.u.u.u.u.u.u.u.y.y.y.<.*.f.!.!.!.!.!.[.N.k.G.~.| z k e k z z z j k z ",
"j j j f j j k 4 v w v { M.D.D.D.|.{.[.[.[.{.!.{.[.{.G.f.u.u.u.u.u.d.t.u.t.y.t.p.h.k.N.!.!.!.!.N.!.M.G.~.5.z j k p h z z k j j j ",
"w w f q f w w y 0 w w 7 [ F.[.D.[.[. X[.[.[.~.!.[.[.~.[.k.g.f.f.p.u.u.p.f.g.N.|.!.!.!.!.N.!.!.k.k.G.`.z.P f j z p z j j z j k f ",
"f j j f f f f u k f k w h $.F.G.G.].}.}.}.|.[.[.[.[.[.}.G.{.!.!.N.!.G.[.{.!.[.[.[.!.[.Q.!.N.N.D.F.`.z.^ z j z S p j k k k j j f ",
"k g s s j s d e u s g s 8 y m F.G.G.].].[.|.[.}.[.[.[.[.{.[.{.!.{.!.{.[.N.{.[.[.!.[.[.[.N.N.G.B./.0.! g d k h h t p z g h g d d ",
"a p g p p p u p u s p t 6 6 7 [ x.D.G.G.].}.].[.[.[.[.{.[.[.{.[.[.[.~.[.{.!.~.|.[.G.[.M.G.F.{.B.5.M t p p p V g p p p t p g u u ",
"h p j j z z f z z z h y j v f w L 8.F.D.D.G.].[.[.G.[.N.[.[.[.[.!.[.G.[.[.[.G.G.[.[.G.F.}.~.l.{ S h p S z z T U v z v p z Y k k ",
"p a E z z z z z j v d e f w j q w c { w.F.G.D.G.[.{.}.[.[.[.[.[.{.!.{.[.[.G.{.H.G.G.}.~.z.m L f k d p U U U U U Y z T p S T U z ",
"D D ) E E E f f f k d 3 q q f w q q 9 v H P.x.H.}.}.}.}.}.}.}.}.}.}.}.}.}.H.H.}.XXC.0.[ L f w d f k y j j z j j k f k u h z k T ",
"_ ( Q Q E U 9 9 w w 8 2 - - 9 9 - - - - 2 w L { P.c.C.XX.X@X.X@X XXX}.OXOX).V.0.m J s 9 q q 9 w w 0 4 w f f w q q 9 0 2 8 q 9 q ",
"( ~ ) Q T f w q 9 9 9 2 - - - - - - - 9 1 q w q q c G { | P.0.I.c.c.z.0.6.{ L 7 2 9 9 q w w q w 9 0 2 w f w w q w q q 2 q q 9 9 ",
"p 2 0 8 5 2 # * * * @ + * * * = * = 9 9 1 0 q - - * = * - 2 1 6 6 6 0 0 8 - * * < 5 5 5 s s 0 s 0 8 1 0 0 0 8 8 0 8 8 3 8 0 9 w ",
"2 # @ @ @ o + @ @ @ O O O O o o o @ o O   O o o   O o o o o o o O . o @ O O O O + + @ @ . + @ @ + + < @ X + 2 2 < 2 < # 1 < ; 3 ",
"9 9 9 = = @ % & & & & & & & & @ O & & & * & $ % o $ & & & & & & & @ $ & & & * & = = & % @ & & & = & = & O % & & = = 9 9 9 = 3 f ",
"w w q w 9 * * = = & - - & = & @ $ & & - = = - & O & & & & & = & & @ % & - - - - = = = * @ = = = = = = = @ % & & = = & = 9 8 y U ",
"E T Y w 9 2 * = = = & = - = & @ $ & & = - - & - + = = * & - - - & @ * & = - = - 9 = = 5 + = & & & & = = @ * = - 9 9 9 9 9 f u T ",
"T E Y Y Y a h f f w 9 9 w q w 2 6 9 9 9 9 9 9 q 1 8 q q 9 9 9 q w 2 0 9 9 9 q q 9 w f 0 2 q 9 9 9 = = 9 < 8 w q w q w w w d y k ",
"E T E Y j u s j f w w w f f f 0 0 w w f w w w w e s f w w f w f f 4 0 q q q w w k j f 0 4 w w q 9 q q q 4 d f f k f k f d z p k ",
"E E T T v u 0 f w f w f f w f y s q w w w w f q 3 w w w 9 q q f q 2 8 q 9 0 f k T f w 6 6 w q q q 9 q q 4 0 f w j f k T T S V z "
};
