/* XPM */
static char *e66abce3284a4aaeb94f209aeb2dc56fNkdBU7VWWBmWy5vl[] = {
/* columns rows colors chars-per-pixel */
"64 64 139 2 ",
"   c #040100",
".  c #090502",
"X  c #0D0A04",
"o  c #0E0A09",
"O  c #120F09",
"+  c #15120C",
"@  c #1B1713",
"#  c #1D1A13",
"$  c #211E15",
"%  c #201D18",
"&  c #25221D",
"*  c #2A271E",
"=  c #2B281F",
"-  c #282423",
";  c #2E2B25",
":  c #322F26",
">  c #332F2E",
",  c #36322C",
"<  c #38352C",
"1  c #373334",
"2  c #3E3A37",
"3  c #45423B",
"4  c #49463D",
"5  c #4B4746",
"6  c #4F4C46",
"7  c #504D44",
"8  c #524E4A",
"9  c #56534B",
"0  c #5B584F",
"q  c #575351",
"w  c #585551",
"e  c #5D5A53",
"r  c #635F5C",
"t  c #636057",
"y  c #66645D",
"u  c #6A675E",
"i  c #6A6662",
"p  c #6B6863",
"a  c #716E65",
"s  c #716D6A",
"d  c #73706A",
"f  c #79766D",
"g  c #7C7A6F",
"h  c #777370",
"j  c #797571",
"k  c #7D7974",
"l  c #807D76",
"z  c #807C7D",
"x  c #87847D",
"c  c #8A8781",
"v  c #8C8883",
"b  c #8F8B88",
"n  c #939087",
"m  c #97948B",
"M  c #98958E",
"N  c #989491",
"B  c #9E9B94",
"V  c #A19E96",
"C  c #A5A29D",
"Z  c #A9A69D",
"A  c #ADAAA2",
"S  c #ADA9A8",
"D  c #B0ADA6",
"F  c #B1AEAA",
"G  c #B6B3AD",
"H  c #B7B3B0",
"J  c #B8B5B1",
"K  c #BDBBB2",
"L  c #C2BFB6",
"P  c #C0BDB8",
"I  c #C6C3BC",
"U  c #CBC8BE",
"Y  c #CECBC2",
"T  c #D2CFC6",
"R  c #D2CFC8",
"E  c #D4D1CA",
"W  c #D9D6CE",
"Q  c #DBD7D4",
"!  c #DDDAD3",
"~  c #DEDAD9",
"^  c #E1DED7",
"/  c #E5E1DA",
"(  c #E9E6DD",
")  c #ECE9DF",
"_  c #F0EEDF",
"`  c #EAE6E3",
"'  c #EEEBE2",
"]  c #EEEAE9",
"[  c #F1EEE4",
"{  c #F2EFEA",
"}  c #F4F2E6",
"|  c #F8F6E7",
" . c #F6F3EA",
".. c #F8F6E9",
"X. c #FDFBEC",
"o. c #FCFAED",
"O. c #FCFAEE",
"+. c #FDFBEF",
"@. c #FEFCED",
"#. c #FFFDEE",
"$. c #FEFCEF",
"%. c #FBF9ED",
"&. c #F9F6F1",
"*. c #FAF7F0",
"=. c #FBF8F1",
"-. c #FBF8F3",
";. c #FCF9F0",
":. c #FDFAF1",
">. c #FCF9F2",
",. c #FDFAF3",
"<. c #FEFBF2",
"1. c #FEFCF0",
"2. c #FFFDF0",
"3. c #FFFDF1",
"4. c ivory",
"5. c #FFFFF1",
"6. c #FFFCF3",
"7. c #FFFEF2",
"8. c #FFFFF3",
"9. c #FDFAF5",
"0. c #FEFBF4",
"q. c #FDF9F6",
"w. c #FEFBF6",
"e. c #FEFAF7",
"r. c #FFFDF4",
"t. c #FFFCF5",
"y. c #FFFFF4",
"u. c #FFFEF5",
"i. c #FFFFF6",
"p. c #FFFEF7",
"a. c #FFFEF4",
"s. c #FFFBF8",
"d. c #FFFFF8",
"f. c #FFFEF9",
"g. c #FFFCFB",
"h. c #FFFFFA",
"j. c #FFFEFB",
"k. c #FFFDFC",
"l. c #FFFEFD",
/* pixels */
"........| ................................................| ..............| ....................................................",
"........| | ......| ......................| ......................................................................| ............",
"..........| ..........................................................................| ........................................",
"..............................| ......................| ....................................| ................................| ",
"................................| ........................................................| ......| ............................",
"..........| ..............................................| .... ...............................................................",
"......................| ....................| ..................%. .................................................| ..........",
"................................................................ .%.........| ................................| ................",
"................................................................| %.} %.............................| ..........................",
"..............| ......................................| ........%.} | | ..| ...................................... .............",
"| ....................| ................................................} %.......| ....................................| ......",
"..............................................................................................| ................| ..............",
"..........................| ..............................| ........................................................| ..........",
"................| ...................................................... .....................................| ................",
"............................................................| | ........%.......................| ..............................",
"............................................................| | ......| | | ....................................................",
"................................ .} %.%.%.0./ ;...h.' | u.} | X.| |  .%.%.%.%... . .%.%.o.o._ X.................................",
".............................. .;.} %.} }  .;.=.` } h.' 0.' #._ | | | ..| &. . .;.=.%.} } } | #.................................",
"| ..............................o.} %.} ....h. .h. .0.u.| | #.| | | | .. ... . .}  . . .X.} X.| ..................| ............",
"..........| ..............| ....| } ;.%.-.=.I W %.M k ..) | } | | | %.......%.%.} ..| %.#.} #._ ........................| ......",
"............................| ..|  .%. . ...i J h.y , h.#.} u.|  .| ..|  .&.&.,.l...0.} | [ ;.| ..............| ................",
"......| ..............| ........%.| | }  .h.3 G l.i , } U k | )  .| %.|  . .&.=.R Y -.' ..} 0.} ..................| ............",
"................................| } | ' ..h.6 J -.d ; ..B & =.u. ...%.| }  .=.,.c M =...%.%.%.[ ..| ............................",
"................................| } %.' &.-.q A l.d X u.V O  .}  ....... .} %.u.d x h.&.} | } %.................................",
"................................%.} %.|  .h.6 A g.s o { A o ` } ' | =.} } l. .l.y c h.%.} } %.} ....| ..........................",
"............| ..................%.} %.| } h.q B q.s   l.N + &.u.u.} | =...{ ] h.j w B / 0.} o.%.................................",
"..| ............................%.| %. . .s.i b k.s   l.k + l.E * 9 u...h.A c G +   # E { %.' %.................................",
"................................| } %.}  .-.h h k.i . ] q 1 l.w .   Z | ~ + y + + # y &.} ;. .%.....................} ..........",
"............................| ..| | %.} | ;.b r k.q   ~ - s g.. L y f u., w k ` s i -.&.0.` 0.......................| ..........",
"................................| | %.} %.0.V 6 k.5   I . S Q   t   T Z + } / k.s q l./ 0.' 0.} ..............| ................",
"................................| X.%.} =.u.H 5 k.1   z o ~ J .   y u.4 o C q.l.i 8 &.&...h...} | ..............................",
"........| ......| ..............%.| %.} 0.u.K 2 ` @   > - q.S . I | 0.< o # J l.i 8 l. .%.' O...................................",
"................................,. ... .%.,.%.; m # & . 6 u.S   } } %.! u.e G u.p 9 u.[ } u.' ,.................................",
"............................| ..%.[ ,. ...[ ' 6   9 e   m u./ O 3 # Y 0.W # I %.u 9 ,.| %.&.|  .................................",
"................................ .' u. . . .%.V   Z B   Y } %.4   : ) Y   & %.u.p e u...0. .u.[ ..................| ............",
"......| ........| ..............%.' ,.{  .0.u.` U %.} C =.u.0.U f U %.! * A u.u.f 0 h.} %.{ u.| ........................| ......",
"................................0.[ ,.[  .} ..=.u.' u.u.{ ' [ h...u...u.' h.' ,.k 0 u.' } %.%.;.%.| ..........| ................",
"..........| ....................%.{ %. .=. .] ..} =...u... .0. .' 0.h.[ u.%.} u.n g u.}  .-.} %...| ................| ..........",
"....| .......................... . . .+.%.%.%.| } u.' ' %.%.0./ | %.' %.} | | ,.U K %.%.&.| %. .................................",
"..................................+.} ..} } 0.} | | %.u. ... .h.%.=.} %.} | 0.} 0.o.} ;.%.' 0.} ..| ............................",
"........| ....................| ........%.......................| ..........&.........&...............................| ........",
"................................%.......| ....................................................&. .........| ....................",
"..................| ............................................................................| ..............................",
"................................................................................................................................",
"................................................................................................................................",
"............................................................................................| ..................................",
"..............| ................ .| .......... .....| ......................................................................| ..",
"..........................| ................| %.................................| ............................| ................",
"..........................................| ............| ....................| ............ .....| ............................",
"| ....................................................................................| ..............................| ........",
"..............| ......................................| ..........| ............................................................",
"......................| ....................................................................| ............| ....................",
"................| ..........................................................................................................| ..",
"..........................| ....| ........................| ..........................................| ........................",
"..................................................................................| ..............................| ............",
"....| ......................................| ..................................................................................",
"............| ........................................| ............%. .%.} | %...............................................| ",
"..........................| ..........| ............................ .%.} %...| ................................................",
"............................................ ......................... ...............| ..................| ....................",
"..| ............................................................| ........| ................| ........ .........................",
"...................... ...................................................................| ....| ..............................",
"............................................................| ........| ........................................................",
"..................| ..............................| ......................................................................| ....",
"..............................| | ......................................................................| ......................"
};
