/* XPM */
static char *f8bc54c08acd4bf5d9aef7c1606c8d7esPcBbrhMSV230eJm[] = {
/* columns rows colors chars-per-pixel */
"64 64 223 2 ",
"   c #DE7E18",
".  c #E27F15",
"X  c #E68116",
"o  c #E98316",
"O  c #E5831B",
"+  c #EA851A",
"@  c #EB881E",
"#  c #F58915",
"$  c #FA8B15",
"%  c #F58C1C",
"&  c #FA8E1A",
"*  c #FA901E",
"=  c #DC8426",
"-  c #DE8C36",
";  c #DC8E39",
":  c #D9983E",
">  c #E58622",
",  c #E68925",
"<  c #EA8A24",
"1  c #E58B2C",
"2  c #E98D2B",
"3  c #F18E23",
"4  c #F88F20",
"5  c #EC932F",
"6  c #EE982E",
"7  c #F49026",
"8  c #FA9224",
"9  c #F4942C",
"0  c #FA962B",
"q  c #F5992F",
"w  c #FA982E",
"e  c #E58E32",
"r  c #E88F31",
"t  c #E69135",
"y  c #EA9234",
"u  c #E5933B",
"i  c #EA953B",
"p  c #E19E3B",
"a  c #EE9A3C",
"s  c #F39633",
"d  c #F59935",
"f  c #FB9B34",
"g  c #F29738",
"h  c #F49B3B",
"j  c #FB9D38",
"k  c #FA9D3A",
"l  c #FB9E3B",
"z  c #FB9F3C",
"x  c #FA9F3F",
"c  c #EEA03E",
"v  c #F4A13F",
"b  c #FBA03E",
"n  c #FBA03F",
"m  c #A4AD5B",
"M  c #B4B36D",
"N  c #BAB97A",
"B  c #DC9B49",
"V  c #E79743",
"C  c #EA9A44",
"Z  c #E59B4B",
"A  c #EA9D4B",
"S  c #F39E42",
"D  c #F69F43",
"F  c #E59E54",
"G  c #DBA84A",
"H  c #CAAA5A",
"J  c #D9AA58",
"K  c #E4A447",
"L  c #EBA345",
"P  c #EDA34C",
"I  c #F6A145",
"U  c #FBA141",
"Y  c #FBA243",
"T  c #FBA345",
"R  c #F5A34B",
"E  c #FBA54A",
"W  c #F5A84D",
"Q  c #FCA84F",
"!  c #EDA353",
"~  c #E8A957",
"^  c #F2A554",
"/  c #F1A955",
"(  c #FBAB54",
")  c #F3AB5B",
"_  c #FBAE5B",
"`  c #FBB05F",
"'  c #C9AD66",
"]  c #C9B46C",
"[  c #D6B56A",
"{  c #C3BA75",
"}  c #C8B878",
"|  c #D6B476",
" . c #EAAF6C",
".. c #E3B36A",
"X. c #FCB161",
"o. c #FCB569",
"O. c #FABB77",
"+. c #8DC06D",
"@. c #83C779",
"#. c #AFC17A",
"$. c #C5C37B",
"%. c #56CE89",
"&. c #68D08D",
"*. c #64D193",
"=. c #6AD294",
"-. c #6DD49A",
";. c #73D396",
":. c #72D59D",
">. c #7CD59B",
",. c #76D6A1",
"<. c #7BD6A3",
"1. c #7CD8A5",
"2. c #7ED9A9",
"3. c #7BDBB2",
"4. c #BBBA86",
"5. c #B5BE97",
"6. c #C5BD8A",
"7. c #83CC8D",
"8. c #8ED79F",
"9. c #B9C68C",
"0. c #AAC696",
"q. c #B9C599",
"w. c #ACD29C",
"e. c #B3D49C",
"r. c #9ACFAB",
"t. c #86D8A6",
"y. c #84D7A9",
"u. c #85D9AA",
"i. c #8AD9AC",
"p. c #90D7A6",
"a. c #94DAAA",
"s. c #9DDBAE",
"d. c #81DDB5",
"f. c #8DDBB1",
"g. c #92DCB3",
"h. c #9CDCB5",
"j. c #9BD7BF",
"k. c #95DEB9",
"l. c #9CDEBD",
"z. c #A8CBA4",
"x. c #B9CAA6",
"c. c #A8D6A8",
"v. c #B4D4AB",
"b. c #BEDDAD",
"n. c #A7CCB3",
"m. c #B1CFB6",
"M. c #AAD5B6",
"N. c #A4DDB4",
"B. c #A1DEBE",
"V. c #ACDCBA",
"C. c #BCDBB4",
"Z. c #B5DEBC",
"A. c #B9DFBC",
"S. c #9AE1B4",
"D. c #95E2B8",
"F. c #9DE2BC",
"G. c #A6E3B7",
"H. c #A2E3BC",
"J. c #AAE4BD",
"K. c #BBE2B6",
"L. c #B3E1BD",
"P. c #BAE1BE",
"I. c #C5C289",
"U. c #CAD9AC",
"Y. c #D8D4AC",
"T. c #C7DDB6",
"R. c #D7D5B5",
"E. c #C7E3BD",
"W. c #8DDEC3",
"Q. c #9EDEC2",
"!. c #A2DFC2",
"~. c #AADCC3",
"^. c #A3DDC9",
"/. c #ABDBCB",
"(. c #B3DCC3",
"). c #BCDAC7",
"_. c #B3DCCB",
"`. c #AADFD2",
"'. c #9EE1C2",
"]. c #A4E1C3",
"[. c #AAE4C4",
"{. c #AAE8C2",
"}. c #A5E2C8",
"|. c #ACE6CB",
" X c #AEE8C8",
".X c #B5E2C3",
"XX c #BAE2C2",
"oX c #B4E6CD",
"OX c #BDE7CA",
"+X c #B3E9CD",
"@X c #BAEACE",
"#X c #AEE6D1",
"$X c #B1E7D1",
"%X c #BAE4D1",
"&X c #B5E8D2",
"*X c #BAEAD3",
"=X c #BDEADA",
"-X c #BCE4E7",
";X c #D5DBC1",
":X c #C3E8CC",
">X c #D5E3C7",
",X c #C2EDD5",
"<X c #C9E9D7",
"1X c #C4EDDA",
"2X c #CBEEDC",
"3X c #D3E9D4",
"4X c #D4E8D6",
"5X c #D3ECDB",
"6X c #CBF0DE",
"7X c #CCEEE2",
"8X c #C8E7E9",
"9X c #D1EFE4",
"0X c #CFF1E1",
"qX c #D4F1E5",
"wX c #DBF4E6",
"eX c #DDF5EA",
"rX c #CFE7F8",
"tX c #E4F6EC",
"yX c #E7F7ED",
"uX c #EBF9F2",
"iX c #F3FCF7",
"pX c #F6FCF8",
"aX c #FEFFFE",
/* pixels */
"_ ( E E U z h i U I k z z z f f k g y k f f f f f b f d y f f f f k z U z b I b f k t k k k f j U E U T E i I T T U z z U T U U ",
"_ ( R E I b D u D z D h g h g g f i y b k f b f d g f d y s s w d d d D g f z f s g e g s s s d h D g h g - a D g g d d d b f g ",
"^ A Z V u u V u e i u e y i i y t e t t e 1 e y e 2 1 = 2 5 2 5 y y y t t y e y e u y y y y y i y i y i a i ; i a i i y y i i t ",
"E E U b f j b j f f f 2 f f f k f f f f f d f k k f s i f j k f f k f f k k k U a d j f f j f f f k b b k b i U U b b k b k b k ",
"U E T U f U U j j k j e f f j b k f b k j j j b k f h a k f f k f f w f k k f b t h j f j j f f f f f k f f u f k f b k k k k k ",
"T T U j U b b j j k d t k f j f f k k f f j j j k f d y b f k b b k f k k f f f y d j f 0 f f j w w 0 0 w f 2 f 0 0 0 w f f f f ",
"k k j f j j j f f f 9 y f f b j j b j f j j k j b k g y f b f f f f f w f f j f y s f f 0 j j 0 f f * * 8 0 , 7 8 * 8 w f w w 8 ",
"U T U j b U U j b z f y j z j b U E b b f j D I b k g C W ~ ..[ ~ K I f f w f j 2 9 0 0 8 j 0 8 w 8 * * 0 0 , 8 * 0 0 f w w 0 0 ",
"I I T h d D R g g h g 1 h d G M @.7.H h g g V D ! ..6.q.v.M.~.^.H.M.c.q.{ ' V t = > 1 < 1 2 2 2 < < < 2 2 1 = < < 2 2 y 2 y 2 5 ",
"R I V V u C V C C i i i : +.&.3.W.y.m g B H N q.v.(.%X*X=X1X1X1X1X1X=X&X#X/.n.5.M B g 9 r 2 9 s 9 3 7 9 s s 9 9 9 t y f s s s s ",
"( E E E V T b U Y b j K @.W.-X}.d.#.J I.c.[.*X2XwXeXeXwXwXqXqXqXwXwXqXqX7X7X=X&X`.m.6.J V s f k j 0 w w 0 j f f f 5 s f k f f k ",
"( E E E V I z b T b k +.W.-XrXrX8Xr.Z.,XeXuXpXaXaXaXaXaXiXuXwXqX9XqXqX9X9XqXqX0X8X1X_.m.4.J f 0 0 0 0 f f f w w f y s w f f w w ",
"E b k T A z z T E U L 7.p.0.-X=XoXqXiXaXaXaXaXaXaXaXaXaXaXaXpXeXqXqXqXqXqX7XqX5X9XqX5X:X).x.} C 0 8 0 w 0 f w w 0 2 9 f w w 0 0 ",
"b f j U V d k U U k k G B J h.=XiXaXaXaXaXaXaXaXaXaXaXaXaXaXaXtXqX7X6X6X0X5X2X3X4X5X3X3X7X8X_.q.J f f j b j f f j t j I b k b f ",
"E U b I i k k k f k f j d $.*XiXaXaXaXaXaXaXaXaXaXaXaXaXaXaXaXwX1X1X2X6X2X5X3X3X4X3X4X>X3X4X4X).m.] U b b j j U U V E T T T T T ",
"k j f f u h f f f k j k #..XuXaXaXaXaXaXaXaXaXaXaXaXaXaXaXaXyX[.&X*X@X*X*X,X:XE.:XE.>X>X3X>X;X;X).m.} v f f f b U i U E T E T U ",
"C C C i ; u t e - e u N ].0XpXaXaXaXaXaXaXaXaXaXaXaXaXaXaXwXD.}.#X#X#X$X&X=X%XXXP.K.P.T.<XR.U.Y.R.).m.N e 2 r e r e u u i i V V ",
"Q Q Y U I z z j e s ] Q.1XqXuXaXaXaXaXaXaXaXaXaXaXaXaXtX+Xi.'.$X#X#X#X#X$X$X$XoX+XP.P.K.P.U.U.Y.Y.Y.).n.] 0 d 9 s g 9 e s s D Q ",
"U z j j f j k j 1 J N.=XqXqXqXtXuXpXaXaXaXaXpXuXwX@XS.2.i.[.$X$X#X$X&X%X+X+X$X$X+X.X.XXXK.b.b.U.Y.Y.R.).n.J 0 f 0 f w e j k D Q ",
"U I j j j j j f B w.&X9XqX7X7X1X,X,X1X*XOX{.F.g.u.u.D.}.$X$X$X$X$X$X&X&X&XoX+X%X&X.X.XP.(.A.b.c.v.Y.R.R./.q.L 0 0 0 9 y j E Q Q ",
"b f f f f j w j N ].7X9XqX6X,X+X+X&X&X+X+X+X|.|.$X$X$X$X$X$X$X$X$X&X&X$X&X&XoX&X+X.X.XXX.X(.A.;.8.U.T.Y.:X~.N k j j D A ( _ _ _ ",
"b f f f w w f P c.=X7X7X6X1X+X}.+X&X*X&X&X&X&X&X#X#X$X#X$X&X$X$X$X&X$X&XoX+X+XoXOX.X.XXXXXA.V.&.N.E.U.U.R._.M.J T D _ F ` _ X.` ",
"b b k f j f w ] ].7XqX6X,X*X&X{.|.&X&X*X&X&X$X$X#X$X$X$X$X$X&X&X$X$X&X$X+X&X&X.XXXXXP.A.A.A.a.=.J.A.T.U.T.%X/.4.z D ^ Z E E E I ",
"^ R z I d d a 0.*XqX6X1X*X&X&X].}.*X&X&X&X#X$X$X$X$X$X$X$X$X$X$X$X$X&X&X&X*X&X&X.XL.A.Z.Z.Z.8.>.L.L.Z.b.C._.}.n.: 2 e = , r r r ",
"! R a ; e r H N.8X7X1X,X*X&X&X}.H.&X&X&X$X#X#X#X#X#X&X#X$Xd.3.$X*X$X$X&X&X*X,X6X,X:XXXA.Z.Z.;.p.A..X(.Z.C.~.Q.Q.' 8 > 3 8 8 4 8 ",
"o.Q b g 5 0 { |.7X2X,X=X&X&X*X[.g.$X$X#X#X$X$X$X#X&X&X&X|.-.u.}.&X&X&X=X6XeXuXuXtXtX<XP.P.V.&.N.A.P.XXXX(.^.Q.Q.0.9 2 9 0 w w w ",
"O.X.( A V I 0.&X6X1X=X&X&X&X&X|.u.[.$X#X$X$X$X$X$X#X&X&XD.-.'.'.$X&X*XqXuXuXtXtXtXtXwXP.P.c.=.Z.(.P.P.XXL.~.Q.^.r.p , 0 w w f j ",
"O.` ( ! ^ ) c.=X2X*X*X&X&X&X&X#X2.'.$X$X$X$X$X$X&X&X#X#X-.f.$XD.D.$X0XuXuXyXyXtXtXtXtX:XP.t.>.P.XXE.P.P.[.].^./.Q.H 2 f E D E Q ",
"` ( ( ! ^  .N.1X,X@X&X&X&X$X$X#X,.f.$X$X$X$X$X$X&X#X&XD.-.|.$X[.2. XeXuXyXtXeXeXyXtXtX:XP.;.a.XXXXXXXXP.[.B.^.}.Q.4.V E _ _ ( _ ",
"( ( ( A ^ | F.=X@X$X$X$X$X$X$X$X3.2.$X$X$X&X&X$X&X&X$X-.d.#X*X$Xu.u.0XuXuX6X&X*XwXyXwX:XJ.=.N.XXXXXXXXXX!.}.Q./.^.5.Z R Q _ _ ` ",
") ^ ! Z C | j.&X*X$X$X$X$X|.&X&Xf.:.$X$X&X$X&X&X&X&XD.-. X&X&X&X[.=.].eXtX2X@XOX5XyX2XXXs.=.Z.XX.XP.XXL.!.!.l.^.^.5.B F F ! F  .",
"Q R R S S ] h.&X+X$X$X$X$X$X$X&X].=.|.$X&X&X&X$X&X#X-.d.*X*X&X*X+Xd.,.*XeXwX6XqXyXwX:XP.8.t.XXP.P.XXP.[.!.l.!.^.!.r.) ` X. .F o.",
"X.` ( E U | g.[.$X$X$X$X$X$X&X&X}.=.{.&X&X&X&X&X*XD.=. X&X*X&X*X*X+X:.{.,XqXwXeXwX<XP.P.;.p.E.XXP.P.[.].!.l.].^.!.z./ ( ( Q ! ` ",
"X.` _ ( E | g.}.#X$X$X&X&X&X&X&X$X-.D.&X&X&X&X&X$X,.u.&X&X&X&X&X*XqXD.1.,X*X*XOXXXP.P.L.&.N.P.P.P.L.[.!.l.'.].!.^.0.W E Q R Z ( ",
"_ _ _ _ Q ..a.^.'.}.$X$X&X&X&X&X*X2.d.&X&X&X&X*X'.=. X&X*X&X&X&X*XwX+X:.'.*X*XXXP.P.P.N.;.L.P.P.L.].!.l.Q.!.].^.Q.0.U E E ( Z ( ",
"( ( T Q E  .h.'.}.}.}.|.+X$X&X&X&Xf.,.*X&X&X@X&X,.u.*X&X&X*X*X&X*XqXwX{.-.+X*XXXP.P.P.t.>.P.P.L.B.!.].l.!.!.!.}.^.4.f b E ^ P ( ",
"Q D h S h Z z.F.}.}.}.}.].|.&X&X*XF.-. X@X*X*X'.=. X+X&X*X&X*X+X|.[.[.[.=.f.+XOXXXXXA.;.p.P..X!.].].l.'.!.].!.^.Q.{ z E E R A ( ",
") Z V V i V q.D.}.'.'.}.}.'.|.&X*X}.-.}.&X@X*X,.d.&X*X*X+X[.F.g.a.g.f.f.,.%.i.D.[.(.V.=.h.[.l.].Q.l.Q.!.!.!.].!.M.H V V C Z B ! ",
"Q E E h a k [ g.'.}.'.}.}.}.}.]. X{.-.F.*X*X{.-. X*X*X Xg.g.g.g.g.g.f.g.i.*.-.i.i.B.h.*.l.!.!.Q.l.Q.].!.!.!.^.].n.~ E E E E R R ",
"Q E E S a U R c.'.}.'.Q.}.].}.}.{.'.-.f.@X&Xi.f.*X+X].a.g.g.g.g.g.f.g.f.g.y.%.u.f.y.:.:.!.B.l.Q.!.!.!.!.].}./.].9.R E E E E Q E ",
"D T U d a j I | S.F.].'.'.}.].}.}.}.,.:.{.F.,.[.*XH.f.g.g.g.g.g.g.g.g.f.f.f.*.*.y.y.*.y.j.l.B.!.].!.!.!.].^.~.M.J z b z z z U E ",
"D T D s i k z ) w.F.].'.'.}.].}.].}.f.=.'.f.u.'.D.t.u.i.a.g.g.i.f.f.f.i.i.i.<.%.<.y.*.f.!.!.!.B.!.].!.].].}.[.q.I z k k k f k z ",
"D D D i u h z h | s.F.'.'.}.}.].}.}.D.*.D.u.'.[.l.y.y.t.u.i.y.y.i.i.i.y.u.y.y.*.*.<.-.j.!.!.B.!.!.].!.!.!.].H.' k h D z h z U z ",
"k h i u y i y - K 9.F.F.D.'.].}.[.}.'.*.u.D.}.}.l.i.i.i.i.i.i.u.y.i.y.i.y.y.t.t.%.=.>.j.B.!.!.!.!.Q.].!.l.[.0.u - t u e r t u i ",
"z k f k f f f r d ~ e.G.F.l.].}.}.[.].-.:.].}.].].g.u.i.u.i.i.u.i.i.i.i.p.i.u.y.*.%.f.!.!.!.B.!.!.].!.F.H.M.J k u d f j k b z k ",
"b f f z f f f y h f J c.F.F.F.}.].}.[.,.t.}.].[.[.B.a.i.i.i.u.i.i.y.i.i.i.i.y.y.<.*.g.!.!.!.!.!.!.B.l.H.~.} k f y k b j z k j k ",
"k j k k f f k y d f q [ N.F.D.'.[.[.[.].!.[.].[.[.!.].g.i.i.i.i.i.i.i.y.y.y.y.g.l.l.B.!.!.!.!.B.!.F.H./.5.b k k u b b b j j f j ",
"0 0 f 0 f w w y 0 w w 0 $.N.].F.].}.].[.].].[.!.!.[.].].B.h.g.a.f.p.i.f.g.k.B.!.!.!.!.!.B.!.!.B.B.H._.q.L k k z y h f k b k b f ",
"j f j f j j j e f f j w j $.G.G.F.{.'.}.{.}.].].].].[.H.H.[.!.].!.H.].].[.!.].].!.].!.}.B.l.B.B.G._.x.~ I f b I y f j b j j k f ",
"h d s d s w w t s s g y 5 y N G.H.H.{.'.'.{.}.}.[.].].~.[.].~.].[.].].~.!.[.].].].!.].B.B.B.G.J./.q.K h d d h h - h h d g d d s ",
"V y g i i i y t y i y u y 6 y [ c.H.H.H.'.'.'.].].].].].[.].].].!.[.[.!.[.!.].].].!.H.H.H.G.[.~.4.B ; i g i a a i a i ; y h y r ",
"h i b f b j k z I j j e j f w w K 9.G.H.F.{.{.'.].!.H.].].].H.].[.B.].H.].B.].H.].H.H.G.J./.z.] D h V D k D I U I z z i D T z z ",
"h a E z k z z z j b h 2 f w f w w v [ e.G.H.F.F.[.[.[.[.}.].].].!.[.].].}.J.J.J.G.H.{.(.m.{ L f b z C I U b Y T U z D i D T D k ",
"D P ( E E E k f f k d 1 w 0 f f 0 0 0 d H 9.v.J.{.{.{.{.{.{. X X[.{.{.{.J.J.{.{.oXZ.q.] L f 0 f k s t k j k b b j j j r k D z I ",
") ! Q Q E z 8 8 w w 7 < * * * 8 * * * * @ q K [ I.v.L.|.oXoX X X X|.oX|.oX(.C.q.N J 6 0 0 0 0 0 0 8 2 0 w f 0 0 0 0 0 , 8 0 8 0 ",
"! ) ( Q T k 0 0 8 8 7 < * * 8 * * * * 8 , 0 w 0 q a K [ { I.I.x.v.v.x.I.6.[ Z 9 , 8 8 0 w 0 0 0 0 0 1 0 w w 0 0 0 8 0 < 0 0 8 8 ",
"i < 9 7 3 < < # % % @ O % & % % % 8 * 8 , 9 0 * * & & & * < > 6 y 6 9 9 7 % & % > 3 3 3 s s 9 s 9 7 > 9 9 7 9 3 s 9 9 > 9 0 8 9 ",
"< @ + # o O O o + o o o o o X   X o X O   O X X   X X X X X X X X   X O + X o O O o + @ . + O o O @ > +   @ @ , < < < , < , = 1 ",
"8 8 8 * * @ # $ $ $ $ $ $ $ $ o o $ $ # # # $ $ . $ $ # $ $ $ $ $ o # $ $ $ & $ & & $ % o & $ $ & $ & $ O # $ & $ & & & 8 4 1 w ",
"w w 0 8 8 @ % & & & * $ $ * $ @ # $ & & & & & & X # & $ $ $ & $ $ o # $ * * * * & & & % @ & & & & & & & + # $ $ & & & & 4 0 e U ",
"Q T Y w 0 @ % * * & $ & * * $ @ # $ $ $ & & $ & O & $ $ $ $ * & * o $ & & * * * 4 4 & % O & $ $ $ $ & & o % 8 & 8 8 8 8 8 w u D ",
"T T T Y U i g f f w 8 8 0 0 0 < 2 8 0 * 8 8 0 0 , 9 0 q 8 0 0 0 0 < 9 * 8 8 0 0 0 w f 9 1 0 8 8 4 & & 8 @ 9 w 0 w 0 w 0 f f e f ",
"T T E T k y d f w f w w f w f 5 9 f w f w f w w 2 s f f 0 w w f f 5 9 0 0 0 0 w j f w 9 2 w w 0 0 0 w 8 2 d j f k f j f j z i z ",
"E Q T T k y s f w w w f f f f 5 9 w w q w w f w 1 9 w 0 0 0 0 w 0 , 7 0 9 0 f k E f w 9 5 0 0 8 0 8 0 w 1 w 0 w j f z U U D V U "
};
